%TF.GenerationSoftware,KiCad,Pcbnew,8.0.6-8.0.6-0~ubuntu22.04.1*%
%TF.CreationDate,2024-11-21T09:47:24+02:00*%
%TF.ProjectId,SAMD21_Dev_Board,53414d44-3231-45f4-9465-765f426f6172,rev?*%
%TF.SameCoordinates,Original*%
%TF.FileFunction,Copper,L2,Bot*%
%TF.FilePolarity,Positive*%
%FSLAX46Y46*%
G04 Gerber Fmt 4.6, Leading zero omitted, Abs format (unit mm)*
G04 Created by KiCad (PCBNEW 8.0.6-8.0.6-0~ubuntu22.04.1) date 2024-11-21 09:47:24*
%MOMM*%
%LPD*%
G01*
G04 APERTURE LIST*
G04 Aperture macros list*
%AMRoundRect*
0 Rectangle with rounded corners*
0 $1 Rounding radius*
0 $2 $3 $4 $5 $6 $7 $8 $9 X,Y pos of 4 corners*
0 Add a 4 corners polygon primitive as box body*
4,1,4,$2,$3,$4,$5,$6,$7,$8,$9,$2,$3,0*
0 Add four circle primitives for the rounded corners*
1,1,$1+$1,$2,$3*
1,1,$1+$1,$4,$5*
1,1,$1+$1,$6,$7*
1,1,$1+$1,$8,$9*
0 Add four rect primitives between the rounded corners*
20,1,$1+$1,$2,$3,$4,$5,0*
20,1,$1+$1,$4,$5,$6,$7,0*
20,1,$1+$1,$6,$7,$8,$9,0*
20,1,$1+$1,$8,$9,$2,$3,0*%
G04 Aperture macros list end*
%TA.AperFunction,ComponentPad*%
%ADD10C,6.400000*%
%TD*%
%TA.AperFunction,ComponentPad*%
%ADD11R,2.100000X2.100000*%
%TD*%
%TA.AperFunction,ComponentPad*%
%ADD12C,2.100000*%
%TD*%
%TA.AperFunction,ComponentPad*%
%ADD13RoundRect,0.250000X0.550000X0.350000X-0.550000X0.350000X-0.550000X-0.350000X0.550000X-0.350000X0*%
%TD*%
%TA.AperFunction,ComponentPad*%
%ADD14O,1.000000X2.100000*%
%TD*%
%TA.AperFunction,ComponentPad*%
%ADD15O,1.000000X1.800000*%
%TD*%
%TA.AperFunction,ComponentPad*%
%ADD16R,2.400000X2.400000*%
%TD*%
%TA.AperFunction,ComponentPad*%
%ADD17C,2.400000*%
%TD*%
%TA.AperFunction,ComponentPad*%
%ADD18R,1.000000X1.000000*%
%TD*%
%TA.AperFunction,ComponentPad*%
%ADD19O,1.000000X1.000000*%
%TD*%
%TA.AperFunction,ViaPad*%
%ADD20C,0.500000*%
%TD*%
%TA.AperFunction,ViaPad*%
%ADD21C,0.600000*%
%TD*%
%TA.AperFunction,Conductor*%
%ADD22C,0.600000*%
%TD*%
%TA.AperFunction,Conductor*%
%ADD23C,1.000000*%
%TD*%
%TA.AperFunction,Conductor*%
%ADD24C,2.000000*%
%TD*%
%TA.AperFunction,Conductor*%
%ADD25C,0.300000*%
%TD*%
G04 APERTURE END LIST*
D10*
%TO.P,REF\u002A\u002A,1*%
%TO.N,N/C*%
X86000000Y-53500000D03*
%TD*%
%TO.P,REF\u002A\u002A,1*%
%TO.N,N/C*%
X134000000Y-53500000D03*
%TD*%
D11*
%TO.P,J17,1,Pin_1*%
%TO.N,Net-(J17-Pin_1)*%
X133750000Y-59800000D03*
D12*
%TO.P,J17,2,Pin_2*%
%TO.N,VCC*%
X133750000Y-62340000D03*
%TD*%
D13*
%TO.P,J3,1,Pin_1*%
%TO.N,unconnected-(J3-Pin_1-Pad1)*%
X121158000Y-110998000D03*
%TO.P,J3,2,Pin_2*%
%TO.N,VDC*%
X121158000Y-108458000D03*
%TO.P,J3,3,Pin_3*%
%TO.N,GND*%
X121158000Y-105918000D03*
%TO.P,J3,4,Pin_4*%
%TO.N,VCC*%
X121158000Y-103378000D03*
%TD*%
%TO.P,J5,1,Pin_1*%
%TO.N,VDC*%
X113215000Y-131980000D03*
%TO.P,J5,2,Pin_2*%
X113215000Y-129440000D03*
%TO.P,J5,3,Pin_3*%
%TO.N,unconnected-(J5-Pin_3-Pad3)*%
X113215000Y-126900000D03*
%TO.P,J5,4,Pin_4*%
%TO.N,GND*%
X113215000Y-124360000D03*
%TO.P,J5,5,Pin_5*%
X113215000Y-121820000D03*
%TD*%
D14*
%TO.P,J2,S1,SHIELD*%
%TO.N,GND*%
X127720000Y-56790000D03*
D15*
X127720000Y-52590000D03*
D14*
X119080000Y-56790000D03*
D15*
X119080000Y-52590000D03*
%TD*%
D16*
%TO.P,J18,1,Pin_1*%
%TO.N,VDC*%
X133504000Y-113256000D03*
D17*
%TO.P,J18,2,Pin_2*%
%TO.N,GND*%
X133504000Y-109756000D03*
%TD*%
D10*
%TO.P,REF\u002A\u002A,1*%
%TO.N,N/C*%
X134000000Y-133500000D03*
%TD*%
D18*
%TO.P,J1,1,VTref*%
%TO.N,VCC*%
X100193000Y-75956000D03*
D19*
%TO.P,J1,2,SWDIO/TMS*%
%TO.N,SWDIO*%
X98923000Y-75956000D03*
%TO.P,J1,3,GND*%
%TO.N,GND*%
X100193000Y-74686000D03*
%TO.P,J1,4,SWCLK/TCK*%
%TO.N,SWCLK*%
X98923000Y-74686000D03*
%TO.P,J1,5,GND*%
%TO.N,GND*%
X100193000Y-73416000D03*
%TO.P,J1,6,SWO/TDO*%
%TO.N,unconnected-(J1-SWO{slash}TDO-Pad6)*%
X98923000Y-73416000D03*
%TO.P,J1,7,KEY*%
%TO.N,unconnected-(J1-KEY-Pad7)*%
X100193000Y-72146000D03*
%TO.P,J1,8,NC/TDI*%
%TO.N,unconnected-(J1-NC{slash}TDI-Pad8)*%
X98923000Y-72146000D03*
%TO.P,J1,9,GNDDetect*%
%TO.N,GND*%
X100193000Y-70876000D03*
%TO.P,J1,10,~{RESET}*%
%TO.N,RESET*%
X98923000Y-70876000D03*
%TD*%
D13*
%TO.P,J20,1,Pin_1*%
%TO.N,VDC*%
X92725000Y-131980000D03*
%TO.P,J20,2,Pin_2*%
X92725000Y-129440000D03*
%TO.P,J20,3,Pin_3*%
%TO.N,unconnected-(J20-Pin_3-Pad3)_1*%
X92725000Y-126900000D03*
%TO.P,J20,4,Pin_4*%
%TO.N,GND*%
X92725000Y-124360000D03*
%TO.P,J20,5,Pin_5*%
X92725000Y-121820000D03*
%TD*%
D10*
%TO.P,REF\u002A\u002A,1*%
%TO.N,N/C*%
X86000000Y-133500000D03*
%TD*%
D13*
%TO.P,J6,1,Pin_1*%
%TO.N,GND*%
X127165000Y-131980000D03*
%TO.P,J6,2,Pin_2*%
X127165000Y-129440000D03*
%TO.P,J6,3,Pin_3*%
%TO.N,unconnected-(J6-Pin_3-Pad3)_1*%
X127165000Y-126900000D03*
%TO.P,J6,4,Pin_4*%
%TO.N,VDC*%
X127165000Y-124360000D03*
%TO.P,J6,5,Pin_5*%
X127165000Y-121820000D03*
%TD*%
%TO.P,J4,1,Pin_1*%
%TO.N,GND*%
X106675000Y-131980000D03*
%TO.P,J4,2,Pin_2*%
X106675000Y-129440000D03*
%TO.P,J4,3,Pin_3*%
%TO.N,unconnected-(J4-Pin_3-Pad3)*%
X106675000Y-126900000D03*
%TO.P,J4,4,Pin_4*%
%TO.N,VDC*%
X106675000Y-124360000D03*
%TO.P,J4,5,Pin_5*%
X106675000Y-121820000D03*
%TD*%
D20*
%TO.N,GND*%
X95404000Y-118872000D03*
X94685000Y-120468000D03*
X109230000Y-83106000D03*
X115216000Y-120408000D03*
X125000000Y-131522000D03*
X117094000Y-52070000D03*
X115216000Y-121170000D03*
X117283000Y-93472000D03*
X129200000Y-128728000D03*
X114902000Y-118900000D03*
X125000000Y-132538000D03*
X132588000Y-116840000D03*
X90485000Y-120468000D03*
X93372000Y-118872000D03*
X94685000Y-121230000D03*
X94388000Y-118872000D03*
X125000000Y-130506000D03*
X112522000Y-98552000D03*
X88899394Y-70600000D03*
X132588000Y-118110000D03*
X104600000Y-133372000D03*
X108800000Y-129816000D03*
X115316000Y-73406000D03*
X88900000Y-111800000D03*
X107442000Y-67818000D03*
X104600000Y-132610000D03*
X115216000Y-122186000D03*
X131064000Y-75438000D03*
X109982000Y-67818000D03*
X90485000Y-124024000D03*
X125000000Y-133300000D03*
X111600000Y-118900000D03*
X110490000Y-73406000D03*
X125730000Y-105918000D03*
X103378000Y-74168000D03*
X106680000Y-94742000D03*
X90485000Y-123008000D03*
X115216000Y-123202000D03*
X111016000Y-122948000D03*
X115918000Y-118900000D03*
X132588000Y-119380000D03*
X110584000Y-118900000D03*
X90485000Y-125040000D03*
X104600000Y-131594000D03*
X112014000Y-76200000D03*
X113886000Y-118900000D03*
X124714000Y-105918000D03*
X112616000Y-118900000D03*
X94685000Y-122246000D03*
X108800000Y-128800000D03*
X113030000Y-63246000D03*
X116586000Y-67818000D03*
X91086000Y-118872000D03*
X129200000Y-133300000D03*
X129200000Y-130760000D03*
X126746000Y-105918000D03*
X104600000Y-130578000D03*
X108458000Y-90932000D03*
X92102000Y-118872000D03*
X94685000Y-123262000D03*
X103124000Y-99822000D03*
X90070000Y-118872000D03*
X89154000Y-60278000D03*
X115570000Y-52070000D03*
X101600000Y-74676000D03*
X108800000Y-130832000D03*
X111016000Y-123964000D03*
X121666000Y-73000000D03*
X88851000Y-80934000D03*
X129200000Y-129744000D03*
X131064000Y-83820000D03*
X88900000Y-101478000D03*
X111016000Y-120408000D03*
X131064000Y-104350000D03*
X131064000Y-94000000D03*
X111016000Y-124980000D03*
X126238000Y-68100000D03*
X88900000Y-91184000D03*
X108800000Y-133372000D03*
X117348000Y-60106000D03*
%TO.N,VDC*%
X135900000Y-121666000D03*
X136600000Y-67800000D03*
X135200000Y-67156000D03*
X135890000Y-124460000D03*
X135900000Y-67156000D03*
X136600000Y-67156000D03*
X135200000Y-67800000D03*
X135890000Y-123190000D03*
X135900000Y-67800000D03*
%TO.N,SWDIO*%
X106993263Y-75465266D03*
X99060000Y-78232000D03*
%TO.N,SWCLK*%
X98044000Y-77470000D03*
X106934000Y-74756000D03*
%TO.N,SDA0*%
X89154000Y-62278000D03*
X100270000Y-94548000D03*
%TO.N,SCL0*%
X100778000Y-95231289D03*
X89154000Y-63250000D03*
%TO.N,SDA1*%
X89154000Y-72600000D03*
X100263564Y-95900000D03*
%TO.N,SCL1*%
X100778000Y-96550000D03*
X89154000Y-73600000D03*
%TO.N,RESET*%
X114666000Y-65786000D03*
X109982000Y-72136000D03*
%TO.N,SDA2*%
X100270000Y-97200000D03*
X89154000Y-82934000D03*
%TO.N,SCL2*%
X89154000Y-83934000D03*
X100778000Y-97850000D03*
%TO.N,SDA3*%
X100270000Y-98597000D03*
X89154000Y-93184000D03*
%TO.N,SCL3*%
X89154000Y-94184000D03*
X100778000Y-99247000D03*
%TO.N,SDA4*%
X106519120Y-99953119D03*
X89754000Y-103478000D03*
%TO.N,SCL4*%
X89154000Y-104478000D03*
X106426000Y-99060000D03*
%TO.N,SDA5*%
X89754000Y-113800000D03*
X109728000Y-98552000D03*
%TO.N,SCL5*%
X109220000Y-97910000D03*
X89154000Y-114800000D03*
%TO.N,SDA6*%
X109668000Y-97282000D03*
X128700000Y-102200000D03*
%TO.N,SCL6*%
X109668000Y-96559997D03*
X128700000Y-101300000D03*
%TO.N,SDA7*%
X128700000Y-91900000D03*
X109033000Y-95910000D03*
%TO.N,SCL7*%
X109223822Y-95236509D03*
X128700000Y-91000000D03*
%TO.N,D10{slash}SPI_SS*%
X114808000Y-70358000D03*
X123190000Y-73406000D03*
%TO.N,Net-(U1-~{RESET})*%
X103114496Y-93845180D03*
X101286000Y-90932000D03*
%TO.N,SPI_SCK*%
X118618000Y-72506000D03*
X119126000Y-70612000D03*
%TO.N,D4*%
X130302000Y-100330000D03*
X118364000Y-76708000D03*
%TO.N,D3*%
X118618000Y-75806000D03*
X130000000Y-99075863D03*
%TO.N,D2*%
X130834299Y-86846248D03*
X116007764Y-71337101D03*
%TO.N,D5*%
X130810000Y-89916000D03*
X115570000Y-70612000D03*
%TO.N,Net-(J17-Pin_1)*%
X120904000Y-60706000D03*
%TO.N,D13*%
X116586000Y-62992000D03*
X115178462Y-67789593D03*
%TO.N,I2C_SCL*%
X113792000Y-93980000D03*
X105743621Y-93835538D03*
X112105384Y-70957384D03*
X118364000Y-90932000D03*
%TO.N,I2C_SDA*%
X111252000Y-90932000D03*
X112705384Y-71452361D03*
X106421058Y-93410000D03*
X113792000Y-92710000D03*
%TO.N,TX_LED*%
X107442000Y-71486000D03*
X101854000Y-60198000D03*
%TO.N,RX_LED*%
X108712000Y-76708000D03*
D21*
X98044000Y-61214000D03*
D20*
%TO.N,USB_D-*%
X123400000Y-58600000D03*
X112014000Y-67564000D03*
%TO.N,USB_D+*%
X122579367Y-58611254D03*
X111179310Y-67402000D03*
%TO.N,D31*%
X108966000Y-77470000D03*
X109926387Y-71234831D03*
%TD*%
D22*
%TO.N,VCC*%
X133750000Y-62770000D02*
X134180000Y-62340000D01*
D23*
%TO.N,GND*%
X129032000Y-51308000D02*
X127508000Y-51308000D01*
D24*
X132334000Y-118872000D02*
X132334000Y-116840000D01*
D23*
X83820000Y-118580000D02*
X83820000Y-118072000D01*
X133604000Y-84074000D02*
X133604000Y-94234000D01*
D24*
X83820000Y-118872000D02*
X90170000Y-118872000D01*
D22*
X131064000Y-75438000D02*
X133350000Y-75438000D01*
D24*
X91086000Y-118872000D02*
X92102000Y-118872000D01*
D22*
X127720000Y-51520000D02*
X127508000Y-51308000D01*
D23*
X96148342Y-51308000D02*
X91456342Y-56000000D01*
D22*
X84006000Y-90634000D02*
X83820000Y-90820000D01*
D23*
X119126000Y-51308000D02*
X127508000Y-51308000D01*
D24*
X127762000Y-118872000D02*
X129032000Y-118872000D01*
D22*
X86948000Y-60278000D02*
X86948000Y-60248000D01*
X89154000Y-60278000D02*
X86948000Y-60278000D01*
X133604000Y-94234000D02*
X133370000Y-94000000D01*
D23*
X83820000Y-111252000D02*
X83820000Y-60706000D01*
D22*
X131064000Y-104350000D02*
X133814000Y-104350000D01*
D23*
X133604000Y-84074000D02*
X133604000Y-75184000D01*
D22*
X88851000Y-80934000D02*
X83793000Y-80934000D01*
D25*
X115570000Y-52070000D02*
X115570000Y-51308000D01*
D24*
X132334000Y-116840000D02*
X129540000Y-114046000D01*
D22*
X83978000Y-100634000D02*
X83820000Y-100476000D01*
X83793000Y-80524000D02*
X83771000Y-80546000D01*
D24*
X90070000Y-118872000D02*
X91086000Y-118872000D01*
X129540000Y-114046000D02*
X129540000Y-111252000D01*
D23*
X135128000Y-57658000D02*
X130556000Y-57658000D01*
D25*
X117094000Y-52070000D02*
X117094000Y-51308000D01*
D23*
X91456342Y-56000000D02*
X89800000Y-56000000D01*
X115570000Y-51308000D02*
X117094000Y-51308000D01*
X83820000Y-118072000D02*
X83820000Y-110452000D01*
D24*
X94388000Y-118872000D02*
X95404000Y-118872000D01*
D23*
X133604000Y-65278000D02*
X136144000Y-62738000D01*
D22*
X131064000Y-83820000D02*
X133350000Y-83820000D01*
X133370000Y-94000000D02*
X131064000Y-94000000D01*
D23*
X129540000Y-56642000D02*
X129540000Y-51816000D01*
X136144000Y-62738000D02*
X136144000Y-58674000D01*
D22*
X133350000Y-83820000D02*
X133604000Y-84074000D01*
D24*
X95504000Y-118872000D02*
X124968000Y-118872000D01*
D23*
X129540000Y-51816000D02*
X129032000Y-51308000D01*
D22*
X127720000Y-56790000D02*
X127720000Y-52590000D01*
D24*
X92102000Y-118872000D02*
X93372000Y-118872000D01*
D23*
X89800000Y-56000000D02*
X86250000Y-59550000D01*
D22*
X119080000Y-51354000D02*
X119126000Y-51308000D01*
X88900000Y-111800000D02*
X84068000Y-111800000D01*
D24*
X129032000Y-118872000D02*
X130302000Y-118872000D01*
D22*
X133350000Y-75438000D02*
X133604000Y-75184000D01*
X119080000Y-56790000D02*
X119080000Y-52590000D01*
D23*
X133604000Y-75184000D02*
X133604000Y-65278000D01*
D22*
X84068000Y-110700000D02*
X83820000Y-110452000D01*
X127720000Y-52590000D02*
X127720000Y-51520000D01*
D23*
X115570000Y-51308000D02*
X96148342Y-51308000D01*
X130556000Y-57658000D02*
X129540000Y-56642000D01*
D22*
X119080000Y-52590000D02*
X119080000Y-51354000D01*
X83961394Y-70461712D02*
X83819394Y-70319712D01*
D24*
X129540000Y-111252000D02*
X131036000Y-109756000D01*
X130302000Y-118872000D02*
X131318000Y-118872000D01*
X131318000Y-118872000D02*
X132334000Y-118872000D01*
D22*
X83872000Y-60758000D02*
X83820000Y-60706000D01*
X88900000Y-101478000D02*
X83978000Y-101478000D01*
D24*
X93372000Y-118872000D02*
X94388000Y-118872000D01*
D23*
X117094000Y-51308000D02*
X119126000Y-51308000D01*
D22*
X88899394Y-70600000D02*
X83961394Y-70600000D01*
D24*
X131036000Y-109756000D02*
X133504000Y-109756000D01*
X126492000Y-118872000D02*
X127762000Y-118872000D01*
D23*
X136144000Y-58674000D02*
X135128000Y-57658000D01*
X133604000Y-94234000D02*
X133604000Y-109656000D01*
D24*
X124968000Y-118872000D02*
X126492000Y-118872000D01*
D23*
X85094000Y-60706000D02*
X83820000Y-60706000D01*
D22*
X88900000Y-91200000D02*
X84006000Y-91200000D01*
X86948000Y-60248000D02*
X86250000Y-59550000D01*
D23*
X86250000Y-59550000D02*
X85094000Y-60706000D01*
X133604000Y-109656000D02*
X133504000Y-109756000D01*
D24*
%TO.N,VDC*%
X135876000Y-113256000D02*
X133504000Y-113256000D01*
X135900000Y-124196000D02*
X135890000Y-124206000D01*
X136300000Y-121266000D02*
X135900000Y-121666000D01*
X136300000Y-113680000D02*
X135876000Y-113256000D01*
X135900000Y-68000000D02*
X136300000Y-68400000D01*
X135900000Y-66812000D02*
X135900000Y-68000000D01*
X136300000Y-68400000D02*
X136300000Y-113680000D01*
D23*
X136500000Y-67800000D02*
X136500000Y-67800000D01*
D24*
X135890000Y-66802000D02*
X135900000Y-66812000D01*
D23*
X135700000Y-67800000D02*
X135700000Y-67156000D01*
D24*
X135900000Y-121666000D02*
X135900000Y-124196000D01*
D23*
X136500000Y-67800000D02*
X135700000Y-67800000D01*
D24*
X136300000Y-112918000D02*
X136300000Y-121266000D01*
D25*
%TO.N,SWDIO*%
X106906734Y-75465266D02*
X104140000Y-78232000D01*
X106993263Y-75465266D02*
X106906734Y-75465266D01*
X104140000Y-78232000D02*
X99060000Y-78232000D01*
%TO.N,SWCLK*%
X106934000Y-74756000D02*
X106854000Y-74756000D01*
X106854000Y-74756000D02*
X104140000Y-77470000D01*
X104140000Y-77470000D02*
X98044000Y-77470000D01*
%TO.N,SDA0*%
X89154000Y-62278000D02*
X89202000Y-62278000D01*
X89202000Y-62278000D02*
X92964000Y-66040000D01*
X92964000Y-66040000D02*
X92964000Y-89682470D01*
X97829530Y-94548000D02*
X100270000Y-94548000D01*
X92964000Y-89682470D02*
X97829530Y-94548000D01*
%TO.N,SCL0*%
X89154000Y-63250000D02*
X89158000Y-63250000D01*
X89158000Y-63250000D02*
X92456000Y-66548000D01*
X92456000Y-89881576D02*
X97805713Y-95231289D01*
X97805713Y-95231289D02*
X100778000Y-95231289D01*
X92456000Y-66548000D02*
X92456000Y-89881576D01*
%TO.N,SDA1*%
X91956000Y-90056682D02*
X91940000Y-90072682D01*
X89154000Y-72600000D02*
X89754000Y-73200000D01*
X91940000Y-90072682D02*
X97767318Y-95900000D01*
X89754000Y-74834181D02*
X91956000Y-77036181D01*
X97767318Y-95900000D02*
X100263564Y-95900000D01*
X91956000Y-77036181D02*
X91956000Y-90056682D01*
X89754000Y-73200000D02*
X89754000Y-74834181D01*
%TO.N,SCL1*%
X97710212Y-96550000D02*
X100778000Y-96550000D01*
X91440000Y-77227287D02*
X91440000Y-90279788D01*
X89154001Y-74941288D02*
X91440000Y-77227287D01*
X91440000Y-90279788D02*
X97710212Y-96550000D01*
X89154000Y-74941288D02*
X89154001Y-74941288D01*
X89154000Y-73600000D02*
X89154000Y-74941288D01*
%TO.N,RESET*%
X109982000Y-72136000D02*
X110744000Y-72136000D01*
X110744000Y-72136000D02*
X111505384Y-71374616D01*
X111505384Y-70614142D02*
X114666000Y-67453526D01*
X114666000Y-67453526D02*
X114666000Y-65786000D01*
X111505384Y-71374616D02*
X111505384Y-70614142D01*
%TO.N,SDA2*%
X90424000Y-84204000D02*
X89154000Y-82934000D01*
X97653106Y-97200000D02*
X100270000Y-97200000D01*
X90424000Y-89970894D02*
X97653106Y-97200000D01*
X90424000Y-89970894D02*
X90424000Y-84204000D01*
%TO.N,SCL2*%
X97596000Y-97850000D02*
X100778000Y-97850000D01*
X89916000Y-84696000D02*
X89154000Y-83934000D01*
X89916000Y-90170000D02*
X89916000Y-84696000D01*
X89916000Y-90170000D02*
X97596000Y-97850000D01*
%TO.N,SDA3*%
X89154000Y-93184000D02*
X89154000Y-93260000D01*
X94567000Y-98597000D02*
X89154000Y-93184000D01*
X100270000Y-98597000D02*
X94567000Y-98597000D01*
%TO.N,SCL3*%
X100778000Y-99247000D02*
X94217000Y-99247000D01*
X89154000Y-94184000D02*
X89316000Y-94184000D01*
X94217000Y-99247000D02*
X89154000Y-94184000D01*
%TO.N,SDA4*%
X104035619Y-102445001D02*
X103200000Y-103280620D01*
X104035619Y-102436620D02*
X104035619Y-102445001D01*
X104035619Y-102436620D02*
X106519120Y-99953119D01*
X89754000Y-103478000D02*
X89951380Y-103280620D01*
X89951380Y-103280620D02*
X103200000Y-103280620D01*
%TO.N,SCL4*%
X89325380Y-102780620D02*
X102700000Y-102780620D01*
X89154000Y-102952000D02*
X89325380Y-102780620D01*
X103549380Y-101936620D02*
X103544000Y-101936620D01*
X103544000Y-101936620D02*
X102700000Y-102780620D01*
X103549380Y-101936620D02*
X106426000Y-99060000D01*
X89154000Y-104478000D02*
X89154000Y-102952000D01*
%TO.N,SDA5*%
X103880000Y-104400000D02*
X109728000Y-98552000D01*
X89754000Y-113800000D02*
X90100000Y-113454000D01*
X90100000Y-113454000D02*
X90100000Y-105207106D01*
X90100000Y-105207106D02*
X90907106Y-104400000D01*
X90907106Y-104400000D02*
X103880000Y-104400000D01*
%TO.N,SCL5*%
X89154000Y-113551471D02*
X89154000Y-114800000D01*
X109220000Y-98171478D02*
X103491478Y-103900000D01*
X103491478Y-103900000D02*
X90700000Y-103900000D01*
X89550000Y-113155471D02*
X89154000Y-113551471D01*
X90700000Y-103900000D02*
X89550000Y-105050000D01*
X109220000Y-97910000D02*
X109220000Y-98171478D01*
X89550000Y-105050000D02*
X89550000Y-113155471D01*
%TO.N,SDA6*%
X128680761Y-102200000D02*
X123762761Y-97282000D01*
X128700000Y-102200000D02*
X128680761Y-102200000D01*
X109746000Y-97282000D02*
X109668000Y-97360000D01*
X123762761Y-97282000D02*
X109746000Y-97282000D01*
%TO.N,SCL6*%
X123899997Y-96499997D02*
X128700000Y-101300000D01*
X123899997Y-96499997D02*
X109728000Y-96499997D01*
X109728000Y-96499997D02*
X109668000Y-96559997D01*
%TO.N,SDA7*%
X109033000Y-95910000D02*
X121911174Y-95910000D01*
X122118587Y-95702587D02*
X125921173Y-91900000D01*
X121911174Y-95910000D02*
X122118587Y-95702587D01*
X125921173Y-91900000D02*
X128700000Y-91900000D01*
X121971173Y-95850000D02*
X122118587Y-95702587D01*
%TO.N,SCL7*%
X121972932Y-94929000D02*
X125901932Y-91000000D01*
X125901932Y-91000000D02*
X128700000Y-91000000D01*
X109223822Y-95236509D02*
X109531331Y-94929000D01*
X109531331Y-94929000D02*
X121972932Y-94929000D01*
%TO.N,D10{slash}SPI_SS*%
X119746000Y-69962000D02*
X123190000Y-73406000D01*
X115204000Y-69962000D02*
X119746000Y-69962000D01*
X114808000Y-70358000D02*
X115204000Y-69962000D01*
%TO.N,Net-(U1-~{RESET})*%
X103064000Y-93794684D02*
X103114496Y-93845180D01*
X103064000Y-92710000D02*
X103064000Y-93794684D01*
X101286000Y-90932000D02*
X103064000Y-92710000D01*
%TO.N,SPI_SCK*%
X118618000Y-71120000D02*
X118618000Y-72506000D01*
X119126000Y-70612000D02*
X118618000Y-71120000D01*
%TO.N,D4*%
X118364000Y-76708000D02*
X129350000Y-87694000D01*
X129350000Y-87694000D02*
X129350000Y-98806000D01*
X130302000Y-100330000D02*
X129350000Y-99378000D01*
X129350000Y-99378000D02*
X129350000Y-98806000D01*
%TO.N,D3*%
X118618000Y-75806000D02*
X119225553Y-76413553D01*
X119225553Y-76413553D02*
X119225553Y-76862447D01*
X129850000Y-87486893D02*
X129850000Y-89662000D01*
X119225553Y-76862447D02*
X127353553Y-84990447D01*
X127353553Y-84990447D02*
X127707107Y-85344000D01*
X129850000Y-98925863D02*
X130000000Y-99075863D01*
X127707107Y-85344000D02*
X129850000Y-87486893D01*
X129850000Y-89662000D02*
X129850000Y-98044000D01*
X129850000Y-98044000D02*
X129850000Y-98925863D01*
%TO.N,D2*%
X120694659Y-76917341D02*
X120694659Y-76236129D01*
X130623566Y-86846248D02*
X120694659Y-76917341D01*
X120694659Y-76236129D02*
X116007764Y-71549234D01*
X130834299Y-86846248D02*
X130623566Y-86846248D01*
X116007764Y-71549234D02*
X116007764Y-71337101D01*
%TO.N,D5*%
X119960106Y-76208682D02*
X115396010Y-71644586D01*
X130350000Y-89456000D02*
X130350000Y-87279786D01*
X115396010Y-71644586D02*
X115396010Y-70785990D01*
X130350000Y-87279786D02*
X129104108Y-86033894D01*
X115396010Y-70785990D02*
X115570000Y-70612000D01*
X119960106Y-76889894D02*
X119960106Y-76208682D01*
X130810000Y-89916000D02*
X130350000Y-89456000D01*
X129104108Y-86033894D02*
X129104106Y-86033894D01*
X129104106Y-86033894D02*
X119960106Y-76889894D01*
%TO.N,Net-(J17-Pin_1)*%
X130556000Y-60706000D02*
X120904000Y-60706000D01*
X131462000Y-59800000D02*
X130556000Y-60706000D01*
X132844000Y-60706000D02*
X133750000Y-59800000D01*
X133750000Y-59800000D02*
X131462000Y-59800000D01*
X133750000Y-59800000D02*
X133750000Y-60230000D01*
%TO.N,D13*%
X115316000Y-64262000D02*
X116586000Y-62992000D01*
X115178462Y-67789593D02*
X115316000Y-67652055D01*
X115316000Y-67652055D02*
X115316000Y-64262000D01*
%TO.N,I2C_SCL*%
X115570000Y-93726000D02*
X118364000Y-90932000D01*
X113284000Y-82804000D02*
X105743621Y-90344379D01*
X105664000Y-93755917D02*
X105743621Y-93835538D01*
X113792000Y-93980000D02*
X114046000Y-93726000D01*
X113284000Y-73157761D02*
X113284000Y-82804000D01*
X112105384Y-70957384D02*
X112105384Y-71979145D01*
X105743621Y-90344379D02*
X105743621Y-93835538D01*
X112105384Y-71979145D02*
X113284000Y-73157761D01*
X114046000Y-93726000D02*
X115570000Y-93726000D01*
%TO.N,I2C_SDA*%
X111252000Y-90932000D02*
X113030000Y-92710000D01*
X112705384Y-71872039D02*
X113784000Y-72950655D01*
X112705384Y-71452361D02*
X112705384Y-71872039D01*
X113784000Y-83011106D02*
X106421058Y-90374048D01*
X106421058Y-90374048D02*
X106421058Y-93410000D01*
X113784000Y-72950655D02*
X113784000Y-83011106D01*
X113030000Y-92710000D02*
X113792000Y-92710000D01*
%TO.N,TX_LED*%
X101854000Y-65898000D02*
X101854000Y-60960000D01*
X101854000Y-60960000D02*
X101854000Y-60198000D01*
X107442000Y-71486000D02*
X101854000Y-65898000D01*
%TO.N,RX_LED*%
X107408000Y-72356000D02*
X107457239Y-72356000D01*
X98044000Y-61214000D02*
X98044000Y-62992000D01*
X98044000Y-62992000D02*
X107408000Y-72356000D01*
X107457239Y-72356000D02*
X108712000Y-73610761D01*
X108712000Y-73610761D02*
X108712000Y-76708000D01*
%TO.N,USB_D-*%
X112014000Y-67564000D02*
X112014000Y-59690000D01*
X122230874Y-59182000D02*
X122310128Y-59261254D01*
X112522000Y-59182000D02*
X122230874Y-59182000D01*
X122848606Y-59261254D02*
X123400000Y-58709860D01*
X122310128Y-59261254D02*
X122848606Y-59261254D01*
X123400000Y-58709860D02*
X123400000Y-58600000D01*
X112014000Y-59690000D02*
X112522000Y-59182000D01*
%TO.N,USB_D+*%
X112076746Y-58611254D02*
X122579367Y-58611254D01*
X111179310Y-67402000D02*
X111179310Y-59508690D01*
X111179310Y-59508690D02*
X112076746Y-58611254D01*
%TO.N,D31*%
X109926387Y-71234831D02*
X109312000Y-71849218D01*
X109312000Y-71849218D02*
X109312000Y-77124000D01*
X109312000Y-77124000D02*
X108966000Y-77470000D01*
%TD*%
%TA.AperFunction,Conductor*%
%TO.N,GND*%
G36*
X132113422Y-50104185D02*
G01*
X132159177Y-50156989D01*
X132169121Y-50226147D01*
X132140096Y-50289703D01*
X132113918Y-50312495D01*
X131821917Y-50502122D01*
X131520488Y-50746215D01*
X131520480Y-50746222D01*
X131246222Y-51020480D01*
X131246215Y-51020488D01*
X131002122Y-51321917D01*
X130790877Y-51647206D01*
X130614787Y-51992802D01*
X130475788Y-52354905D01*
X130375397Y-52729570D01*
X130375397Y-52729572D01*
X130314722Y-53112660D01*
X130294422Y-53499999D01*
X130294422Y-53500000D01*
X130314722Y-53887339D01*
X130375397Y-54270427D01*
X130375397Y-54270429D01*
X130475788Y-54645094D01*
X130614787Y-55007197D01*
X130790877Y-55352793D01*
X131002122Y-55678082D01*
X131140930Y-55849495D01*
X131246219Y-55979516D01*
X131520484Y-56253781D01*
X131520488Y-56253784D01*
X131821917Y-56497877D01*
X132126974Y-56695983D01*
X132147211Y-56709125D01*
X132492806Y-56885214D01*
X132854913Y-57024214D01*
X133229567Y-57124602D01*
X133612662Y-57185278D01*
X133978576Y-57204455D01*
X133999999Y-57205578D01*
X134000000Y-57205578D01*
X134000001Y-57205578D01*
X134020301Y-57204514D01*
X134387338Y-57185278D01*
X134770433Y-57124602D01*
X135145087Y-57024214D01*
X135507194Y-56885214D01*
X135852789Y-56709125D01*
X136178084Y-56497876D01*
X136479516Y-56253781D01*
X136753781Y-55979516D01*
X136997876Y-55678084D01*
X137139505Y-55459995D01*
X137192526Y-55414492D01*
X137261731Y-55404878D01*
X137325148Y-55434205D01*
X137362642Y-55493162D01*
X137367500Y-55527530D01*
X137367500Y-64602500D01*
X137347815Y-64669539D01*
X137295011Y-64715294D01*
X137243500Y-64726500D01*
X135240545Y-64726500D01*
X135154453Y-64731115D01*
X135154444Y-64731115D01*
X135154436Y-64731116D01*
X135154433Y-64731116D01*
X135154422Y-64731117D01*
X135128077Y-64733949D01*
X134995145Y-64759688D01*
X134828158Y-64827861D01*
X134828154Y-64827863D01*
X134766817Y-64861355D01*
X134724319Y-64886279D01*
X134724303Y-64886291D01*
X134583293Y-64998741D01*
X134583289Y-64998745D01*
X134371259Y-65210774D01*
X134313618Y-65274947D01*
X134296980Y-65295594D01*
X134221194Y-65407772D01*
X134151314Y-65574067D01*
X134131624Y-65641122D01*
X134119196Y-65688799D01*
X134099000Y-65868042D01*
X134099000Y-104190503D01*
X134101483Y-104253701D01*
X134103010Y-104273097D01*
X134108140Y-104316428D01*
X134109000Y-104331005D01*
X134109000Y-104368984D01*
X134108140Y-104383561D01*
X134103011Y-104426879D01*
X134101482Y-104446308D01*
X134099000Y-104509493D01*
X134099000Y-108276005D01*
X134103615Y-108362096D01*
X134103617Y-108362127D01*
X134106449Y-108388472D01*
X134132188Y-108521404D01*
X134200361Y-108688391D01*
X134200363Y-108688395D01*
X134233855Y-108749732D01*
X134258779Y-108792230D01*
X134258791Y-108792246D01*
X134371241Y-108933256D01*
X134403157Y-108965172D01*
X134414743Y-108978543D01*
X134506550Y-109101184D01*
X134516115Y-109116067D01*
X134589534Y-109250523D01*
X134596884Y-109266616D01*
X134650425Y-109410164D01*
X134655409Y-109427141D01*
X134687971Y-109576830D01*
X134690489Y-109594340D01*
X134701419Y-109747152D01*
X134701419Y-109764846D01*
X134690489Y-109917658D01*
X134687971Y-109935168D01*
X134655409Y-110084857D01*
X134650425Y-110101834D01*
X134596884Y-110245382D01*
X134589534Y-110261475D01*
X134516114Y-110395933D01*
X134506549Y-110410816D01*
X134414744Y-110533453D01*
X134403158Y-110546824D01*
X134294826Y-110655156D01*
X134281456Y-110666742D01*
X134071289Y-110824072D01*
X134063763Y-110831043D01*
X134015684Y-110866654D01*
X133970790Y-110908452D01*
X133921822Y-110958176D01*
X133816692Y-111104751D01*
X133746814Y-111271041D01*
X133727129Y-111338081D01*
X133714695Y-111385782D01*
X133707979Y-111445386D01*
X133680911Y-111509800D01*
X133623315Y-111549353D01*
X133584759Y-111555500D01*
X132256129Y-111555500D01*
X132256123Y-111555501D01*
X132196516Y-111561908D01*
X132061671Y-111612202D01*
X132061664Y-111612206D01*
X131946455Y-111698452D01*
X131946452Y-111698455D01*
X131860206Y-111813664D01*
X131860202Y-111813671D01*
X131809908Y-111948517D01*
X131803501Y-112008116D01*
X131803500Y-112008135D01*
X131803500Y-114503870D01*
X131803501Y-114503876D01*
X131809908Y-114563483D01*
X131860202Y-114698328D01*
X131860206Y-114698335D01*
X131946452Y-114813544D01*
X131946455Y-114813547D01*
X132061664Y-114899793D01*
X132061671Y-114899797D01*
X132196517Y-114950091D01*
X132196516Y-114950091D01*
X132203444Y-114950835D01*
X132256127Y-114956500D01*
X133570500Y-114956499D01*
X133637539Y-114976184D01*
X133683294Y-115028987D01*
X133694500Y-115080499D01*
X133694500Y-120650000D01*
X82596500Y-120650000D01*
X82596500Y-104477997D01*
X88398751Y-104477997D01*
X88398751Y-104478002D01*
X88417685Y-104646056D01*
X88473545Y-104805694D01*
X88473547Y-104805697D01*
X88563518Y-104948884D01*
X88563523Y-104948890D01*
X88683109Y-105068476D01*
X88683115Y-105068481D01*
X88826305Y-105158454D01*
X88829299Y-105159896D01*
X88830899Y-105161341D01*
X88832206Y-105162162D01*
X88832062Y-105162390D01*
X88881160Y-105206717D01*
X88899500Y-105271617D01*
X88899500Y-112834662D01*
X88879815Y-112901701D01*
X88863181Y-112922343D01*
X88648727Y-113136796D01*
X88648724Y-113136799D01*
X88600132Y-113209524D01*
X88577535Y-113243342D01*
X88528499Y-113361726D01*
X88528497Y-113361732D01*
X88503500Y-113487399D01*
X88503500Y-114388911D01*
X88484495Y-114454882D01*
X88473544Y-114472310D01*
X88417685Y-114631943D01*
X88398751Y-114799997D01*
X88398751Y-114800002D01*
X88417685Y-114968056D01*
X88473545Y-115127694D01*
X88473547Y-115127697D01*
X88563518Y-115270884D01*
X88563523Y-115270890D01*
X88683109Y-115390476D01*
X88683115Y-115390481D01*
X88826302Y-115480452D01*
X88826305Y-115480454D01*
X88826309Y-115480455D01*
X88826310Y-115480456D01*
X88898913Y-115505860D01*
X88985943Y-115536314D01*
X89153997Y-115555249D01*
X89154000Y-115555249D01*
X89154003Y-115555249D01*
X89322056Y-115536314D01*
X89322059Y-115536313D01*
X89481690Y-115480456D01*
X89481692Y-115480454D01*
X89481694Y-115480454D01*
X89481697Y-115480452D01*
X89624884Y-115390481D01*
X89624885Y-115390480D01*
X89624890Y-115390477D01*
X89744477Y-115270890D01*
X89834452Y-115127697D01*
X89834454Y-115127694D01*
X89834454Y-115127692D01*
X89834456Y-115127690D01*
X89890313Y-114968059D01*
X89890313Y-114968058D01*
X89890314Y-114968056D01*
X89909249Y-114800002D01*
X89909249Y-114799997D01*
X89892223Y-114648892D01*
X89904277Y-114580070D01*
X89951626Y-114528691D01*
X89974484Y-114517968D01*
X90081690Y-114480456D01*
X90081693Y-114480453D01*
X90081697Y-114480452D01*
X90224884Y-114390481D01*
X90224885Y-114390480D01*
X90224890Y-114390477D01*
X90344477Y-114270890D01*
X90434456Y-114127690D01*
X90472582Y-114018729D01*
X90501943Y-113972002D01*
X90605277Y-113868669D01*
X90676465Y-113762127D01*
X90725501Y-113643744D01*
X90741779Y-113561909D01*
X90750500Y-113518069D01*
X90750500Y-110597983D01*
X119857500Y-110597983D01*
X119857500Y-111398001D01*
X119857501Y-111398019D01*
X119868000Y-111500796D01*
X119868001Y-111500799D01*
X119904918Y-111612206D01*
X119923186Y-111667334D01*
X120015288Y-111816656D01*
X120139344Y-111940712D01*
X120288666Y-112032814D01*
X120455203Y-112087999D01*
X120557991Y-112098500D01*
X121758008Y-112098499D01*
X121860797Y-112087999D01*
X122027334Y-112032814D01*
X122176656Y-111940712D01*
X122300712Y-111816656D01*
X122392814Y-111667334D01*
X122447999Y-111500797D01*
X122458500Y-111398009D01*
X122458499Y-110597992D01*
X122447999Y-110495203D01*
X122392814Y-110328666D01*
X122300712Y-110179344D01*
X122176656Y-110055288D01*
X122027334Y-109963186D01*
X121860797Y-109908001D01*
X121860795Y-109908000D01*
X121758010Y-109897500D01*
X120557998Y-109897500D01*
X120557981Y-109897501D01*
X120455203Y-109908000D01*
X120455200Y-109908001D01*
X120288668Y-109963185D01*
X120288663Y-109963187D01*
X120139342Y-110055289D01*
X120015289Y-110179342D01*
X119923187Y-110328663D01*
X119923186Y-110328666D01*
X119868001Y-110495203D01*
X119868001Y-110495204D01*
X119868000Y-110495204D01*
X119857500Y-110597983D01*
X90750500Y-110597983D01*
X90750500Y-107057510D01*
X96399500Y-107057510D01*
X96399500Y-107318489D01*
X96436640Y-107576811D01*
X96436643Y-107576821D01*
X96510170Y-107827231D01*
X96618578Y-108064611D01*
X96618591Y-108064634D01*
X96759677Y-108284168D01*
X96759681Y-108284174D01*
X96930588Y-108481411D01*
X97127825Y-108652318D01*
X97127831Y-108652322D01*
X97347365Y-108793408D01*
X97347388Y-108793421D01*
X97584768Y-108901829D01*
X97584772Y-108901830D01*
X97584774Y-108901831D01*
X97835184Y-108975358D01*
X97835185Y-108975358D01*
X97835188Y-108975359D01*
X97905155Y-108985418D01*
X98093509Y-109012500D01*
X98093510Y-109012500D01*
X112906490Y-109012500D01*
X112906491Y-109012500D01*
X113118520Y-108982014D01*
X113164811Y-108975359D01*
X113164812Y-108975358D01*
X113164816Y-108975358D01*
X113415226Y-108901831D01*
X113415229Y-108901829D01*
X113415231Y-108901829D01*
X113652611Y-108793421D01*
X113652615Y-108793418D01*
X113652623Y-108793415D01*
X113872175Y-108652318D01*
X114069411Y-108481411D01*
X114240318Y-108284175D01*
X114381415Y-108064623D01*
X114381418Y-108064615D01*
X114381421Y-108064611D01*
X114384448Y-108057983D01*
X119857500Y-108057983D01*
X119857500Y-108858001D01*
X119857501Y-108858019D01*
X119868000Y-108960796D01*
X119868001Y-108960799D01*
X119914521Y-109101184D01*
X119923186Y-109127334D01*
X120015288Y-109276656D01*
X120139344Y-109400712D01*
X120288666Y-109492814D01*
X120455203Y-109547999D01*
X120557991Y-109558500D01*
X121758008Y-109558499D01*
X121860797Y-109547999D01*
X122027334Y-109492814D01*
X122176656Y-109400712D01*
X122300712Y-109276656D01*
X122392814Y-109127334D01*
X122447999Y-108960797D01*
X122458500Y-108858009D01*
X122458499Y-108057992D01*
X122447999Y-107955203D01*
X122392814Y-107788666D01*
X122300712Y-107639344D01*
X122176656Y-107515288D01*
X122027334Y-107423186D01*
X121860797Y-107368001D01*
X121860795Y-107368000D01*
X121758010Y-107357500D01*
X120557998Y-107357500D01*
X120557981Y-107357501D01*
X120455203Y-107368000D01*
X120455200Y-107368001D01*
X120288668Y-107423185D01*
X120288663Y-107423187D01*
X120139342Y-107515289D01*
X120015289Y-107639342D01*
X119923187Y-107788663D01*
X119923186Y-107788666D01*
X119868001Y-107955203D01*
X119868001Y-107955204D01*
X119868000Y-107955204D01*
X119857500Y-108057983D01*
X114384448Y-108057983D01*
X114489829Y-107827231D01*
X114489829Y-107827229D01*
X114489831Y-107827226D01*
X114563358Y-107576816D01*
X114600500Y-107318491D01*
X114600500Y-107057509D01*
X114563358Y-106799184D01*
X114489831Y-106548774D01*
X114489830Y-106548772D01*
X114489829Y-106548768D01*
X114381421Y-106311388D01*
X114381408Y-106311365D01*
X114240322Y-106091831D01*
X114240318Y-106091825D01*
X114069411Y-105894588D01*
X113872174Y-105723681D01*
X113872168Y-105723677D01*
X113652634Y-105582591D01*
X113652611Y-105582578D01*
X113415231Y-105474170D01*
X113164821Y-105400643D01*
X113164811Y-105400640D01*
X112953843Y-105370308D01*
X112906491Y-105363500D01*
X112815562Y-105363500D01*
X98271595Y-105363500D01*
X98224000Y-105363500D01*
X98093509Y-105363500D01*
X98069832Y-105366904D01*
X97835188Y-105400640D01*
X97835178Y-105400643D01*
X97584768Y-105474170D01*
X97347388Y-105582578D01*
X97347365Y-105582591D01*
X97127831Y-105723677D01*
X97127825Y-105723681D01*
X96930588Y-105894588D01*
X96759681Y-106091825D01*
X96759677Y-106091831D01*
X96618591Y-106311365D01*
X96618578Y-106311388D01*
X96510170Y-106548768D01*
X96436643Y-106799178D01*
X96436640Y-106799188D01*
X96399500Y-107057510D01*
X90750500Y-107057510D01*
X90750500Y-105527914D01*
X90770185Y-105460875D01*
X90786819Y-105440233D01*
X91140233Y-105086819D01*
X91201556Y-105053334D01*
X91227914Y-105050500D01*
X103944071Y-105050500D01*
X104028615Y-105033682D01*
X104069744Y-105025501D01*
X104188127Y-104976465D01*
X104294669Y-104905277D01*
X106221962Y-102977983D01*
X119857500Y-102977983D01*
X119857500Y-103778001D01*
X119857501Y-103778019D01*
X119868000Y-103880796D01*
X119868001Y-103880799D01*
X119923185Y-104047331D01*
X119923186Y-104047334D01*
X120015288Y-104196656D01*
X120139344Y-104320712D01*
X120288666Y-104412814D01*
X120455203Y-104467999D01*
X120557991Y-104478500D01*
X121758008Y-104478499D01*
X121860797Y-104467999D01*
X122027334Y-104412814D01*
X122176656Y-104320712D01*
X122300712Y-104196656D01*
X122392814Y-104047334D01*
X122447999Y-103880797D01*
X122458500Y-103778009D01*
X122458499Y-102977992D01*
X122454241Y-102936313D01*
X122447999Y-102875203D01*
X122447998Y-102875200D01*
X122419925Y-102790481D01*
X122392814Y-102708666D01*
X122300712Y-102559344D01*
X122176656Y-102435288D01*
X122027334Y-102343186D01*
X121860797Y-102288001D01*
X121860795Y-102288000D01*
X121758010Y-102277500D01*
X120557998Y-102277500D01*
X120557981Y-102277501D01*
X120455203Y-102288000D01*
X120455200Y-102288001D01*
X120288668Y-102343185D01*
X120288663Y-102343187D01*
X120139342Y-102435289D01*
X120015289Y-102559342D01*
X119923187Y-102708663D01*
X119923186Y-102708666D01*
X119868001Y-102875203D01*
X119868001Y-102875204D01*
X119868000Y-102875204D01*
X119857500Y-102977983D01*
X106221962Y-102977983D01*
X109900003Y-99299941D01*
X109946727Y-99270583D01*
X110055690Y-99232456D01*
X110055693Y-99232453D01*
X110055697Y-99232452D01*
X110198884Y-99142481D01*
X110198885Y-99142480D01*
X110198890Y-99142477D01*
X110318477Y-99022890D01*
X110383566Y-98919302D01*
X110408452Y-98879697D01*
X110408454Y-98879694D01*
X110408454Y-98879692D01*
X110408456Y-98879690D01*
X110464313Y-98720059D01*
X110464313Y-98720058D01*
X110464314Y-98720056D01*
X110483249Y-98552002D01*
X110483249Y-98551997D01*
X110464314Y-98383943D01*
X110442251Y-98320890D01*
X110408456Y-98224310D01*
X110408454Y-98224307D01*
X110408454Y-98224306D01*
X110344467Y-98122473D01*
X110325466Y-98055236D01*
X110345833Y-97988401D01*
X110399101Y-97943187D01*
X110449460Y-97932500D01*
X123441953Y-97932500D01*
X123508992Y-97952185D01*
X123529634Y-97968819D01*
X127962410Y-102401595D01*
X127991770Y-102448321D01*
X128019542Y-102527689D01*
X128019543Y-102527691D01*
X128109518Y-102670884D01*
X128109523Y-102670890D01*
X128229109Y-102790476D01*
X128229115Y-102790481D01*
X128372302Y-102880452D01*
X128372305Y-102880454D01*
X128372309Y-102880455D01*
X128372310Y-102880456D01*
X128444913Y-102905860D01*
X128531943Y-102936314D01*
X128699997Y-102955249D01*
X128700000Y-102955249D01*
X128700003Y-102955249D01*
X128868056Y-102936314D01*
X128868059Y-102936313D01*
X129027690Y-102880456D01*
X129027692Y-102880454D01*
X129027694Y-102880454D01*
X129027697Y-102880452D01*
X129170884Y-102790481D01*
X129170885Y-102790480D01*
X129170890Y-102790477D01*
X129290477Y-102670890D01*
X129307457Y-102643867D01*
X129380452Y-102527697D01*
X129380454Y-102527694D01*
X129380455Y-102527691D01*
X129380456Y-102527690D01*
X129436313Y-102368059D01*
X129436313Y-102368058D01*
X129436314Y-102368056D01*
X129455249Y-102200002D01*
X129455249Y-102199997D01*
X129436314Y-102031943D01*
X129417694Y-101978730D01*
X129380456Y-101872310D01*
X129380454Y-101872307D01*
X129380454Y-101872306D01*
X129345057Y-101815973D01*
X129326056Y-101748736D01*
X129345057Y-101684027D01*
X129380454Y-101627693D01*
X129380453Y-101627693D01*
X129380456Y-101627690D01*
X129436313Y-101468059D01*
X129436313Y-101468058D01*
X129436314Y-101468056D01*
X129455249Y-101300002D01*
X129455249Y-101299997D01*
X129436314Y-101131943D01*
X129380454Y-100972305D01*
X129380452Y-100972302D01*
X129290481Y-100829115D01*
X129290476Y-100829109D01*
X129170890Y-100709523D01*
X129170884Y-100709518D01*
X129027699Y-100619548D01*
X129027688Y-100619543D01*
X128918728Y-100581416D01*
X128872002Y-100552056D01*
X124314671Y-95994724D01*
X124314670Y-95994723D01*
X124314666Y-95994720D01*
X124208124Y-95923532D01*
X124192359Y-95917002D01*
X124089741Y-95874496D01*
X124089735Y-95874494D01*
X123964068Y-95849497D01*
X123964066Y-95849497D01*
X123190985Y-95849497D01*
X123123946Y-95829812D01*
X123078191Y-95777008D01*
X123068247Y-95707850D01*
X123097272Y-95644294D01*
X123103304Y-95637816D01*
X126154300Y-92586819D01*
X126215623Y-92553334D01*
X126241981Y-92550500D01*
X128288912Y-92550500D01*
X128354883Y-92569506D01*
X128372310Y-92580456D01*
X128409654Y-92593523D01*
X128531943Y-92636314D01*
X128589382Y-92642785D01*
X128653796Y-92669850D01*
X128693352Y-92727445D01*
X128699500Y-92766005D01*
X128699500Y-99442071D01*
X128717168Y-99530890D01*
X128717168Y-99530891D01*
X128724497Y-99567737D01*
X128724498Y-99567742D01*
X128743135Y-99612734D01*
X128773535Y-99686127D01*
X128817734Y-99752276D01*
X128844726Y-99792673D01*
X128844727Y-99792674D01*
X129554056Y-100502002D01*
X129583416Y-100548728D01*
X129621543Y-100657688D01*
X129621548Y-100657699D01*
X129711518Y-100800884D01*
X129711523Y-100800890D01*
X129831109Y-100920476D01*
X129831115Y-100920481D01*
X129974302Y-101010452D01*
X129974305Y-101010454D01*
X129974309Y-101010455D01*
X129974310Y-101010456D01*
X130046913Y-101035860D01*
X130133943Y-101066314D01*
X130301997Y-101085249D01*
X130302000Y-101085249D01*
X130302003Y-101085249D01*
X130470056Y-101066314D01*
X130470059Y-101066313D01*
X130629690Y-101010456D01*
X130629692Y-101010454D01*
X130629694Y-101010454D01*
X130629697Y-101010452D01*
X130772884Y-100920481D01*
X130772885Y-100920480D01*
X130772890Y-100920477D01*
X130892477Y-100800890D01*
X130949890Y-100709518D01*
X130982452Y-100657697D01*
X130982454Y-100657694D01*
X130982454Y-100657692D01*
X130982456Y-100657690D01*
X131038313Y-100498059D01*
X131038313Y-100498058D01*
X131038314Y-100498056D01*
X131057249Y-100330002D01*
X131057249Y-100329997D01*
X131038314Y-100161943D01*
X130982454Y-100002305D01*
X130982452Y-100002302D01*
X130892481Y-99859115D01*
X130892476Y-99859109D01*
X130772888Y-99739521D01*
X130660264Y-99668754D01*
X130613973Y-99616419D01*
X130603326Y-99547366D01*
X130621244Y-99497788D01*
X130680454Y-99403556D01*
X130680453Y-99403556D01*
X130680456Y-99403553D01*
X130736313Y-99243922D01*
X130736313Y-99243921D01*
X130736314Y-99243919D01*
X130755249Y-99075865D01*
X130755249Y-99075860D01*
X130736314Y-98907806D01*
X130690233Y-98776115D01*
X130680456Y-98748173D01*
X130680455Y-98748172D01*
X130680454Y-98748168D01*
X130680452Y-98748165D01*
X130590481Y-98604978D01*
X130590476Y-98604972D01*
X130536819Y-98551315D01*
X130503334Y-98489992D01*
X130500500Y-98463634D01*
X130500500Y-90775132D01*
X130520185Y-90708093D01*
X130572989Y-90662338D01*
X130638384Y-90651912D01*
X130641940Y-90652312D01*
X130641941Y-90652313D01*
X130722380Y-90661376D01*
X130809998Y-90671249D01*
X130810000Y-90671249D01*
X130810003Y-90671249D01*
X130978056Y-90652314D01*
X131003262Y-90643494D01*
X131137690Y-90596456D01*
X131137692Y-90596454D01*
X131137694Y-90596454D01*
X131137697Y-90596452D01*
X131280884Y-90506481D01*
X131280885Y-90506480D01*
X131280890Y-90506477D01*
X131400477Y-90386890D01*
X131428983Y-90341523D01*
X131490452Y-90243697D01*
X131490454Y-90243694D01*
X131490454Y-90243692D01*
X131490456Y-90243690D01*
X131546313Y-90084059D01*
X131546313Y-90084058D01*
X131546314Y-90084056D01*
X131565249Y-89916002D01*
X131565249Y-89915997D01*
X131546314Y-89747943D01*
X131490454Y-89588305D01*
X131490452Y-89588302D01*
X131400481Y-89445115D01*
X131400476Y-89445109D01*
X131280890Y-89325523D01*
X131280884Y-89325518D01*
X131137699Y-89235548D01*
X131137691Y-89235544D01*
X131083544Y-89216597D01*
X131026768Y-89175875D01*
X131001022Y-89110922D01*
X131000500Y-89099556D01*
X131000500Y-87671193D01*
X131020185Y-87604154D01*
X131072989Y-87558399D01*
X131083529Y-87554157D01*
X131161989Y-87526704D01*
X131161992Y-87526701D01*
X131161996Y-87526700D01*
X131305183Y-87436729D01*
X131305184Y-87436728D01*
X131305189Y-87436725D01*
X131424776Y-87317138D01*
X131514751Y-87173945D01*
X131514753Y-87173942D01*
X131514753Y-87173940D01*
X131514755Y-87173938D01*
X131570612Y-87014307D01*
X131570612Y-87014306D01*
X131570613Y-87014304D01*
X131589548Y-86846250D01*
X131589548Y-86846245D01*
X131570613Y-86678191D01*
X131514753Y-86518553D01*
X131514751Y-86518550D01*
X131424780Y-86375363D01*
X131424775Y-86375357D01*
X131305189Y-86255771D01*
X131305183Y-86255766D01*
X131161996Y-86165795D01*
X131161993Y-86165793D01*
X131002355Y-86109933D01*
X130827379Y-86090219D01*
X130827686Y-86087493D01*
X130772586Y-86071314D01*
X130751944Y-86054680D01*
X121381478Y-76684214D01*
X121347993Y-76622891D01*
X121345159Y-76596533D01*
X121345159Y-76172057D01*
X121320161Y-76046390D01*
X121320160Y-76046389D01*
X121320160Y-76046385D01*
X121271124Y-75928002D01*
X121271123Y-75928000D01*
X121252785Y-75900554D01*
X121252785Y-75900553D01*
X121199938Y-75821463D01*
X121199932Y-75821455D01*
X118803173Y-73424697D01*
X118769688Y-73363374D01*
X118774672Y-73293682D01*
X118816544Y-73237749D01*
X118849898Y-73219974D01*
X118945690Y-73186456D01*
X118945693Y-73186453D01*
X118945697Y-73186452D01*
X119088884Y-73096481D01*
X119088885Y-73096480D01*
X119088890Y-73096477D01*
X119208477Y-72976890D01*
X119230222Y-72942283D01*
X119298452Y-72833697D01*
X119298454Y-72833694D01*
X119298454Y-72833692D01*
X119298456Y-72833690D01*
X119354313Y-72674059D01*
X119354313Y-72674058D01*
X119354314Y-72674056D01*
X119373249Y-72506002D01*
X119373249Y-72505997D01*
X119354314Y-72337943D01*
X119331345Y-72272302D01*
X119298456Y-72178310D01*
X119287504Y-72160881D01*
X119268500Y-72094911D01*
X119268500Y-71445239D01*
X119288185Y-71378200D01*
X119340989Y-71332445D01*
X119351542Y-71328198D01*
X119453690Y-71292456D01*
X119453692Y-71292455D01*
X119453697Y-71292452D01*
X119596884Y-71202481D01*
X119596885Y-71202480D01*
X119596890Y-71202477D01*
X119716477Y-71082890D01*
X119722681Y-71073016D01*
X119775009Y-71026724D01*
X119844062Y-71016071D01*
X119907912Y-71044442D01*
X119915357Y-71051303D01*
X122442056Y-73578002D01*
X122471416Y-73624728D01*
X122509543Y-73733688D01*
X122509548Y-73733699D01*
X122599518Y-73876884D01*
X122599523Y-73876890D01*
X122719109Y-73996476D01*
X122719115Y-73996481D01*
X122862302Y-74086452D01*
X122862305Y-74086454D01*
X122862309Y-74086455D01*
X122862310Y-74086456D01*
X122916818Y-74105529D01*
X123021943Y-74142314D01*
X123189997Y-74161249D01*
X123190000Y-74161249D01*
X123190003Y-74161249D01*
X123358056Y-74142314D01*
X123358059Y-74142313D01*
X123517690Y-74086456D01*
X123517692Y-74086454D01*
X123517694Y-74086454D01*
X123517697Y-74086452D01*
X123660884Y-73996481D01*
X123660885Y-73996480D01*
X123660890Y-73996477D01*
X123780477Y-73876890D01*
X123828334Y-73800727D01*
X123870452Y-73733697D01*
X123870454Y-73733694D01*
X123870454Y-73733692D01*
X123870456Y-73733690D01*
X123926313Y-73574059D01*
X123926313Y-73574058D01*
X123926314Y-73574056D01*
X123945249Y-73406002D01*
X123945249Y-73405997D01*
X123926314Y-73237943D01*
X123878488Y-73101264D01*
X123870456Y-73078310D01*
X123870455Y-73078309D01*
X123870454Y-73078305D01*
X123870452Y-73078302D01*
X123780481Y-72935115D01*
X123780476Y-72935109D01*
X123660890Y-72815523D01*
X123660884Y-72815518D01*
X123517699Y-72725548D01*
X123517688Y-72725543D01*
X123408728Y-72687416D01*
X123362002Y-72658056D01*
X120160674Y-69456727D01*
X120160673Y-69456726D01*
X120054134Y-69385540D01*
X120054127Y-69385535D01*
X119935744Y-69336499D01*
X119935738Y-69336497D01*
X119810071Y-69311500D01*
X119810069Y-69311500D01*
X115139931Y-69311500D01*
X115139929Y-69311500D01*
X115014261Y-69336497D01*
X115014251Y-69336500D01*
X114965220Y-69356810D01*
X114895881Y-69385530D01*
X114895863Y-69385540D01*
X114789336Y-69456719D01*
X114789333Y-69456721D01*
X114635996Y-69610057D01*
X114589271Y-69639416D01*
X114480308Y-69677544D01*
X114480300Y-69677548D01*
X114337115Y-69767518D01*
X114337109Y-69767523D01*
X114217523Y-69887109D01*
X114217518Y-69887115D01*
X114127547Y-70030302D01*
X114127545Y-70030305D01*
X114071685Y-70189943D01*
X114052751Y-70357997D01*
X114052751Y-70358002D01*
X114071685Y-70526056D01*
X114127545Y-70685694D01*
X114127547Y-70685697D01*
X114217518Y-70828884D01*
X114217523Y-70828890D01*
X114337109Y-70948476D01*
X114337115Y-70948481D01*
X114480302Y-71038452D01*
X114480308Y-71038455D01*
X114480310Y-71038456D01*
X114576551Y-71072132D01*
X114639944Y-71094314D01*
X114646730Y-71095863D01*
X114646166Y-71098330D01*
X114699797Y-71120859D01*
X114739358Y-71178450D01*
X114745510Y-71217021D01*
X114745510Y-71708655D01*
X114745510Y-71708657D01*
X114745509Y-71708657D01*
X114770507Y-71834324D01*
X114770509Y-71834330D01*
X114818366Y-71949868D01*
X114819545Y-71952713D01*
X114857504Y-72009523D01*
X114890736Y-72059259D01*
X114890737Y-72059260D01*
X118011261Y-75179783D01*
X118044746Y-75241106D01*
X118039762Y-75310798D01*
X118028574Y-75333436D01*
X117937545Y-75478307D01*
X117881685Y-75637943D01*
X117862751Y-75805997D01*
X117862751Y-75806002D01*
X117881686Y-75974056D01*
X117896102Y-76015256D01*
X117899663Y-76085035D01*
X117866742Y-76143891D01*
X117773518Y-76237115D01*
X117683547Y-76380302D01*
X117683545Y-76380305D01*
X117627685Y-76539943D01*
X117608751Y-76707997D01*
X117608751Y-76708002D01*
X117627685Y-76876056D01*
X117683545Y-77035694D01*
X117683547Y-77035697D01*
X117773518Y-77178884D01*
X117773523Y-77178890D01*
X117893109Y-77298476D01*
X117893115Y-77298481D01*
X118036302Y-77388452D01*
X118036307Y-77388455D01*
X118036310Y-77388456D01*
X118145271Y-77426582D01*
X118191997Y-77455943D01*
X128663181Y-87927126D01*
X128696666Y-87988449D01*
X128699500Y-88014807D01*
X128699500Y-90133994D01*
X128679815Y-90201033D01*
X128627011Y-90246788D01*
X128589384Y-90257214D01*
X128531946Y-90263685D01*
X128372311Y-90319543D01*
X128354883Y-90330494D01*
X128288912Y-90349500D01*
X125837861Y-90349500D01*
X125712193Y-90374497D01*
X125712187Y-90374499D01*
X125593806Y-90423534D01*
X125487258Y-90494726D01*
X125487257Y-90494727D01*
X121739805Y-94242181D01*
X121678482Y-94275666D01*
X121652124Y-94278500D01*
X116236809Y-94278500D01*
X116169770Y-94258815D01*
X116124015Y-94206011D01*
X116114071Y-94136853D01*
X116143096Y-94073297D01*
X116149128Y-94066819D01*
X118096427Y-92119518D01*
X118536003Y-91679941D01*
X118582727Y-91650583D01*
X118691690Y-91612456D01*
X118691693Y-91612453D01*
X118691697Y-91612452D01*
X118834884Y-91522481D01*
X118834885Y-91522480D01*
X118834890Y-91522477D01*
X118954477Y-91402890D01*
X119044452Y-91259697D01*
X119044454Y-91259694D01*
X119044454Y-91259692D01*
X119044456Y-91259690D01*
X119100313Y-91100059D01*
X119100313Y-91100058D01*
X119100314Y-91100056D01*
X119119249Y-90932002D01*
X119119249Y-90931997D01*
X119100314Y-90763943D01*
X119061253Y-90652313D01*
X119044456Y-90604310D01*
X119044455Y-90604308D01*
X119044454Y-90604305D01*
X119044452Y-90604302D01*
X118954481Y-90461115D01*
X118954476Y-90461109D01*
X118834890Y-90341523D01*
X118834884Y-90341518D01*
X118691697Y-90251547D01*
X118691694Y-90251545D01*
X118532056Y-90195685D01*
X118364003Y-90176751D01*
X118363997Y-90176751D01*
X118195943Y-90195685D01*
X118036305Y-90251545D01*
X118036302Y-90251547D01*
X117893115Y-90341518D01*
X117893109Y-90341523D01*
X117773523Y-90461109D01*
X117773518Y-90461115D01*
X117683548Y-90604300D01*
X117683544Y-90604308D01*
X117645416Y-90713271D01*
X117616056Y-90759996D01*
X115336873Y-93039181D01*
X115275550Y-93072666D01*
X115249192Y-93075500D01*
X114633988Y-93075500D01*
X114566949Y-93055815D01*
X114521194Y-93003011D01*
X114511250Y-92933853D01*
X114516946Y-92910546D01*
X114522337Y-92895137D01*
X114528313Y-92878059D01*
X114540939Y-92766005D01*
X114547249Y-92710002D01*
X114547249Y-92709997D01*
X114528314Y-92541943D01*
X114472454Y-92382305D01*
X114472452Y-92382302D01*
X114382481Y-92239115D01*
X114382476Y-92239109D01*
X114262890Y-92119523D01*
X114262884Y-92119518D01*
X114119697Y-92029547D01*
X114119694Y-92029545D01*
X113960056Y-91973685D01*
X113792003Y-91954751D01*
X113791997Y-91954751D01*
X113623942Y-91973686D01*
X113464311Y-92029543D01*
X113446883Y-92040494D01*
X113380912Y-92059500D01*
X113350808Y-92059500D01*
X113283769Y-92039815D01*
X113263127Y-92023181D01*
X111999943Y-90759997D01*
X111970582Y-90713270D01*
X111952760Y-90662338D01*
X111936302Y-90615303D01*
X111932455Y-90604307D01*
X111932452Y-90604302D01*
X111842481Y-90461115D01*
X111842476Y-90461109D01*
X111722890Y-90341523D01*
X111722884Y-90341518D01*
X111579697Y-90251547D01*
X111579694Y-90251545D01*
X111420056Y-90195685D01*
X111252003Y-90176751D01*
X111251997Y-90176751D01*
X111083943Y-90195685D01*
X110924305Y-90251545D01*
X110924302Y-90251547D01*
X110781115Y-90341518D01*
X110781109Y-90341523D01*
X110661523Y-90461109D01*
X110661518Y-90461115D01*
X110571547Y-90604302D01*
X110571545Y-90604305D01*
X110515685Y-90763943D01*
X110496751Y-90931997D01*
X110496751Y-90932002D01*
X110515685Y-91100056D01*
X110571545Y-91259694D01*
X110571547Y-91259697D01*
X110661518Y-91402884D01*
X110661523Y-91402890D01*
X110781109Y-91522476D01*
X110781115Y-91522481D01*
X110924302Y-91612452D01*
X110924307Y-91612455D01*
X110924310Y-91612456D01*
X111033271Y-91650582D01*
X111079997Y-91679943D01*
X112615325Y-93215272D01*
X112615326Y-93215273D01*
X112615329Y-93215275D01*
X112615331Y-93215277D01*
X112721873Y-93286465D01*
X112840256Y-93335501D01*
X112840260Y-93335501D01*
X112840261Y-93335502D01*
X112965928Y-93360500D01*
X112965931Y-93360500D01*
X113070540Y-93360500D01*
X113137579Y-93380185D01*
X113183334Y-93432989D01*
X113193278Y-93502147D01*
X113175533Y-93550473D01*
X113111545Y-93652306D01*
X113055685Y-93811943D01*
X113036751Y-93979997D01*
X113036751Y-93980002D01*
X113054848Y-94140616D01*
X113042794Y-94209438D01*
X112995445Y-94260818D01*
X112931628Y-94278500D01*
X109467260Y-94278500D01*
X109346785Y-94302465D01*
X109346780Y-94302466D01*
X109341589Y-94303498D01*
X109341588Y-94303498D01*
X109223201Y-94352535D01*
X109116666Y-94423720D01*
X109116657Y-94423727D01*
X109051815Y-94488567D01*
X109005092Y-94517925D01*
X108896130Y-94556053D01*
X108896122Y-94556057D01*
X108752937Y-94646027D01*
X108752931Y-94646032D01*
X108633345Y-94765618D01*
X108633340Y-94765624D01*
X108543369Y-94908811D01*
X108543367Y-94908814D01*
X108487507Y-95068452D01*
X108468573Y-95236506D01*
X108468573Y-95236513D01*
X108479764Y-95335842D01*
X108467709Y-95404664D01*
X108444238Y-95437393D01*
X108442530Y-95439101D01*
X108442518Y-95439116D01*
X108352547Y-95582302D01*
X108352545Y-95582305D01*
X108296685Y-95741943D01*
X108277751Y-95909997D01*
X108277751Y-95910002D01*
X108296685Y-96078056D01*
X108352545Y-96237694D01*
X108352547Y-96237697D01*
X108442518Y-96380884D01*
X108442523Y-96380890D01*
X108562109Y-96500476D01*
X108562115Y-96500481D01*
X108705302Y-96590452D01*
X108705308Y-96590455D01*
X108705310Y-96590456D01*
X108852516Y-96641965D01*
X108909292Y-96682687D01*
X108927974Y-96721978D01*
X108929388Y-96721484D01*
X108931686Y-96728053D01*
X108931687Y-96728056D01*
X108957500Y-96801827D01*
X108984869Y-96880044D01*
X108988430Y-96949823D01*
X108984869Y-96961952D01*
X108931686Y-97113942D01*
X108927354Y-97152386D01*
X108900286Y-97216800D01*
X108870107Y-97243494D01*
X108749112Y-97319521D01*
X108749109Y-97319523D01*
X108629523Y-97439109D01*
X108629518Y-97439115D01*
X108539547Y-97582302D01*
X108539545Y-97582305D01*
X108483685Y-97741943D01*
X108464751Y-97909997D01*
X108464751Y-97910001D01*
X108467865Y-97937639D01*
X108455811Y-98006461D01*
X108432326Y-98039204D01*
X107386639Y-99084891D01*
X107325316Y-99118376D01*
X107255624Y-99113392D01*
X107199691Y-99071520D01*
X107175738Y-99011093D01*
X107162314Y-98891944D01*
X107121782Y-98776109D01*
X107106456Y-98732310D01*
X107106455Y-98732308D01*
X107106454Y-98732305D01*
X107106452Y-98732302D01*
X107016481Y-98589115D01*
X107016476Y-98589109D01*
X106896890Y-98469523D01*
X106896884Y-98469518D01*
X106753697Y-98379547D01*
X106753694Y-98379545D01*
X106594056Y-98323685D01*
X106426003Y-98304751D01*
X106425997Y-98304751D01*
X106257943Y-98323685D01*
X106098305Y-98379545D01*
X106098302Y-98379547D01*
X105955115Y-98469518D01*
X105955109Y-98469523D01*
X105835523Y-98589109D01*
X105835518Y-98589115D01*
X105745548Y-98732300D01*
X105745544Y-98732308D01*
X105707416Y-98841271D01*
X105678056Y-98887996D01*
X103154178Y-101411874D01*
X103135397Y-101427289D01*
X103129333Y-101431341D01*
X103129323Y-101431349D01*
X102466873Y-102093801D01*
X102405550Y-102127286D01*
X102379192Y-102130120D01*
X89261309Y-102130120D01*
X89135641Y-102155117D01*
X89135635Y-102155119D01*
X89017254Y-102204154D01*
X88910706Y-102275346D01*
X88910705Y-102275347D01*
X88648723Y-102537330D01*
X88634016Y-102559342D01*
X88615456Y-102587120D01*
X88577538Y-102643867D01*
X88577533Y-102643875D01*
X88528499Y-102762255D01*
X88528497Y-102762261D01*
X88503500Y-102887928D01*
X88503500Y-104066911D01*
X88484495Y-104132882D01*
X88473544Y-104150310D01*
X88417685Y-104309943D01*
X88398751Y-104477997D01*
X82596500Y-104477997D01*
X82596500Y-62277997D01*
X88398751Y-62277997D01*
X88398751Y-62278002D01*
X88417685Y-62446056D01*
X88443948Y-62521109D01*
X88465708Y-62583297D01*
X88473545Y-62605692D01*
X88531564Y-62698028D01*
X88550564Y-62765264D01*
X88531564Y-62829972D01*
X88473545Y-62922307D01*
X88417685Y-63081943D01*
X88398751Y-63249997D01*
X88398751Y-63250002D01*
X88417685Y-63418056D01*
X88473545Y-63577694D01*
X88473547Y-63577697D01*
X88563518Y-63720884D01*
X88563523Y-63720890D01*
X88683109Y-63840476D01*
X88683115Y-63840481D01*
X88826302Y-63930452D01*
X88826307Y-63930455D01*
X88826310Y-63930456D01*
X88941424Y-63970736D01*
X88988150Y-64000096D01*
X91769181Y-66781127D01*
X91802666Y-66842450D01*
X91805500Y-66868808D01*
X91805500Y-75666373D01*
X91785815Y-75733412D01*
X91733011Y-75779167D01*
X91663853Y-75789111D01*
X91600297Y-75760086D01*
X91593819Y-75754054D01*
X90440819Y-74601054D01*
X90407334Y-74539731D01*
X90404500Y-74513373D01*
X90404500Y-73135928D01*
X90379502Y-73010261D01*
X90379501Y-73010260D01*
X90379501Y-73010256D01*
X90330465Y-72891873D01*
X90330464Y-72891872D01*
X90330461Y-72891866D01*
X90259277Y-72785332D01*
X90234855Y-72760910D01*
X90168669Y-72694724D01*
X89901943Y-72427997D01*
X89872582Y-72381270D01*
X89863958Y-72356624D01*
X89834456Y-72272310D01*
X89834455Y-72272307D01*
X89834452Y-72272302D01*
X89744481Y-72129115D01*
X89744476Y-72129109D01*
X89624890Y-72009523D01*
X89624884Y-72009518D01*
X89481697Y-71919547D01*
X89481694Y-71919545D01*
X89322056Y-71863685D01*
X89154003Y-71844751D01*
X89153997Y-71844751D01*
X88985943Y-71863685D01*
X88826305Y-71919545D01*
X88826302Y-71919547D01*
X88683115Y-72009518D01*
X88683109Y-72009523D01*
X88563523Y-72129109D01*
X88563518Y-72129115D01*
X88473547Y-72272302D01*
X88473545Y-72272305D01*
X88417685Y-72431943D01*
X88398751Y-72599997D01*
X88398751Y-72600002D01*
X88417685Y-72768056D01*
X88473545Y-72927692D01*
X88507612Y-72981909D01*
X88538625Y-73031266D01*
X88540361Y-73034028D01*
X88559361Y-73101264D01*
X88540361Y-73165972D01*
X88473545Y-73272307D01*
X88417685Y-73431943D01*
X88398751Y-73599997D01*
X88398751Y-73600002D01*
X88417686Y-73768057D01*
X88473542Y-73927687D01*
X88473544Y-73927690D01*
X88484493Y-73945115D01*
X88503500Y-74011087D01*
X88503500Y-75005357D01*
X88503500Y-75005359D01*
X88503499Y-75005359D01*
X88528497Y-75131026D01*
X88528499Y-75131032D01*
X88577533Y-75249412D01*
X88577538Y-75249421D01*
X88637699Y-75339457D01*
X88637700Y-75339458D01*
X88648725Y-75355959D01*
X88648726Y-75355960D01*
X90753181Y-77460414D01*
X90786666Y-77521737D01*
X90789500Y-77548095D01*
X90789500Y-83350192D01*
X90769815Y-83417231D01*
X90717011Y-83462986D01*
X90647853Y-83472930D01*
X90584297Y-83443905D01*
X90577819Y-83437873D01*
X89901943Y-82761997D01*
X89872582Y-82715270D01*
X89834455Y-82606307D01*
X89834452Y-82606302D01*
X89744481Y-82463115D01*
X89744476Y-82463109D01*
X89624890Y-82343523D01*
X89624884Y-82343518D01*
X89481697Y-82253547D01*
X89481694Y-82253545D01*
X89322056Y-82197685D01*
X89154003Y-82178751D01*
X89153997Y-82178751D01*
X88985943Y-82197685D01*
X88826305Y-82253545D01*
X88826302Y-82253547D01*
X88683115Y-82343518D01*
X88683109Y-82343523D01*
X88563523Y-82463109D01*
X88563518Y-82463115D01*
X88473547Y-82606302D01*
X88473545Y-82606305D01*
X88417685Y-82765943D01*
X88398751Y-82933997D01*
X88398751Y-82934002D01*
X88417685Y-83102056D01*
X88473545Y-83261692D01*
X88540361Y-83368028D01*
X88559361Y-83435264D01*
X88540361Y-83499972D01*
X88473545Y-83606307D01*
X88417685Y-83765943D01*
X88398751Y-83933997D01*
X88398751Y-83934002D01*
X88417685Y-84102056D01*
X88473545Y-84261694D01*
X88473547Y-84261697D01*
X88563518Y-84404884D01*
X88563523Y-84404890D01*
X88683109Y-84524476D01*
X88683115Y-84524481D01*
X88826302Y-84614452D01*
X88826307Y-84614455D01*
X88826310Y-84614456D01*
X88935271Y-84652582D01*
X88981997Y-84681943D01*
X89229181Y-84929127D01*
X89262666Y-84990450D01*
X89265500Y-85016808D01*
X89265500Y-90234069D01*
X89265500Y-90234071D01*
X89265499Y-90234071D01*
X89286873Y-90341518D01*
X89288666Y-90350530D01*
X89290499Y-90359744D01*
X89339535Y-90478127D01*
X89410723Y-90584669D01*
X89410726Y-90584673D01*
X89410727Y-90584674D01*
X96560874Y-97734819D01*
X96594359Y-97796142D01*
X96589375Y-97865834D01*
X96547503Y-97921767D01*
X96482039Y-97946184D01*
X96473193Y-97946500D01*
X94887808Y-97946500D01*
X94820769Y-97926815D01*
X94800127Y-97910181D01*
X89901943Y-93011997D01*
X89872582Y-92965270D01*
X89842065Y-92878057D01*
X89834456Y-92856310D01*
X89834455Y-92856307D01*
X89834452Y-92856302D01*
X89744481Y-92713115D01*
X89744476Y-92713109D01*
X89624890Y-92593523D01*
X89624884Y-92593518D01*
X89481697Y-92503547D01*
X89481694Y-92503545D01*
X89322056Y-92447685D01*
X89154003Y-92428751D01*
X89153997Y-92428751D01*
X88985943Y-92447685D01*
X88826305Y-92503545D01*
X88826302Y-92503547D01*
X88683115Y-92593518D01*
X88683109Y-92593523D01*
X88563523Y-92713109D01*
X88563518Y-92713115D01*
X88473547Y-92856302D01*
X88473545Y-92856305D01*
X88417685Y-93015943D01*
X88398751Y-93183997D01*
X88398751Y-93184002D01*
X88417685Y-93352056D01*
X88454440Y-93457093D01*
X88472641Y-93509110D01*
X88473545Y-93511692D01*
X88540361Y-93618028D01*
X88559361Y-93685264D01*
X88540361Y-93749972D01*
X88473545Y-93856307D01*
X88417685Y-94015943D01*
X88398751Y-94183997D01*
X88398751Y-94184002D01*
X88417685Y-94352056D01*
X88473545Y-94511694D01*
X88473547Y-94511697D01*
X88563518Y-94654884D01*
X88563523Y-94654890D01*
X88683109Y-94774476D01*
X88683115Y-94774481D01*
X88826302Y-94864452D01*
X88826307Y-94864455D01*
X88826310Y-94864456D01*
X88935271Y-94902582D01*
X88981997Y-94931943D01*
X93802324Y-99752271D01*
X93802327Y-99752274D01*
X93853227Y-99786284D01*
X93908866Y-99823461D01*
X93908872Y-99823464D01*
X93908873Y-99823465D01*
X94027256Y-99872501D01*
X94027260Y-99872501D01*
X94027261Y-99872502D01*
X94152928Y-99897500D01*
X94152931Y-99897500D01*
X100366912Y-99897500D01*
X100432883Y-99916506D01*
X100450310Y-99927456D01*
X100609941Y-99983313D01*
X100651955Y-99988047D01*
X100777997Y-100002249D01*
X100778000Y-100002249D01*
X100778003Y-100002249D01*
X100946056Y-99983314D01*
X100946059Y-99983313D01*
X101105690Y-99927456D01*
X101105692Y-99927454D01*
X101105694Y-99927454D01*
X101105697Y-99927452D01*
X101248884Y-99837481D01*
X101248885Y-99837480D01*
X101248890Y-99837477D01*
X101368477Y-99717890D01*
X101388435Y-99686127D01*
X101458452Y-99574697D01*
X101458454Y-99574694D01*
X101458454Y-99574692D01*
X101458456Y-99574690D01*
X101514313Y-99415059D01*
X101514313Y-99415058D01*
X101514314Y-99415056D01*
X101533249Y-99247002D01*
X101533249Y-99246997D01*
X101514314Y-99078943D01*
X101458454Y-98919305D01*
X101458452Y-98919302D01*
X101368481Y-98776115D01*
X101368476Y-98776109D01*
X101248890Y-98656523D01*
X101244069Y-98653494D01*
X101197778Y-98601159D01*
X101187130Y-98532105D01*
X101215505Y-98468257D01*
X101244069Y-98443506D01*
X101248890Y-98440477D01*
X101368477Y-98320890D01*
X101458452Y-98177697D01*
X101458454Y-98177694D01*
X101458454Y-98177692D01*
X101458456Y-98177690D01*
X101514313Y-98018059D01*
X101514313Y-98018058D01*
X101514314Y-98018056D01*
X101533249Y-97850002D01*
X101533249Y-97849997D01*
X101514314Y-97681943D01*
X101458454Y-97522305D01*
X101458452Y-97522302D01*
X101368481Y-97379115D01*
X101368476Y-97379109D01*
X101277048Y-97287681D01*
X101243563Y-97226358D01*
X101248547Y-97156666D01*
X101277048Y-97112319D01*
X101368477Y-97020890D01*
X101368481Y-97020884D01*
X101458452Y-96877697D01*
X101458454Y-96877694D01*
X101458454Y-96877692D01*
X101458456Y-96877690D01*
X101514313Y-96718059D01*
X101514313Y-96718058D01*
X101514314Y-96718056D01*
X101533249Y-96550002D01*
X101533249Y-96549997D01*
X101514314Y-96381943D01*
X101463839Y-96237694D01*
X101458456Y-96222310D01*
X101458455Y-96222309D01*
X101458454Y-96222305D01*
X101458452Y-96222302D01*
X101368481Y-96079115D01*
X101368476Y-96079109D01*
X101267692Y-95978325D01*
X101234207Y-95917002D01*
X101239191Y-95847310D01*
X101267688Y-95802967D01*
X101368477Y-95702179D01*
X101443796Y-95582310D01*
X101458452Y-95558986D01*
X101458454Y-95558983D01*
X101458454Y-95558981D01*
X101458456Y-95558979D01*
X101514313Y-95399348D01*
X101514313Y-95399347D01*
X101514314Y-95399345D01*
X101533249Y-95231291D01*
X101533249Y-95231286D01*
X101514314Y-95063232D01*
X101461371Y-94911930D01*
X101458456Y-94903599D01*
X101458455Y-94903598D01*
X101458454Y-94903594D01*
X101458452Y-94903591D01*
X101368481Y-94760404D01*
X101368476Y-94760398D01*
X101248890Y-94640812D01*
X101248884Y-94640807D01*
X101105699Y-94550837D01*
X101105693Y-94550834D01*
X101104573Y-94550442D01*
X101095816Y-94547378D01*
X101039043Y-94506656D01*
X101013555Y-94444223D01*
X101006313Y-94379941D01*
X100950456Y-94220310D01*
X100950455Y-94220308D01*
X100950452Y-94220302D01*
X100860481Y-94077115D01*
X100860476Y-94077109D01*
X100740890Y-93957523D01*
X100740884Y-93957518D01*
X100597697Y-93867547D01*
X100597694Y-93867545D01*
X100438056Y-93811685D01*
X100270003Y-93792751D01*
X100269997Y-93792751D01*
X100101942Y-93811686D01*
X99942311Y-93867543D01*
X99924883Y-93878494D01*
X99858912Y-93897500D01*
X98150338Y-93897500D01*
X98083299Y-93877815D01*
X98062657Y-93861181D01*
X95133473Y-90931997D01*
X100530751Y-90931997D01*
X100530751Y-90932002D01*
X100549685Y-91100056D01*
X100605545Y-91259694D01*
X100605547Y-91259697D01*
X100695518Y-91402884D01*
X100695523Y-91402890D01*
X100815109Y-91522476D01*
X100815115Y-91522481D01*
X100958302Y-91612452D01*
X100958307Y-91612455D01*
X100958310Y-91612456D01*
X101067271Y-91650582D01*
X101113997Y-91679943D01*
X102377181Y-92943127D01*
X102410666Y-93004450D01*
X102413500Y-93030808D01*
X102413500Y-93555120D01*
X102406542Y-93596074D01*
X102378182Y-93677122D01*
X102359247Y-93845177D01*
X102359247Y-93845182D01*
X102378181Y-94013236D01*
X102434041Y-94172874D01*
X102434043Y-94172877D01*
X102524014Y-94316064D01*
X102524019Y-94316070D01*
X102643605Y-94435656D01*
X102643611Y-94435661D01*
X102786798Y-94525632D01*
X102786801Y-94525634D01*
X102786805Y-94525635D01*
X102786806Y-94525636D01*
X102848944Y-94547379D01*
X102946439Y-94581494D01*
X103114493Y-94600429D01*
X103114496Y-94600429D01*
X103114499Y-94600429D01*
X103282552Y-94581494D01*
X103282555Y-94581493D01*
X103442186Y-94525636D01*
X103442188Y-94525634D01*
X103442190Y-94525634D01*
X103442193Y-94525632D01*
X103585380Y-94435661D01*
X103585381Y-94435660D01*
X103585386Y-94435657D01*
X103704973Y-94316070D01*
X103711032Y-94306428D01*
X103794948Y-94172877D01*
X103794950Y-94172874D01*
X103794950Y-94172872D01*
X103794952Y-94172870D01*
X103850809Y-94013239D01*
X103850809Y-94013238D01*
X103850810Y-94013236D01*
X103869745Y-93845182D01*
X103869745Y-93845177D01*
X103850810Y-93677123D01*
X103837400Y-93638801D01*
X103794952Y-93517490D01*
X103757002Y-93457093D01*
X103733506Y-93419699D01*
X103714500Y-93353727D01*
X103714500Y-92645928D01*
X103689502Y-92520261D01*
X103689501Y-92520260D01*
X103689501Y-92520256D01*
X103640465Y-92401873D01*
X103569277Y-92295331D01*
X103569275Y-92295329D01*
X103569273Y-92295326D01*
X103569272Y-92295325D01*
X102033943Y-90759997D01*
X102004582Y-90713270D01*
X101986760Y-90662338D01*
X101970302Y-90615303D01*
X101966455Y-90604307D01*
X101966452Y-90604302D01*
X101876481Y-90461115D01*
X101876476Y-90461109D01*
X101756890Y-90341523D01*
X101756884Y-90341518D01*
X101613697Y-90251547D01*
X101613694Y-90251545D01*
X101454056Y-90195685D01*
X101286003Y-90176751D01*
X101285997Y-90176751D01*
X101117943Y-90195685D01*
X100958305Y-90251545D01*
X100958302Y-90251547D01*
X100815115Y-90341518D01*
X100815109Y-90341523D01*
X100695523Y-90461109D01*
X100695518Y-90461115D01*
X100605547Y-90604302D01*
X100605545Y-90604305D01*
X100549685Y-90763943D01*
X100530751Y-90931997D01*
X95133473Y-90931997D01*
X93650819Y-89449343D01*
X93617334Y-89388020D01*
X93614500Y-89361662D01*
X93614500Y-77469997D01*
X97288751Y-77469997D01*
X97288751Y-77470002D01*
X97307685Y-77638056D01*
X97363545Y-77797694D01*
X97363547Y-77797697D01*
X97453518Y-77940884D01*
X97453523Y-77940890D01*
X97573109Y-78060476D01*
X97573115Y-78060481D01*
X97716302Y-78150452D01*
X97716305Y-78150454D01*
X97716309Y-78150455D01*
X97716310Y-78150456D01*
X97776431Y-78171493D01*
X97875943Y-78206314D01*
X98043997Y-78225249D01*
X98044000Y-78225249D01*
X98044003Y-78225249D01*
X98177510Y-78210206D01*
X98246332Y-78222260D01*
X98297712Y-78269609D01*
X98314614Y-78319542D01*
X98323685Y-78400056D01*
X98379545Y-78559694D01*
X98379547Y-78559697D01*
X98469518Y-78702884D01*
X98469523Y-78702890D01*
X98589109Y-78822476D01*
X98589115Y-78822481D01*
X98732302Y-78912452D01*
X98732305Y-78912454D01*
X98732309Y-78912455D01*
X98732310Y-78912456D01*
X98804913Y-78937860D01*
X98891943Y-78968314D01*
X99059997Y-78987249D01*
X99060000Y-78987249D01*
X99060003Y-78987249D01*
X99160835Y-78975887D01*
X99228059Y-78968313D01*
X99387690Y-78912456D01*
X99405117Y-78901506D01*
X99471088Y-78882500D01*
X104204071Y-78882500D01*
X104288615Y-78865682D01*
X104329744Y-78857501D01*
X104448127Y-78808465D01*
X104554669Y-78737277D01*
X107050676Y-76241268D01*
X107111997Y-76207785D01*
X107124456Y-76205732D01*
X107161322Y-76201579D01*
X107320953Y-76145722D01*
X107320955Y-76145720D01*
X107320957Y-76145720D01*
X107320960Y-76145718D01*
X107464147Y-76055747D01*
X107464148Y-76055746D01*
X107464153Y-76055743D01*
X107583740Y-75936156D01*
X107606110Y-75900555D01*
X107673715Y-75792963D01*
X107673717Y-75792960D01*
X107673717Y-75792958D01*
X107673719Y-75792956D01*
X107729576Y-75633325D01*
X107729576Y-75633324D01*
X107729577Y-75633322D01*
X107748512Y-75465268D01*
X107748512Y-75465263D01*
X107729576Y-75297208D01*
X107709945Y-75241106D01*
X107673719Y-75137576D01*
X107655312Y-75108283D01*
X107636312Y-75041047D01*
X107643265Y-75001356D01*
X107670313Y-74924059D01*
X107670313Y-74924057D01*
X107670314Y-74924055D01*
X107689249Y-74756002D01*
X107689249Y-74755997D01*
X107670314Y-74587943D01*
X107614454Y-74428305D01*
X107614452Y-74428302D01*
X107524481Y-74285115D01*
X107524476Y-74285109D01*
X107404890Y-74165523D01*
X107404884Y-74165518D01*
X107261697Y-74075547D01*
X107261694Y-74075545D01*
X107102056Y-74019685D01*
X106934003Y-74000751D01*
X106933997Y-74000751D01*
X106765943Y-74019685D01*
X106606305Y-74075545D01*
X106606302Y-74075547D01*
X106463115Y-74165518D01*
X106463109Y-74165523D01*
X106343523Y-74285109D01*
X106249840Y-74434205D01*
X106249011Y-74433684D01*
X106231029Y-74459023D01*
X103906873Y-76783181D01*
X103845550Y-76816666D01*
X103819192Y-76819500D01*
X101270196Y-76819500D01*
X101203157Y-76799815D01*
X101157402Y-76747011D01*
X101147458Y-76677853D01*
X101154014Y-76652167D01*
X101187091Y-76563482D01*
X101193500Y-76503873D01*
X101193499Y-75408128D01*
X101187091Y-75348517D01*
X101183712Y-75339458D01*
X101136797Y-75213671D01*
X101136793Y-75213664D01*
X101050547Y-75098455D01*
X101050544Y-75098452D01*
X100935335Y-75012206D01*
X100935328Y-75012202D01*
X100800482Y-74961908D01*
X100800483Y-74961908D01*
X100740883Y-74955501D01*
X100740881Y-74955500D01*
X100740873Y-74955500D01*
X100740865Y-74955500D01*
X100038611Y-74955500D01*
X99971572Y-74935815D01*
X99925817Y-74883011D01*
X99915208Y-74819346D01*
X99917575Y-74795310D01*
X99928341Y-74686000D01*
X99909024Y-74489868D01*
X99851814Y-74301273D01*
X99758910Y-74127462D01*
X99758907Y-74127458D01*
X99755523Y-74122393D01*
X99757164Y-74121296D01*
X99733405Y-74065361D01*
X99745194Y-73996493D01*
X99755888Y-73979851D01*
X99755523Y-73979607D01*
X99758904Y-73974544D01*
X99758910Y-73974538D01*
X99851814Y-73800727D01*
X99909024Y-73612132D01*
X99928341Y-73416000D01*
X99914236Y-73272791D01*
X99927255Y-73204147D01*
X99975320Y-73153437D01*
X100043170Y-73136762D01*
X100049771Y-73137234D01*
X100193000Y-73151341D01*
X100389132Y-73132024D01*
X100577727Y-73074814D01*
X100585069Y-73070890D01*
X100751532Y-72981913D01*
X100751538Y-72981910D01*
X100903883Y-72856883D01*
X101028910Y-72704538D01*
X101121814Y-72530727D01*
X101179024Y-72342132D01*
X101198341Y-72146000D01*
X101179024Y-71949868D01*
X101121814Y-71761273D01*
X101121811Y-71761269D01*
X101121811Y-71761266D01*
X101028913Y-71587467D01*
X101028909Y-71587460D01*
X100903883Y-71435116D01*
X100751539Y-71310090D01*
X100751532Y-71310086D01*
X100577733Y-71217188D01*
X100577727Y-71217186D01*
X100419028Y-71169045D01*
X100389129Y-71159975D01*
X100193000Y-71140659D01*
X100049793Y-71154763D01*
X99981147Y-71141744D01*
X99930436Y-71093679D01*
X99913762Y-71025828D01*
X99914234Y-71019230D01*
X99928341Y-70876000D01*
X99909024Y-70679868D01*
X99851814Y-70491273D01*
X99851811Y-70491269D01*
X99851811Y-70491266D01*
X99758913Y-70317467D01*
X99758909Y-70317460D01*
X99633883Y-70165116D01*
X99481539Y-70040090D01*
X99481532Y-70040086D01*
X99307733Y-69947188D01*
X99307727Y-69947186D01*
X99119132Y-69889976D01*
X99119129Y-69889975D01*
X98923000Y-69870659D01*
X98726870Y-69889975D01*
X98538266Y-69947188D01*
X98364467Y-70040086D01*
X98364460Y-70040090D01*
X98212116Y-70165116D01*
X98087090Y-70317460D01*
X98087086Y-70317467D01*
X97994188Y-70491266D01*
X97936975Y-70679870D01*
X97917659Y-70876000D01*
X97936975Y-71072129D01*
X97936976Y-71072132D01*
X97986330Y-71234831D01*
X97994188Y-71260733D01*
X98087086Y-71434532D01*
X98090473Y-71439601D01*
X98088836Y-71440694D01*
X98112596Y-71496663D01*
X98100795Y-71565529D01*
X98090109Y-71582156D01*
X98090473Y-71582399D01*
X98087086Y-71587467D01*
X97994188Y-71761266D01*
X97936975Y-71949870D01*
X97917659Y-72146000D01*
X97936975Y-72342129D01*
X97994188Y-72530733D01*
X98087086Y-72704532D01*
X98090473Y-72709601D01*
X98088836Y-72710694D01*
X98112596Y-72766663D01*
X98100795Y-72835529D01*
X98090109Y-72852156D01*
X98090473Y-72852399D01*
X98087086Y-72857467D01*
X97994188Y-73031266D01*
X97936975Y-73219870D01*
X97917659Y-73416000D01*
X97936975Y-73612129D01*
X97936976Y-73612132D01*
X97973850Y-73733690D01*
X97994188Y-73800733D01*
X98087086Y-73974532D01*
X98090473Y-73979601D01*
X98088836Y-73980694D01*
X98112596Y-74036663D01*
X98100795Y-74105529D01*
X98090109Y-74122156D01*
X98090473Y-74122399D01*
X98087086Y-74127467D01*
X97994188Y-74301266D01*
X97936975Y-74489870D01*
X97917659Y-74686000D01*
X97936975Y-74882129D01*
X97994188Y-75070733D01*
X98087086Y-75244532D01*
X98090473Y-75249601D01*
X98088836Y-75250694D01*
X98112596Y-75306663D01*
X98100795Y-75375529D01*
X98090109Y-75392156D01*
X98090473Y-75392399D01*
X98087086Y-75397467D01*
X97994188Y-75571266D01*
X97936975Y-75759870D01*
X97917659Y-75956000D01*
X97936975Y-76152129D01*
X97936976Y-76152132D01*
X97980894Y-76296911D01*
X97994188Y-76340733D01*
X98087086Y-76514532D01*
X98087090Y-76514538D01*
X98089125Y-76517018D01*
X98089784Y-76518570D01*
X98090473Y-76519601D01*
X98090277Y-76519731D01*
X98116437Y-76581328D01*
X98104646Y-76650195D01*
X98057493Y-76701755D01*
X98007155Y-76718902D01*
X97875943Y-76733685D01*
X97716305Y-76789545D01*
X97716302Y-76789547D01*
X97573115Y-76879518D01*
X97573109Y-76879523D01*
X97453523Y-76999109D01*
X97453518Y-76999115D01*
X97363547Y-77142302D01*
X97363545Y-77142305D01*
X97307685Y-77301943D01*
X97288751Y-77469997D01*
X93614500Y-77469997D01*
X93614500Y-65975928D01*
X93589502Y-65850261D01*
X93589501Y-65850260D01*
X93589501Y-65850256D01*
X93540465Y-65731873D01*
X93497441Y-65667483D01*
X93469276Y-65625330D01*
X89876106Y-62032160D01*
X89846745Y-61985431D01*
X89834457Y-61950312D01*
X89834452Y-61950302D01*
X89744481Y-61807115D01*
X89744476Y-61807109D01*
X89624890Y-61687523D01*
X89624884Y-61687518D01*
X89481697Y-61597547D01*
X89481694Y-61597545D01*
X89322056Y-61541685D01*
X89154003Y-61522751D01*
X89153997Y-61522751D01*
X88985943Y-61541685D01*
X88826305Y-61597545D01*
X88826302Y-61597547D01*
X88683115Y-61687518D01*
X88683109Y-61687523D01*
X88563523Y-61807109D01*
X88563518Y-61807115D01*
X88473547Y-61950302D01*
X88473545Y-61950305D01*
X88417685Y-62109943D01*
X88398751Y-62277997D01*
X82596500Y-62277997D01*
X82596500Y-61213996D01*
X97238435Y-61213996D01*
X97238435Y-61214003D01*
X97258630Y-61393249D01*
X97258631Y-61393254D01*
X97318211Y-61563524D01*
X97374493Y-61653094D01*
X97393500Y-61719067D01*
X97393500Y-63056069D01*
X97393500Y-63056071D01*
X97393499Y-63056071D01*
X97418497Y-63181738D01*
X97418499Y-63181744D01*
X97467535Y-63300127D01*
X97480609Y-63319694D01*
X97538726Y-63406673D01*
X106993328Y-72861275D01*
X107080536Y-72919545D01*
X107080535Y-72919545D01*
X107099864Y-72932459D01*
X107099873Y-72932465D01*
X107100786Y-72932843D01*
X107101603Y-72933389D01*
X107105244Y-72935335D01*
X107105052Y-72935693D01*
X107141017Y-72959724D01*
X108025181Y-73843888D01*
X108058666Y-73905211D01*
X108061500Y-73931569D01*
X108061500Y-76296911D01*
X108042495Y-76362882D01*
X108031544Y-76380310D01*
X107975685Y-76539943D01*
X107956751Y-76707997D01*
X107956751Y-76708002D01*
X107975685Y-76876056D01*
X108031545Y-77035694D01*
X108031547Y-77035697D01*
X108121518Y-77178884D01*
X108121523Y-77178890D01*
X108188969Y-77246336D01*
X108222454Y-77307659D01*
X108224508Y-77347901D01*
X108210751Y-77469997D01*
X108210751Y-77470002D01*
X108229685Y-77638056D01*
X108285545Y-77797694D01*
X108285547Y-77797697D01*
X108375518Y-77940884D01*
X108375523Y-77940890D01*
X108495109Y-78060476D01*
X108495115Y-78060481D01*
X108638302Y-78150452D01*
X108638305Y-78150454D01*
X108638309Y-78150455D01*
X108638310Y-78150456D01*
X108698431Y-78171493D01*
X108797943Y-78206314D01*
X108965997Y-78225249D01*
X108966000Y-78225249D01*
X108966003Y-78225249D01*
X109134056Y-78206314D01*
X109134059Y-78206313D01*
X109293690Y-78150456D01*
X109293692Y-78150454D01*
X109293694Y-78150454D01*
X109293697Y-78150452D01*
X109436884Y-78060481D01*
X109436885Y-78060480D01*
X109436890Y-78060477D01*
X109556477Y-77940890D01*
X109646454Y-77797694D01*
X109646455Y-77797692D01*
X109684582Y-77688730D01*
X109713943Y-77642002D01*
X109717889Y-77638056D01*
X109817277Y-77538669D01*
X109888465Y-77432127D01*
X109937501Y-77313744D01*
X109950721Y-77247283D01*
X109962500Y-77188069D01*
X109962500Y-73004259D01*
X109982185Y-72937220D01*
X110034989Y-72891465D01*
X110072617Y-72881039D01*
X110112930Y-72876496D01*
X110150059Y-72872313D01*
X110309690Y-72816456D01*
X110327117Y-72805506D01*
X110393088Y-72786500D01*
X110808071Y-72786500D01*
X110892615Y-72769682D01*
X110933744Y-72761501D01*
X111052127Y-72712465D01*
X111077152Y-72695744D01*
X111158669Y-72641277D01*
X111415931Y-72384013D01*
X111477252Y-72350530D01*
X111546944Y-72355514D01*
X111595270Y-72390035D01*
X111595799Y-72389507D01*
X111598972Y-72392680D01*
X111599466Y-72393033D01*
X111600111Y-72393819D01*
X112597181Y-73390888D01*
X112630666Y-73452211D01*
X112633500Y-73478569D01*
X112633500Y-82483192D01*
X112613815Y-82550231D01*
X112597181Y-82570873D01*
X105238346Y-89929707D01*
X105238345Y-89929708D01*
X105185625Y-90008612D01*
X105185624Y-90008612D01*
X105167157Y-90036249D01*
X105167155Y-90036253D01*
X105118120Y-90154634D01*
X105118118Y-90154640D01*
X105093121Y-90280307D01*
X105093121Y-93409640D01*
X105083682Y-93457093D01*
X105038499Y-93566172D01*
X105038498Y-93566176D01*
X105034590Y-93585822D01*
X105030015Y-93602581D01*
X105007308Y-93667476D01*
X105007306Y-93667483D01*
X104988372Y-93835535D01*
X104988372Y-93835540D01*
X105007306Y-94003594D01*
X105063166Y-94163232D01*
X105063168Y-94163235D01*
X105153139Y-94306422D01*
X105153144Y-94306428D01*
X105272730Y-94426014D01*
X105272736Y-94426019D01*
X105415923Y-94515990D01*
X105415926Y-94515992D01*
X105415930Y-94515993D01*
X105415931Y-94515994D01*
X105488534Y-94541398D01*
X105575564Y-94571852D01*
X105743618Y-94590787D01*
X105743621Y-94590787D01*
X105743624Y-94590787D01*
X105911677Y-94571852D01*
X105911680Y-94571851D01*
X106071311Y-94515994D01*
X106071313Y-94515992D01*
X106071315Y-94515992D01*
X106071318Y-94515990D01*
X106214505Y-94426019D01*
X106214506Y-94426018D01*
X106214511Y-94426015D01*
X106334098Y-94306428D01*
X106335939Y-94303499D01*
X106353427Y-94275666D01*
X106391169Y-94215598D01*
X106443503Y-94169307D01*
X106482280Y-94158350D01*
X106497216Y-94156667D01*
X106589114Y-94146314D01*
X106616152Y-94136853D01*
X106748748Y-94090456D01*
X106748751Y-94090453D01*
X106748755Y-94090452D01*
X106891942Y-94000481D01*
X106891943Y-94000480D01*
X106891948Y-94000477D01*
X107011535Y-93880890D01*
X107019919Y-93867547D01*
X107101510Y-93737697D01*
X107101512Y-93737694D01*
X107101512Y-93737692D01*
X107101514Y-93737690D01*
X107157371Y-93578059D01*
X107157371Y-93578058D01*
X107157372Y-93578056D01*
X107176307Y-93410002D01*
X107176307Y-93409997D01*
X107157372Y-93241943D01*
X107137097Y-93184000D01*
X107101514Y-93082310D01*
X107090562Y-93064881D01*
X107071558Y-92998911D01*
X107071558Y-90694856D01*
X107091243Y-90627817D01*
X107107877Y-90607175D01*
X114289271Y-83425781D01*
X114289276Y-83425776D01*
X114360465Y-83319233D01*
X114409501Y-83200850D01*
X114413897Y-83178751D01*
X114434500Y-83075177D01*
X114434500Y-72886583D01*
X114409502Y-72760916D01*
X114409501Y-72760915D01*
X114409501Y-72760911D01*
X114360465Y-72642528D01*
X114346898Y-72622224D01*
X114346896Y-72622221D01*
X114346896Y-72622220D01*
X114289274Y-72535982D01*
X114289271Y-72535979D01*
X113477038Y-71723747D01*
X113443553Y-71662424D01*
X113441499Y-71622182D01*
X113460633Y-71452363D01*
X113460633Y-71452358D01*
X113441698Y-71284304D01*
X113397608Y-71158302D01*
X113385840Y-71124671D01*
X113385839Y-71124670D01*
X113385838Y-71124666D01*
X113385836Y-71124663D01*
X113295865Y-70981476D01*
X113295860Y-70981470D01*
X113176274Y-70861884D01*
X113176268Y-70861879D01*
X113033081Y-70771908D01*
X113033076Y-70771905D01*
X112945596Y-70741295D01*
X112873443Y-70716048D01*
X112873440Y-70716047D01*
X112866871Y-70713749D01*
X112867703Y-70711368D01*
X112816903Y-70682946D01*
X112788439Y-70637122D01*
X112785840Y-70629694D01*
X112695861Y-70486494D01*
X112695860Y-70486493D01*
X112693336Y-70482476D01*
X112674335Y-70415239D01*
X112694702Y-70348404D01*
X112710643Y-70328827D01*
X114608068Y-68431403D01*
X114669389Y-68397920D01*
X114739081Y-68402904D01*
X114761715Y-68414090D01*
X114789271Y-68431405D01*
X114850768Y-68470047D01*
X114850769Y-68470047D01*
X114850772Y-68470049D01*
X114957192Y-68507287D01*
X115010405Y-68525907D01*
X115178459Y-68544842D01*
X115178462Y-68544842D01*
X115178465Y-68544842D01*
X115346518Y-68525907D01*
X115346521Y-68525906D01*
X115506152Y-68470049D01*
X115506154Y-68470047D01*
X115506156Y-68470047D01*
X115506159Y-68470045D01*
X115649346Y-68380074D01*
X115649347Y-68380073D01*
X115649352Y-68380070D01*
X115768939Y-68260483D01*
X115768943Y-68260477D01*
X115858914Y-68117290D01*
X115858917Y-68117284D01*
X115858918Y-68117283D01*
X115914775Y-67957652D01*
X115920759Y-67904530D01*
X115929416Y-67870971D01*
X115941501Y-67841799D01*
X115946500Y-67816669D01*
X115966500Y-67716126D01*
X115966500Y-64582806D01*
X115986185Y-64515767D01*
X116002815Y-64495129D01*
X116758002Y-63739941D01*
X116804725Y-63710583D01*
X116913690Y-63672456D01*
X116913693Y-63672453D01*
X116913697Y-63672452D01*
X117056884Y-63582481D01*
X117056885Y-63582480D01*
X117056890Y-63582477D01*
X117176477Y-63462890D01*
X117176481Y-63462884D01*
X117266452Y-63319697D01*
X117266454Y-63319694D01*
X117266454Y-63319692D01*
X117266456Y-63319690D01*
X117322313Y-63160059D01*
X117322313Y-63160058D01*
X117322314Y-63160056D01*
X117341249Y-62992002D01*
X117341249Y-62991997D01*
X117322314Y-62823943D01*
X117266454Y-62664305D01*
X117266452Y-62664302D01*
X117176481Y-62521115D01*
X117176476Y-62521109D01*
X117056890Y-62401523D01*
X117056884Y-62401518D01*
X116913697Y-62311547D01*
X116913694Y-62311545D01*
X116754056Y-62255685D01*
X116586003Y-62236751D01*
X116585997Y-62236751D01*
X116417943Y-62255685D01*
X116258305Y-62311545D01*
X116258302Y-62311547D01*
X116115115Y-62401518D01*
X116115109Y-62401523D01*
X115995523Y-62521109D01*
X115995518Y-62521115D01*
X115905548Y-62664300D01*
X115905543Y-62664311D01*
X115867416Y-62773271D01*
X115838056Y-62819997D01*
X114810727Y-63847325D01*
X114810726Y-63847326D01*
X114739534Y-63953874D01*
X114690499Y-64072255D01*
X114690497Y-64072261D01*
X114665500Y-64197928D01*
X114665500Y-64919994D01*
X114645815Y-64987033D01*
X114593011Y-65032788D01*
X114555384Y-65043214D01*
X114497946Y-65049685D01*
X114338307Y-65105544D01*
X114338302Y-65105547D01*
X114195115Y-65195518D01*
X114195109Y-65195523D01*
X114075523Y-65315109D01*
X114075518Y-65315115D01*
X113985547Y-65458302D01*
X113985545Y-65458305D01*
X113929685Y-65617943D01*
X113910751Y-65785997D01*
X113910751Y-65786002D01*
X113929686Y-65954057D01*
X113985542Y-66113687D01*
X113985544Y-66113690D01*
X113996493Y-66131115D01*
X114015500Y-66197087D01*
X114015500Y-67132717D01*
X113995815Y-67199756D01*
X113979181Y-67220398D01*
X111000111Y-70199467D01*
X111000110Y-70199468D01*
X110943423Y-70284309D01*
X110943422Y-70284309D01*
X110928920Y-70306012D01*
X110928918Y-70306016D01*
X110879883Y-70424397D01*
X110879881Y-70424403D01*
X110854884Y-70550070D01*
X110854884Y-70886188D01*
X110835199Y-70953227D01*
X110782395Y-70998982D01*
X110713237Y-71008926D01*
X110649681Y-70979901D01*
X110613843Y-70927144D01*
X110606843Y-70907142D01*
X110606839Y-70907133D01*
X110516868Y-70763946D01*
X110516863Y-70763940D01*
X110397277Y-70644354D01*
X110397271Y-70644349D01*
X110254084Y-70554378D01*
X110254081Y-70554376D01*
X110094443Y-70498516D01*
X109926390Y-70479582D01*
X109926384Y-70479582D01*
X109758330Y-70498516D01*
X109598692Y-70554376D01*
X109598689Y-70554378D01*
X109455502Y-70644349D01*
X109455496Y-70644354D01*
X109335910Y-70763940D01*
X109335905Y-70763946D01*
X109245935Y-70907131D01*
X109245931Y-70907139D01*
X109207803Y-71016102D01*
X109178443Y-71062827D01*
X108806725Y-71434546D01*
X108806722Y-71434549D01*
X108767053Y-71493918D01*
X108767054Y-71493919D01*
X108735534Y-71541092D01*
X108686499Y-71659473D01*
X108686497Y-71659479D01*
X108661500Y-71785146D01*
X108661500Y-72340953D01*
X108641815Y-72407992D01*
X108589011Y-72453747D01*
X108519853Y-72463691D01*
X108456297Y-72434666D01*
X108449819Y-72428634D01*
X108081408Y-72060223D01*
X108047923Y-71998900D01*
X108052907Y-71929208D01*
X108064096Y-71906569D01*
X108122454Y-71813693D01*
X108122453Y-71813693D01*
X108122456Y-71813690D01*
X108178313Y-71654059D01*
X108178313Y-71654058D01*
X108178314Y-71654056D01*
X108197249Y-71486002D01*
X108197249Y-71485997D01*
X108178314Y-71317943D01*
X108123039Y-71159976D01*
X108122456Y-71158310D01*
X108122455Y-71158309D01*
X108122454Y-71158305D01*
X108122452Y-71158302D01*
X108032481Y-71015115D01*
X108032476Y-71015109D01*
X107912890Y-70895523D01*
X107912884Y-70895518D01*
X107769699Y-70805548D01*
X107769688Y-70805543D01*
X107660728Y-70767416D01*
X107614002Y-70738056D01*
X104277943Y-67401997D01*
X110424061Y-67401997D01*
X110424061Y-67402002D01*
X110442995Y-67570056D01*
X110498855Y-67729694D01*
X110498857Y-67729697D01*
X110588828Y-67872884D01*
X110588833Y-67872890D01*
X110708419Y-67992476D01*
X110708425Y-67992481D01*
X110851612Y-68082452D01*
X110851615Y-68082454D01*
X110851619Y-68082455D01*
X110851620Y-68082456D01*
X110878221Y-68091764D01*
X111011253Y-68138314D01*
X111179307Y-68157249D01*
X111179310Y-68157249D01*
X111179313Y-68157249D01*
X111347362Y-68138314D01*
X111347362Y-68138313D01*
X111347369Y-68138313D01*
X111406857Y-68117496D01*
X111476631Y-68113934D01*
X111535490Y-68146857D01*
X111543109Y-68154476D01*
X111543115Y-68154481D01*
X111686302Y-68244452D01*
X111686305Y-68244454D01*
X111686309Y-68244455D01*
X111686310Y-68244456D01*
X111732096Y-68260477D01*
X111845943Y-68300314D01*
X112013997Y-68319249D01*
X112014000Y-68319249D01*
X112014003Y-68319249D01*
X112182056Y-68300314D01*
X112182059Y-68300313D01*
X112341690Y-68244456D01*
X112341692Y-68244454D01*
X112341694Y-68244454D01*
X112341697Y-68244452D01*
X112484884Y-68154481D01*
X112484885Y-68154480D01*
X112484890Y-68154477D01*
X112604477Y-68034890D01*
X112604481Y-68034884D01*
X112694452Y-67891697D01*
X112694454Y-67891694D01*
X112694454Y-67891692D01*
X112694456Y-67891690D01*
X112750313Y-67732059D01*
X112750313Y-67732058D01*
X112750314Y-67732056D01*
X112769249Y-67564002D01*
X112769249Y-67563997D01*
X112750314Y-67395943D01*
X112737417Y-67359088D01*
X112694456Y-67236310D01*
X112683504Y-67218881D01*
X112664500Y-67152911D01*
X112664500Y-60010808D01*
X112684185Y-59943769D01*
X112700819Y-59923127D01*
X112755127Y-59868819D01*
X112816450Y-59835334D01*
X112842808Y-59832500D01*
X120453124Y-59832500D01*
X120520163Y-59852185D01*
X120565918Y-59904989D01*
X120575862Y-59974147D01*
X120546837Y-60037703D01*
X120519097Y-60061493D01*
X120433111Y-60115521D01*
X120313523Y-60235109D01*
X120313518Y-60235115D01*
X120223547Y-60378302D01*
X120223545Y-60378305D01*
X120167685Y-60537943D01*
X120148751Y-60705997D01*
X120148751Y-60706002D01*
X120167685Y-60874056D01*
X120223545Y-61033694D01*
X120223547Y-61033697D01*
X120313518Y-61176884D01*
X120313523Y-61176890D01*
X120433109Y-61296476D01*
X120433115Y-61296481D01*
X120576302Y-61386452D01*
X120576305Y-61386454D01*
X120576309Y-61386455D01*
X120576310Y-61386456D01*
X120595738Y-61393254D01*
X120735943Y-61442314D01*
X120903997Y-61461249D01*
X120904000Y-61461249D01*
X120904003Y-61461249D01*
X121011451Y-61449142D01*
X121072059Y-61442313D01*
X121231690Y-61386456D01*
X121249117Y-61375506D01*
X121315088Y-61356500D01*
X130620071Y-61356500D01*
X130704615Y-61339682D01*
X130745744Y-61331501D01*
X130864127Y-61282465D01*
X130970669Y-61211277D01*
X131695127Y-60486819D01*
X131756450Y-60453334D01*
X131782808Y-60450500D01*
X132075500Y-60450500D01*
X132142539Y-60470185D01*
X132188294Y-60522989D01*
X132199500Y-60574500D01*
X132199500Y-60599556D01*
X132197118Y-60623743D01*
X132193501Y-60641928D01*
X132193501Y-60770069D01*
X132197118Y-60788255D01*
X132199500Y-60812442D01*
X132199500Y-60897869D01*
X132199501Y-60897876D01*
X132205908Y-60957483D01*
X132256202Y-61092328D01*
X132256206Y-61092335D01*
X132342452Y-61207544D01*
X132342455Y-61207547D01*
X132446033Y-61285086D01*
X132487904Y-61341019D01*
X132492888Y-61410711D01*
X132477449Y-61449142D01*
X132364222Y-61633910D01*
X132270830Y-61859380D01*
X132213853Y-62096702D01*
X132194706Y-62340000D01*
X132213853Y-62583297D01*
X132213853Y-62583300D01*
X132213854Y-62583302D01*
X132270680Y-62819997D01*
X132270830Y-62820619D01*
X132364222Y-63046089D01*
X132491737Y-63254173D01*
X132491738Y-63254176D01*
X132530984Y-63300127D01*
X132650241Y-63439759D01*
X132793897Y-63562453D01*
X132835823Y-63598261D01*
X132835826Y-63598262D01*
X133043910Y-63725777D01*
X133269381Y-63819169D01*
X133269378Y-63819169D01*
X133269384Y-63819170D01*
X133269388Y-63819172D01*
X133506698Y-63876146D01*
X133750000Y-63895294D01*
X133993302Y-63876146D01*
X134230612Y-63819172D01*
X134456089Y-63725777D01*
X134664179Y-63598259D01*
X134849759Y-63439759D01*
X135008259Y-63254179D01*
X135135777Y-63046089D01*
X135229172Y-62820612D01*
X135286146Y-62583302D01*
X135305294Y-62340000D01*
X135286146Y-62096698D01*
X135229172Y-61859388D01*
X135207518Y-61807110D01*
X135135777Y-61633910D01*
X135022550Y-61449142D01*
X135004305Y-61381697D01*
X135025421Y-61315094D01*
X135053962Y-61285088D01*
X135157546Y-61207546D01*
X135243796Y-61092331D01*
X135294091Y-60957483D01*
X135300500Y-60897873D01*
X135300499Y-58702128D01*
X135294091Y-58642517D01*
X135278233Y-58600000D01*
X135243797Y-58507671D01*
X135243793Y-58507664D01*
X135157547Y-58392455D01*
X135157544Y-58392452D01*
X135042335Y-58306206D01*
X135042328Y-58306202D01*
X134907482Y-58255908D01*
X134907483Y-58255908D01*
X134847883Y-58249501D01*
X134847881Y-58249500D01*
X134847873Y-58249500D01*
X134847864Y-58249500D01*
X132652129Y-58249500D01*
X132652123Y-58249501D01*
X132592516Y-58255908D01*
X132457671Y-58306202D01*
X132457664Y-58306206D01*
X132342455Y-58392452D01*
X132342452Y-58392455D01*
X132256206Y-58507664D01*
X132256202Y-58507671D01*
X132205908Y-58642517D01*
X132199501Y-58702116D01*
X132199501Y-58702123D01*
X132199500Y-58702135D01*
X132199500Y-59025500D01*
X132179815Y-59092539D01*
X132127011Y-59138294D01*
X132075500Y-59149500D01*
X131397929Y-59149500D01*
X131272261Y-59174497D01*
X131272255Y-59174499D01*
X131153870Y-59223535D01*
X131047331Y-59294722D01*
X131047324Y-59294728D01*
X130322873Y-60019181D01*
X130261550Y-60052666D01*
X130235192Y-60055500D01*
X123239575Y-60055500D01*
X123172536Y-60035815D01*
X123126781Y-59983011D01*
X123116837Y-59913853D01*
X123145862Y-59850297D01*
X123170684Y-59828398D01*
X123212978Y-59800137D01*
X123263275Y-59766531D01*
X123776093Y-59253711D01*
X123797795Y-59236404D01*
X123870890Y-59190477D01*
X123990477Y-59070890D01*
X124080452Y-58927697D01*
X124080454Y-58927694D01*
X124080454Y-58927692D01*
X124080456Y-58927690D01*
X124136313Y-58768059D01*
X124136313Y-58768058D01*
X124136314Y-58768056D01*
X124155249Y-58600002D01*
X124155249Y-58599997D01*
X124136314Y-58431943D01*
X124080454Y-58272305D01*
X124080452Y-58272302D01*
X123990481Y-58129115D01*
X123990476Y-58129109D01*
X123870890Y-58009523D01*
X123870884Y-58009518D01*
X123727697Y-57919547D01*
X123727694Y-57919545D01*
X123568056Y-57863685D01*
X123400003Y-57844751D01*
X123399997Y-57844751D01*
X123231943Y-57863685D01*
X123072309Y-57919544D01*
X123046697Y-57935637D01*
X122979460Y-57954635D01*
X122914761Y-57935638D01*
X122907059Y-57930799D01*
X122907058Y-57930798D01*
X122907057Y-57930798D01*
X122859711Y-57914231D01*
X122747423Y-57874939D01*
X122579370Y-57856005D01*
X122579364Y-57856005D01*
X122411309Y-57874940D01*
X122251678Y-57930797D01*
X122234250Y-57941748D01*
X122168279Y-57960754D01*
X112012675Y-57960754D01*
X111887007Y-57985751D01*
X111887001Y-57985753D01*
X111768621Y-58034787D01*
X111768612Y-58034792D01*
X111662077Y-58105977D01*
X111662073Y-58105980D01*
X110674037Y-59094015D01*
X110674031Y-59094022D01*
X110636963Y-59149499D01*
X110636964Y-59149500D01*
X110602844Y-59200564D01*
X110553809Y-59318945D01*
X110553807Y-59318951D01*
X110528810Y-59444618D01*
X110528810Y-66990911D01*
X110509805Y-67056882D01*
X110498854Y-67074310D01*
X110442995Y-67233943D01*
X110424061Y-67401997D01*
X104277943Y-67401997D01*
X102540819Y-65664873D01*
X102507334Y-65603550D01*
X102504500Y-65577192D01*
X102504500Y-60609087D01*
X102523506Y-60543115D01*
X102534456Y-60525690D01*
X102590313Y-60366059D01*
X102609249Y-60198000D01*
X102599956Y-60115521D01*
X102590314Y-60029943D01*
X102534454Y-59870305D01*
X102534452Y-59870302D01*
X102444481Y-59727115D01*
X102444476Y-59727109D01*
X102324890Y-59607523D01*
X102324884Y-59607518D01*
X102181697Y-59517547D01*
X102181694Y-59517545D01*
X102022056Y-59461685D01*
X101854003Y-59442751D01*
X101853997Y-59442751D01*
X101685943Y-59461685D01*
X101526305Y-59517545D01*
X101526302Y-59517547D01*
X101383115Y-59607518D01*
X101383109Y-59607523D01*
X101263523Y-59727109D01*
X101263518Y-59727115D01*
X101173547Y-59870302D01*
X101173545Y-59870305D01*
X101117685Y-60029943D01*
X101098751Y-60197997D01*
X101098751Y-60198002D01*
X101117686Y-60366057D01*
X101173542Y-60525687D01*
X101173544Y-60525690D01*
X101184493Y-60543115D01*
X101203500Y-60609087D01*
X101203500Y-64932192D01*
X101183815Y-64999231D01*
X101131011Y-65044986D01*
X101061853Y-65054930D01*
X100998297Y-65025905D01*
X100991819Y-65019873D01*
X98730819Y-62758873D01*
X98697334Y-62697550D01*
X98694500Y-62671192D01*
X98694500Y-61719067D01*
X98713507Y-61653094D01*
X98769788Y-61563524D01*
X98809812Y-61449142D01*
X98829368Y-61393255D01*
X98830134Y-61386456D01*
X98849565Y-61214003D01*
X98849565Y-61213996D01*
X98829369Y-61034750D01*
X98829368Y-61034745D01*
X98802333Y-60957483D01*
X98769789Y-60864478D01*
X98673816Y-60711738D01*
X98546262Y-60584184D01*
X98472667Y-60537941D01*
X98393523Y-60488211D01*
X98223254Y-60428631D01*
X98223249Y-60428630D01*
X98044004Y-60408435D01*
X98043996Y-60408435D01*
X97864750Y-60428630D01*
X97864745Y-60428631D01*
X97694476Y-60488211D01*
X97541737Y-60584184D01*
X97414184Y-60711737D01*
X97318211Y-60864476D01*
X97258631Y-61034745D01*
X97258630Y-61034750D01*
X97238435Y-61213996D01*
X82596500Y-61213996D01*
X82596500Y-55472095D01*
X82616185Y-55405056D01*
X82668989Y-55359301D01*
X82738147Y-55349357D01*
X82801703Y-55378382D01*
X82824495Y-55404560D01*
X83002122Y-55678082D01*
X83140930Y-55849495D01*
X83246219Y-55979516D01*
X83520484Y-56253781D01*
X83520488Y-56253784D01*
X83821917Y-56497877D01*
X84126974Y-56695983D01*
X84147211Y-56709125D01*
X84492806Y-56885214D01*
X84854913Y-57024214D01*
X85229567Y-57124602D01*
X85612662Y-57185278D01*
X85978576Y-57204455D01*
X85999999Y-57205578D01*
X86000000Y-57205578D01*
X86000001Y-57205578D01*
X86020301Y-57204514D01*
X86387338Y-57185278D01*
X86770433Y-57124602D01*
X87145087Y-57024214D01*
X87367074Y-56939001D01*
X93178417Y-56939001D01*
X93198699Y-57144933D01*
X93228734Y-57243945D01*
X93258768Y-57342955D01*
X93356315Y-57525451D01*
X93356317Y-57525453D01*
X93487589Y-57685411D01*
X93584209Y-57764703D01*
X93647550Y-57816686D01*
X93830046Y-57914233D01*
X94028066Y-57974301D01*
X94028065Y-57974301D01*
X94046529Y-57976119D01*
X94234000Y-57994584D01*
X94439934Y-57974301D01*
X94637954Y-57914233D01*
X94820450Y-57816686D01*
X94980410Y-57685411D01*
X95111685Y-57525451D01*
X95209232Y-57342955D01*
X95269300Y-57144935D01*
X95289583Y-56939001D01*
X101306417Y-56939001D01*
X101326699Y-57144933D01*
X101356734Y-57243945D01*
X101386768Y-57342955D01*
X101484315Y-57525451D01*
X101484317Y-57525453D01*
X101615589Y-57685411D01*
X101712209Y-57764703D01*
X101775550Y-57816686D01*
X101958046Y-57914233D01*
X102156066Y-57974301D01*
X102156065Y-57974301D01*
X102174529Y-57976119D01*
X102362000Y-57994584D01*
X102567934Y-57974301D01*
X102765954Y-57914233D01*
X102948450Y-57816686D01*
X103108410Y-57685411D01*
X103239685Y-57525451D01*
X103337232Y-57342955D01*
X103397300Y-57144935D01*
X103417583Y-56939001D01*
X109434417Y-56939001D01*
X109454699Y-57144933D01*
X109484734Y-57243945D01*
X109514768Y-57342955D01*
X109612315Y-57525451D01*
X109612317Y-57525453D01*
X109743589Y-57685411D01*
X109840209Y-57764703D01*
X109903550Y-57816686D01*
X110086046Y-57914233D01*
X110284066Y-57974301D01*
X110284065Y-57974301D01*
X110302529Y-57976119D01*
X110490000Y-57994584D01*
X110695934Y-57974301D01*
X110893954Y-57914233D01*
X111076450Y-57816686D01*
X111236410Y-57685411D01*
X111367685Y-57525451D01*
X111465232Y-57342955D01*
X111525300Y-57144935D01*
X111545583Y-56939001D01*
X111525300Y-56733067D01*
X111465232Y-56535047D01*
X111367685Y-56352551D01*
X111315702Y-56289210D01*
X111243162Y-56200817D01*
X119984500Y-56200817D01*
X119984500Y-56339182D01*
X120020312Y-56472835D01*
X120020313Y-56472838D01*
X120089492Y-56592661D01*
X120089494Y-56592664D01*
X120089495Y-56592665D01*
X120187335Y-56690505D01*
X120307164Y-56759688D01*
X120440817Y-56795500D01*
X120440819Y-56795500D01*
X120579181Y-56795500D01*
X120579183Y-56795500D01*
X120712836Y-56759688D01*
X120832665Y-56690505D01*
X120930505Y-56592665D01*
X120999688Y-56472836D01*
X121035500Y-56339183D01*
X121035500Y-56200817D01*
X125764500Y-56200817D01*
X125764500Y-56339182D01*
X125800312Y-56472835D01*
X125800313Y-56472838D01*
X125869492Y-56592661D01*
X125869494Y-56592664D01*
X125869495Y-56592665D01*
X125967335Y-56690505D01*
X126087164Y-56759688D01*
X126220817Y-56795500D01*
X126220819Y-56795500D01*
X126359181Y-56795500D01*
X126359183Y-56795500D01*
X126492836Y-56759688D01*
X126612665Y-56690505D01*
X126710505Y-56592665D01*
X126779688Y-56472836D01*
X126815500Y-56339183D01*
X126815500Y-56200817D01*
X126779688Y-56067164D01*
X126710505Y-55947335D01*
X126612665Y-55849495D01*
X126612664Y-55849494D01*
X126612661Y-55849492D01*
X126492838Y-55780313D01*
X126492837Y-55780312D01*
X126492836Y-55780312D01*
X126359183Y-55744500D01*
X126220817Y-55744500D01*
X126087164Y-55780312D01*
X126087161Y-55780313D01*
X125967338Y-55849492D01*
X125967333Y-55849496D01*
X125869496Y-55947333D01*
X125869492Y-55947338D01*
X125800313Y-56067161D01*
X125800312Y-56067164D01*
X125764500Y-56200817D01*
X121035500Y-56200817D01*
X120999688Y-56067164D01*
X120930505Y-55947335D01*
X120832665Y-55849495D01*
X120832664Y-55849494D01*
X120832661Y-55849492D01*
X120712838Y-55780313D01*
X120712837Y-55780312D01*
X120712836Y-55780312D01*
X120579183Y-55744500D01*
X120440817Y-55744500D01*
X120307164Y-55780312D01*
X120307161Y-55780313D01*
X120187338Y-55849492D01*
X120187333Y-55849496D01*
X120089496Y-55947333D01*
X120089492Y-55947338D01*
X120020313Y-56067161D01*
X120020312Y-56067164D01*
X119984500Y-56200817D01*
X111243162Y-56200817D01*
X111236410Y-56192590D01*
X111118677Y-56095970D01*
X111076450Y-56061316D01*
X110893954Y-55963769D01*
X110695934Y-55903701D01*
X110695932Y-55903700D01*
X110695934Y-55903700D01*
X110490000Y-55883418D01*
X110284067Y-55903700D01*
X110086043Y-55963770D01*
X109975898Y-56022644D01*
X109903550Y-56061316D01*
X109903548Y-56061317D01*
X109903547Y-56061318D01*
X109743589Y-56192590D01*
X109612317Y-56352548D01*
X109514769Y-56535044D01*
X109454699Y-56733068D01*
X109434417Y-56939001D01*
X103417583Y-56939001D01*
X103397300Y-56733067D01*
X103337232Y-56535047D01*
X103239685Y-56352551D01*
X103187702Y-56289210D01*
X103108410Y-56192590D01*
X102990677Y-56095970D01*
X102948450Y-56061316D01*
X102765954Y-55963769D01*
X102567934Y-55903701D01*
X102567932Y-55903700D01*
X102567934Y-55903700D01*
X102362000Y-55883418D01*
X102156067Y-55903700D01*
X101958043Y-55963770D01*
X101847898Y-56022644D01*
X101775550Y-56061316D01*
X101775548Y-56061317D01*
X101775547Y-56061318D01*
X101615589Y-56192590D01*
X101484317Y-56352548D01*
X101386769Y-56535044D01*
X101326699Y-56733068D01*
X101306417Y-56939001D01*
X95289583Y-56939001D01*
X95269300Y-56733067D01*
X95209232Y-56535047D01*
X95111685Y-56352551D01*
X95059702Y-56289210D01*
X94980410Y-56192590D01*
X94862677Y-56095970D01*
X94820450Y-56061316D01*
X94637954Y-55963769D01*
X94439934Y-55903701D01*
X94439932Y-55903700D01*
X94439934Y-55903700D01*
X94234000Y-55883418D01*
X94028067Y-55903700D01*
X93830043Y-55963770D01*
X93719898Y-56022644D01*
X93647550Y-56061316D01*
X93647548Y-56061317D01*
X93647547Y-56061318D01*
X93487589Y-56192590D01*
X93356317Y-56352548D01*
X93258769Y-56535044D01*
X93198699Y-56733068D01*
X93178417Y-56939001D01*
X87367074Y-56939001D01*
X87507194Y-56885214D01*
X87852789Y-56709125D01*
X88178084Y-56497876D01*
X88479516Y-56253781D01*
X88753781Y-55979516D01*
X88997876Y-55678084D01*
X89209125Y-55352789D01*
X89385214Y-55007194D01*
X89524214Y-54645087D01*
X89624602Y-54270433D01*
X89685278Y-53887338D01*
X89705578Y-53500000D01*
X89685278Y-53112662D01*
X89683321Y-53100305D01*
X90183500Y-53100305D01*
X90183500Y-54477696D01*
X90218103Y-54651659D01*
X90218106Y-54651668D01*
X90285983Y-54815541D01*
X90285990Y-54815554D01*
X90384535Y-54963035D01*
X90384538Y-54963039D01*
X90509961Y-55088462D01*
X90509965Y-55088465D01*
X90657446Y-55187010D01*
X90657459Y-55187017D01*
X90780363Y-55237924D01*
X90821334Y-55254895D01*
X90821336Y-55254895D01*
X90821341Y-55254897D01*
X90995304Y-55289500D01*
X90995307Y-55289501D01*
X90995309Y-55289501D01*
X91172693Y-55289501D01*
X91172694Y-55289500D01*
X91230682Y-55277965D01*
X91346658Y-55254897D01*
X91346661Y-55254895D01*
X91346666Y-55254895D01*
X91510547Y-55187014D01*
X91658035Y-55088465D01*
X91783464Y-54963036D01*
X91882013Y-54815548D01*
X91883438Y-54812109D01*
X91891958Y-54791536D01*
X91949894Y-54651667D01*
X91951202Y-54645094D01*
X91984499Y-54477696D01*
X91984500Y-54477694D01*
X91984500Y-53100307D01*
X91984499Y-53100305D01*
X96483500Y-53100305D01*
X96483500Y-54477696D01*
X96518103Y-54651659D01*
X96518106Y-54651668D01*
X96585983Y-54815541D01*
X96585990Y-54815554D01*
X96684535Y-54963035D01*
X96684538Y-54963039D01*
X96809961Y-55088462D01*
X96809965Y-55088465D01*
X96957446Y-55187010D01*
X96957459Y-55187017D01*
X97080363Y-55237924D01*
X97121334Y-55254895D01*
X97121336Y-55254895D01*
X97121341Y-55254897D01*
X97295304Y-55289500D01*
X97295307Y-55289501D01*
X97295309Y-55289501D01*
X97472693Y-55289501D01*
X97472694Y-55289500D01*
X97530682Y-55277965D01*
X97646658Y-55254897D01*
X97646661Y-55254895D01*
X97646666Y-55254895D01*
X97810547Y-55187014D01*
X97958035Y-55088465D01*
X98083464Y-54963036D01*
X98182013Y-54815548D01*
X98183437Y-54812107D01*
X98184666Y-54810583D01*
X98184883Y-54810178D01*
X98184959Y-54810219D01*
X98227277Y-54757704D01*
X98293570Y-54735637D01*
X98361270Y-54752914D01*
X98408882Y-54804050D01*
X98412558Y-54812098D01*
X98413987Y-54815548D01*
X98413988Y-54815549D01*
X98413990Y-54815554D01*
X98512535Y-54963035D01*
X98512538Y-54963039D01*
X98637961Y-55088462D01*
X98637965Y-55088465D01*
X98785446Y-55187010D01*
X98785459Y-55187017D01*
X98908363Y-55237924D01*
X98949334Y-55254895D01*
X98949336Y-55254895D01*
X98949341Y-55254897D01*
X99123304Y-55289500D01*
X99123307Y-55289501D01*
X99123309Y-55289501D01*
X99300693Y-55289501D01*
X99300694Y-55289500D01*
X99358682Y-55277965D01*
X99474658Y-55254897D01*
X99474661Y-55254895D01*
X99474666Y-55254895D01*
X99638547Y-55187014D01*
X99786035Y-55088465D01*
X99911464Y-54963036D01*
X100010013Y-54815548D01*
X100011438Y-54812109D01*
X100019958Y-54791536D01*
X100077894Y-54651667D01*
X100079202Y-54645094D01*
X100112499Y-54477696D01*
X100112500Y-54477694D01*
X100112500Y-53100307D01*
X100112499Y-53100305D01*
X104611500Y-53100305D01*
X104611500Y-54477696D01*
X104646103Y-54651659D01*
X104646106Y-54651668D01*
X104713983Y-54815541D01*
X104713990Y-54815554D01*
X104812535Y-54963035D01*
X104812538Y-54963039D01*
X104937961Y-55088462D01*
X104937965Y-55088465D01*
X105085446Y-55187010D01*
X105085459Y-55187017D01*
X105208363Y-55237924D01*
X105249334Y-55254895D01*
X105249336Y-55254895D01*
X105249341Y-55254897D01*
X105423304Y-55289500D01*
X105423307Y-55289501D01*
X105423309Y-55289501D01*
X105600693Y-55289501D01*
X105600694Y-55289500D01*
X105658682Y-55277965D01*
X105774658Y-55254897D01*
X105774661Y-55254895D01*
X105774666Y-55254895D01*
X105938547Y-55187014D01*
X106086035Y-55088465D01*
X106211464Y-54963036D01*
X106310013Y-54815548D01*
X106311437Y-54812107D01*
X106312666Y-54810583D01*
X106312883Y-54810178D01*
X106312959Y-54810219D01*
X106355277Y-54757704D01*
X106421570Y-54735637D01*
X106489270Y-54752914D01*
X106536882Y-54804050D01*
X106540558Y-54812098D01*
X106541987Y-54815548D01*
X106541988Y-54815549D01*
X106541990Y-54815554D01*
X106640535Y-54963035D01*
X106640538Y-54963039D01*
X106765961Y-55088462D01*
X106765965Y-55088465D01*
X106913446Y-55187010D01*
X106913459Y-55187017D01*
X107036363Y-55237924D01*
X107077334Y-55254895D01*
X107077336Y-55254895D01*
X107077341Y-55254897D01*
X107251304Y-55289500D01*
X107251307Y-55289501D01*
X107251309Y-55289501D01*
X107428693Y-55289501D01*
X107428694Y-55289500D01*
X107486682Y-55277965D01*
X107602658Y-55254897D01*
X107602661Y-55254895D01*
X107602666Y-55254895D01*
X107766547Y-55187014D01*
X107914035Y-55088465D01*
X108039464Y-54963036D01*
X108138013Y-54815548D01*
X108139438Y-54812109D01*
X108147958Y-54791536D01*
X108205894Y-54651667D01*
X108207202Y-54645094D01*
X108240499Y-54477696D01*
X108240500Y-54477694D01*
X108240500Y-53100307D01*
X108240499Y-53100305D01*
X112739500Y-53100305D01*
X112739500Y-54477696D01*
X112774103Y-54651659D01*
X112774106Y-54651668D01*
X112841983Y-54815541D01*
X112841990Y-54815554D01*
X112940535Y-54963035D01*
X112940538Y-54963039D01*
X113065961Y-55088462D01*
X113065965Y-55088465D01*
X113213446Y-55187010D01*
X113213459Y-55187017D01*
X113336363Y-55237924D01*
X113377334Y-55254895D01*
X113377336Y-55254895D01*
X113377341Y-55254897D01*
X113551304Y-55289500D01*
X113551307Y-55289501D01*
X113551309Y-55289501D01*
X113728693Y-55289501D01*
X113728694Y-55289500D01*
X113786682Y-55277965D01*
X113902658Y-55254897D01*
X113902661Y-55254895D01*
X113902666Y-55254895D01*
X114066547Y-55187014D01*
X114214035Y-55088465D01*
X114339464Y-54963036D01*
X114438013Y-54815548D01*
X114439438Y-54812109D01*
X114447958Y-54791536D01*
X114505894Y-54651667D01*
X114507202Y-54645094D01*
X114540499Y-54477696D01*
X114540500Y-54477694D01*
X114540500Y-53100307D01*
X114540499Y-53100305D01*
X114505896Y-52926342D01*
X114505893Y-52926333D01*
X114438016Y-52762460D01*
X114438009Y-52762447D01*
X114339464Y-52614966D01*
X114339461Y-52614962D01*
X114214038Y-52489539D01*
X114214034Y-52489536D01*
X114066553Y-52390991D01*
X114066540Y-52390984D01*
X113902667Y-52323107D01*
X113902658Y-52323104D01*
X113728694Y-52288501D01*
X113728691Y-52288501D01*
X113551309Y-52288501D01*
X113551306Y-52288501D01*
X113377341Y-52323104D01*
X113377332Y-52323107D01*
X113213459Y-52390984D01*
X113213446Y-52390991D01*
X113065965Y-52489536D01*
X113065961Y-52489539D01*
X112940538Y-52614962D01*
X112940535Y-52614966D01*
X112841990Y-52762447D01*
X112841983Y-52762460D01*
X112774106Y-52926333D01*
X112774103Y-52926342D01*
X112739500Y-53100305D01*
X108240499Y-53100305D01*
X108205896Y-52926342D01*
X108205893Y-52926333D01*
X108138016Y-52762460D01*
X108138009Y-52762447D01*
X108039464Y-52614966D01*
X108039461Y-52614962D01*
X107914038Y-52489539D01*
X107914034Y-52489536D01*
X107766553Y-52390991D01*
X107766540Y-52390984D01*
X107602667Y-52323107D01*
X107602658Y-52323104D01*
X107428694Y-52288501D01*
X107428691Y-52288501D01*
X107251309Y-52288501D01*
X107251306Y-52288501D01*
X107077341Y-52323104D01*
X107077332Y-52323107D01*
X106913459Y-52390984D01*
X106913446Y-52390991D01*
X106765965Y-52489536D01*
X106765961Y-52489539D01*
X106640538Y-52614962D01*
X106640535Y-52614966D01*
X106541990Y-52762447D01*
X106541987Y-52762453D01*
X106540561Y-52765897D01*
X106539331Y-52767422D01*
X106539117Y-52767824D01*
X106539040Y-52767783D01*
X106496719Y-52820300D01*
X106430425Y-52842364D01*
X106362726Y-52825084D01*
X106315116Y-52773947D01*
X106311439Y-52765897D01*
X106310015Y-52762460D01*
X106310013Y-52762454D01*
X106310011Y-52762451D01*
X106310009Y-52762447D01*
X106211464Y-52614966D01*
X106211461Y-52614962D01*
X106086038Y-52489539D01*
X106086034Y-52489536D01*
X105938553Y-52390991D01*
X105938540Y-52390984D01*
X105774667Y-52323107D01*
X105774658Y-52323104D01*
X105600694Y-52288501D01*
X105600691Y-52288501D01*
X105423309Y-52288501D01*
X105423306Y-52288501D01*
X105249341Y-52323104D01*
X105249332Y-52323107D01*
X105085459Y-52390984D01*
X105085446Y-52390991D01*
X104937965Y-52489536D01*
X104937961Y-52489539D01*
X104812538Y-52614962D01*
X104812535Y-52614966D01*
X104713990Y-52762447D01*
X104713983Y-52762460D01*
X104646106Y-52926333D01*
X104646103Y-52926342D01*
X104611500Y-53100305D01*
X100112499Y-53100305D01*
X100077896Y-52926342D01*
X100077893Y-52926333D01*
X100010016Y-52762460D01*
X100010009Y-52762447D01*
X99911464Y-52614966D01*
X99911461Y-52614962D01*
X99786038Y-52489539D01*
X99786034Y-52489536D01*
X99638553Y-52390991D01*
X99638540Y-52390984D01*
X99474667Y-52323107D01*
X99474658Y-52323104D01*
X99300694Y-52288501D01*
X99300691Y-52288501D01*
X99123309Y-52288501D01*
X99123306Y-52288501D01*
X98949341Y-52323104D01*
X98949332Y-52323107D01*
X98785459Y-52390984D01*
X98785446Y-52390991D01*
X98637965Y-52489536D01*
X98637961Y-52489539D01*
X98512538Y-52614962D01*
X98512535Y-52614966D01*
X98413990Y-52762447D01*
X98413987Y-52762453D01*
X98412561Y-52765897D01*
X98411331Y-52767422D01*
X98411117Y-52767824D01*
X98411040Y-52767783D01*
X98368719Y-52820300D01*
X98302425Y-52842364D01*
X98234726Y-52825084D01*
X98187116Y-52773947D01*
X98183439Y-52765897D01*
X98182015Y-52762460D01*
X98182013Y-52762454D01*
X98182011Y-52762451D01*
X98182009Y-52762447D01*
X98083464Y-52614966D01*
X98083461Y-52614962D01*
X97958038Y-52489539D01*
X97958034Y-52489536D01*
X97810553Y-52390991D01*
X97810540Y-52390984D01*
X97646667Y-52323107D01*
X97646658Y-52323104D01*
X97472694Y-52288501D01*
X97472691Y-52288501D01*
X97295309Y-52288501D01*
X97295306Y-52288501D01*
X97121341Y-52323104D01*
X97121332Y-52323107D01*
X96957459Y-52390984D01*
X96957446Y-52390991D01*
X96809965Y-52489536D01*
X96809961Y-52489539D01*
X96684538Y-52614962D01*
X96684535Y-52614966D01*
X96585990Y-52762447D01*
X96585983Y-52762460D01*
X96518106Y-52926333D01*
X96518103Y-52926342D01*
X96483500Y-53100305D01*
X91984499Y-53100305D01*
X91949896Y-52926342D01*
X91949893Y-52926333D01*
X91882016Y-52762460D01*
X91882009Y-52762447D01*
X91783464Y-52614966D01*
X91783461Y-52614962D01*
X91658038Y-52489539D01*
X91658034Y-52489536D01*
X91510553Y-52390991D01*
X91510540Y-52390984D01*
X91346667Y-52323107D01*
X91346658Y-52323104D01*
X91172694Y-52288501D01*
X91172691Y-52288501D01*
X90995309Y-52288501D01*
X90995306Y-52288501D01*
X90821341Y-52323104D01*
X90821332Y-52323107D01*
X90657459Y-52390984D01*
X90657446Y-52390991D01*
X90509965Y-52489536D01*
X90509961Y-52489539D01*
X90384538Y-52614962D01*
X90384535Y-52614966D01*
X90285990Y-52762447D01*
X90285983Y-52762460D01*
X90218106Y-52926333D01*
X90218103Y-52926342D01*
X90183500Y-53100305D01*
X89683321Y-53100305D01*
X89624602Y-52729567D01*
X89524214Y-52354913D01*
X89385214Y-51992806D01*
X89209125Y-51647211D01*
X89131646Y-51527904D01*
X88997877Y-51321917D01*
X88753784Y-51020488D01*
X88753781Y-51020484D01*
X88479516Y-50746219D01*
X88178084Y-50502124D01*
X88178082Y-50502122D01*
X87886082Y-50312495D01*
X87840579Y-50259474D01*
X87830965Y-50190269D01*
X87860292Y-50126852D01*
X87919249Y-50089358D01*
X87953617Y-50084500D01*
X132046383Y-50084500D01*
X132113422Y-50104185D01*
G37*
%TD.AperFunction*%
%TD*%
%TA.AperFunction,Conductor*%
%TO.N,GND*%
G36*
X105378589Y-120723589D02*
G01*
X105247317Y-120883547D01*
X105149769Y-121066043D01*
X105089699Y-121264067D01*
X105074500Y-121418395D01*
X105074500Y-122221604D01*
X105089699Y-122375932D01*
X105089700Y-122375934D01*
X105149768Y-122573954D01*
X105247315Y-122756450D01*
X105247317Y-122756452D01*
X105378590Y-122916410D01*
X105473312Y-122994147D01*
X105512646Y-123051893D01*
X105514517Y-123121737D01*
X105478329Y-123181505D01*
X105473312Y-123185853D01*
X105378590Y-123263589D01*
X105247317Y-123423547D01*
X105149769Y-123606043D01*
X105089699Y-123804067D01*
X105074500Y-123958395D01*
X105074500Y-124761604D01*
X105089699Y-124915932D01*
X105089700Y-124915934D01*
X105149768Y-125113954D01*
X105247315Y-125296450D01*
X105279393Y-125335537D01*
X105378590Y-125456410D01*
X105473312Y-125534147D01*
X105512646Y-125591893D01*
X105514517Y-125661737D01*
X105478329Y-125721505D01*
X105473312Y-125725853D01*
X105378590Y-125803589D01*
X105247317Y-125963547D01*
X105149769Y-126146043D01*
X105089699Y-126344067D01*
X105074500Y-126498395D01*
X105074500Y-127301604D01*
X105089699Y-127455932D01*
X105089700Y-127455934D01*
X105149768Y-127653954D01*
X105247315Y-127836450D01*
X105247317Y-127836452D01*
X105378589Y-127996410D01*
X105473312Y-128074146D01*
X105538550Y-128127685D01*
X105721046Y-128225232D01*
X105919066Y-128285300D01*
X105919065Y-128285300D01*
X105957647Y-128289100D01*
X106073392Y-128300500D01*
X106073395Y-128300500D01*
X107276605Y-128300500D01*
X107276608Y-128300500D01*
X107430934Y-128285300D01*
X107628954Y-128225232D01*
X107811450Y-128127685D01*
X107971410Y-127996410D01*
X108102685Y-127836450D01*
X108200232Y-127653954D01*
X108260300Y-127455934D01*
X108275500Y-127301608D01*
X108275500Y-126498395D01*
X111614500Y-126498395D01*
X111614500Y-127301604D01*
X111629699Y-127455932D01*
X111629700Y-127455934D01*
X111689768Y-127653954D01*
X111787315Y-127836450D01*
X111787317Y-127836452D01*
X111918590Y-127996410D01*
X112013312Y-128074147D01*
X112052646Y-128131893D01*
X112054517Y-128201737D01*
X112018329Y-128261505D01*
X112013312Y-128265853D01*
X111918590Y-128343589D01*
X111787317Y-128503547D01*
X111689769Y-128686043D01*
X111629699Y-128884067D01*
X111614500Y-129038395D01*
X111614500Y-129841604D01*
X111629699Y-129995932D01*
X111629700Y-129995934D01*
X111689768Y-130193954D01*
X111787315Y-130376450D01*
X111787317Y-130376452D01*
X111918590Y-130536410D01*
X112013312Y-130614147D01*
X112052646Y-130671893D01*
X112054517Y-130741737D01*
X112018329Y-130801505D01*
X112013312Y-130805853D01*
X111918590Y-130883589D01*
X111787544Y-131043271D01*
X111787315Y-131043550D01*
X111749613Y-131114085D01*
X111689769Y-131226043D01*
X111629699Y-131424067D01*
X111614500Y-131578395D01*
X111614500Y-132381604D01*
X111629699Y-132535932D01*
X111629700Y-132535934D01*
X111689768Y-132733954D01*
X111787315Y-132916450D01*
X111787317Y-132916452D01*
X111918589Y-133076410D01*
X112015209Y-133155702D01*
X112078550Y-133207685D01*
X112261046Y-133305232D01*
X112459066Y-133365300D01*
X112459065Y-133365300D01*
X112497647Y-133369100D01*
X112613392Y-133380500D01*
X112613395Y-133380500D01*
X113816605Y-133380500D01*
X113816608Y-133380500D01*
X113970934Y-133365300D01*
X114168954Y-133305232D01*
X114351450Y-133207685D01*
X114511410Y-133076410D01*
X114642685Y-132916450D01*
X114740232Y-132733954D01*
X114800300Y-132535934D01*
X114815500Y-132381608D01*
X114815500Y-131578392D01*
X114800300Y-131424066D01*
X114740232Y-131226046D01*
X114642685Y-131043550D01*
X114565548Y-130949558D01*
X114511410Y-130883589D01*
X114416688Y-130805854D01*
X114377353Y-130748108D01*
X114375482Y-130678263D01*
X114411669Y-130618495D01*
X114416688Y-130614146D01*
X114511410Y-130536410D01*
X114642685Y-130376450D01*
X114740232Y-130193954D01*
X114800300Y-129995934D01*
X114815500Y-129841608D01*
X114815500Y-129038392D01*
X114800300Y-128884066D01*
X114740232Y-128686046D01*
X114642685Y-128503550D01*
X114590702Y-128440209D01*
X114511410Y-128343589D01*
X114416688Y-128265854D01*
X114377353Y-128208108D01*
X114375482Y-128138263D01*
X114411669Y-128078495D01*
X114416688Y-128074146D01*
X114511410Y-127996410D01*
X114642685Y-127836450D01*
X114740232Y-127653954D01*
X114800300Y-127455934D01*
X114815500Y-127301608D01*
X114815500Y-126498392D01*
X114800300Y-126344066D01*
X114740232Y-126146046D01*
X114642685Y-125963550D01*
X114575715Y-125881946D01*
X114511410Y-125803589D01*
X114351452Y-125672317D01*
X114351453Y-125672317D01*
X114351450Y-125672315D01*
X114168954Y-125574768D01*
X113970934Y-125514700D01*
X113970932Y-125514699D01*
X113970934Y-125514699D01*
X113851805Y-125502966D01*
X113816608Y-125499500D01*
X112613392Y-125499500D01*
X112575298Y-125503251D01*
X112459067Y-125514699D01*
X112261043Y-125574769D01*
X112217090Y-125598263D01*
X112078550Y-125672315D01*
X112078548Y-125672316D01*
X112078547Y-125672317D01*
X111918589Y-125803589D01*
X111787317Y-125963547D01*
X111689769Y-126146043D01*
X111629699Y-126344067D01*
X111614500Y-126498395D01*
X108275500Y-126498395D01*
X108275500Y-126498392D01*
X108260300Y-126344066D01*
X108200232Y-126146046D01*
X108102685Y-125963550D01*
X108035715Y-125881946D01*
X107971410Y-125803589D01*
X107876688Y-125725854D01*
X107837353Y-125668108D01*
X107835482Y-125598263D01*
X107871669Y-125538495D01*
X107876688Y-125534146D01*
X107971410Y-125456410D01*
X108102685Y-125296450D01*
X108200232Y-125113954D01*
X108260300Y-124915934D01*
X108275500Y-124761608D01*
X108275500Y-123958392D01*
X108260300Y-123804066D01*
X108200232Y-123606046D01*
X108102685Y-123423550D01*
X108050702Y-123360209D01*
X107971410Y-123263589D01*
X107876688Y-123185854D01*
X107837353Y-123128108D01*
X107835482Y-123058263D01*
X107871669Y-122998495D01*
X107876688Y-122994146D01*
X107971410Y-122916410D01*
X108102685Y-122756450D01*
X108200232Y-122573954D01*
X108260300Y-122375934D01*
X108275500Y-122221608D01*
X108275500Y-121418392D01*
X108260300Y-121264066D01*
X108200232Y-121066046D01*
X108102685Y-120883550D01*
X108050702Y-120820209D01*
X107971410Y-120723589D01*
X107881740Y-120650000D01*
X125958259Y-120650000D01*
X125868589Y-120723589D01*
X125737317Y-120883547D01*
X125639769Y-121066043D01*
X125579699Y-121264067D01*
X125564500Y-121418395D01*
X125564500Y-122221604D01*
X125579699Y-122375932D01*
X125579700Y-122375934D01*
X125639768Y-122573954D01*
X125737315Y-122756450D01*
X125737317Y-122756452D01*
X125868590Y-122916410D01*
X125963312Y-122994147D01*
X126002646Y-123051893D01*
X126004517Y-123121737D01*
X125968329Y-123181505D01*
X125963312Y-123185853D01*
X125868590Y-123263589D01*
X125737317Y-123423547D01*
X125639769Y-123606043D01*
X125579699Y-123804067D01*
X125564500Y-123958395D01*
X125564500Y-124761604D01*
X125579699Y-124915932D01*
X125579700Y-124915934D01*
X125639768Y-125113954D01*
X125737315Y-125296450D01*
X125769393Y-125335537D01*
X125868590Y-125456410D01*
X125963312Y-125534147D01*
X126002646Y-125591893D01*
X126004517Y-125661737D01*
X125968329Y-125721505D01*
X125963312Y-125725853D01*
X125868590Y-125803589D01*
X125737317Y-125963547D01*
X125639769Y-126146043D01*
X125579699Y-126344067D01*
X125564500Y-126498395D01*
X125564500Y-127301604D01*
X125579699Y-127455932D01*
X125579700Y-127455934D01*
X125639768Y-127653954D01*
X125737315Y-127836450D01*
X125737317Y-127836452D01*
X125868589Y-127996410D01*
X125963312Y-128074146D01*
X126028550Y-128127685D01*
X126211046Y-128225232D01*
X126409066Y-128285300D01*
X126409065Y-128285300D01*
X126447647Y-128289100D01*
X126563392Y-128300500D01*
X126563395Y-128300500D01*
X127766605Y-128300500D01*
X127766608Y-128300500D01*
X127920934Y-128285300D01*
X128118954Y-128225232D01*
X128301450Y-128127685D01*
X128461410Y-127996410D01*
X128592685Y-127836450D01*
X128690232Y-127653954D01*
X128750300Y-127455934D01*
X128765500Y-127301608D01*
X128765500Y-126498392D01*
X128750300Y-126344066D01*
X128690232Y-126146046D01*
X128592685Y-125963550D01*
X128525715Y-125881946D01*
X128461410Y-125803589D01*
X128366688Y-125725854D01*
X128327353Y-125668108D01*
X128325482Y-125598263D01*
X128361669Y-125538495D01*
X128366688Y-125534146D01*
X128461410Y-125456410D01*
X128592685Y-125296450D01*
X128690232Y-125113954D01*
X128750300Y-124915934D01*
X128765500Y-124761608D01*
X128765500Y-123958392D01*
X128750300Y-123804066D01*
X128690232Y-123606046D01*
X128592685Y-123423550D01*
X128540702Y-123360209D01*
X128461410Y-123263589D01*
X128366688Y-123185854D01*
X128327353Y-123128108D01*
X128325482Y-123058263D01*
X128361669Y-122998495D01*
X128366688Y-122994146D01*
X128461410Y-122916410D01*
X128592685Y-122756450D01*
X128690232Y-122573954D01*
X128750300Y-122375934D01*
X128765500Y-122221608D01*
X128765500Y-121418392D01*
X128750300Y-121264066D01*
X128690232Y-121066046D01*
X128592685Y-120883550D01*
X128540702Y-120820209D01*
X128461410Y-120723589D01*
X128371740Y-120650000D01*
X133694500Y-120650000D01*
X133694500Y-125076495D01*
X133712566Y-125246141D01*
X133723566Y-125297202D01*
X133732810Y-125335528D01*
X133732815Y-125335542D01*
X133798604Y-125503484D01*
X133798606Y-125503488D01*
X133900113Y-125652577D01*
X133900118Y-125652585D01*
X133928825Y-125685985D01*
X133945658Y-125705571D01*
X134014334Y-125776230D01*
X134160481Y-125881947D01*
X134326488Y-125952493D01*
X134393448Y-125972448D01*
X134393464Y-125972452D01*
X134393470Y-125972454D01*
X134407455Y-125976159D01*
X134441094Y-125985073D01*
X134620244Y-126005990D01*
X134620249Y-126005991D01*
X137243104Y-126016569D01*
X137243097Y-126018074D01*
X137305223Y-126032976D01*
X137353569Y-126083419D01*
X137367500Y-126140523D01*
X137367500Y-130949558D01*
X137347815Y-131016597D01*
X137295011Y-131062352D01*
X137225853Y-131072296D01*
X137162297Y-131043271D01*
X137143904Y-131023427D01*
X137096158Y-130959049D01*
X137027765Y-130883589D01*
X136832192Y-130667807D01*
X136540956Y-130403846D01*
X136504019Y-130376452D01*
X136225239Y-130169694D01*
X136225236Y-130169692D01*
X135888100Y-129967620D01*
X135532772Y-129799562D01*
X135532770Y-129799561D01*
X135162684Y-129667143D01*
X134781406Y-129571637D01*
X134781401Y-129571636D01*
X134781400Y-129571636D01*
X134637256Y-129550254D01*
X134392599Y-129513963D01*
X134392597Y-129513962D01*
X134392591Y-129513962D01*
X134000000Y-129494675D01*
X133607409Y-129513962D01*
X133607403Y-129513962D01*
X133607400Y-129513963D01*
X133218593Y-129571637D01*
X132837315Y-129667143D01*
X132467229Y-129799561D01*
X132467227Y-129799562D01*
X132111899Y-129967620D01*
X131774763Y-130169692D01*
X131459043Y-130403846D01*
X131167807Y-130667807D01*
X130903846Y-130959043D01*
X130669692Y-131274763D01*
X130467620Y-131611899D01*
X130299562Y-131967227D01*
X130299561Y-131967229D01*
X130167143Y-132337315D01*
X130071637Y-132718593D01*
X130042288Y-132916452D01*
X130013962Y-133107409D01*
X129994675Y-133500000D01*
X130013962Y-133892591D01*
X130013962Y-133892597D01*
X130013963Y-133892599D01*
X130071637Y-134281406D01*
X130167143Y-134662684D01*
X130299561Y-135032770D01*
X130299562Y-135032772D01*
X130467620Y-135388100D01*
X130669692Y-135725236D01*
X130669694Y-135725239D01*
X130856097Y-135976575D01*
X130903846Y-136040956D01*
X131167807Y-136332192D01*
X131459049Y-136596159D01*
X131512638Y-136635903D01*
X131554758Y-136691649D01*
X131560054Y-136761318D01*
X131526842Y-136822789D01*
X131465669Y-136856547D01*
X131438771Y-136859500D01*
X88561229Y-136859500D01*
X88494190Y-136839815D01*
X88448435Y-136787011D01*
X88438491Y-136717853D01*
X88467516Y-136654297D01*
X88487362Y-136635903D01*
X88540950Y-136596159D01*
X88832192Y-136332192D01*
X89096158Y-136040951D01*
X89330306Y-135725239D01*
X89532381Y-135388097D01*
X89700438Y-135032772D01*
X89832857Y-134662684D01*
X89928364Y-134281400D01*
X89986038Y-133892591D01*
X90005325Y-133500000D01*
X89986038Y-133107409D01*
X89928364Y-132718600D01*
X89832857Y-132337316D01*
X89700438Y-131967228D01*
X89532381Y-131611903D01*
X89512295Y-131578392D01*
X89330307Y-131274763D01*
X89215068Y-131119381D01*
X89096158Y-130959049D01*
X89027765Y-130883589D01*
X88832192Y-130667807D01*
X88540956Y-130403846D01*
X88504019Y-130376452D01*
X88225239Y-130169694D01*
X88225236Y-130169692D01*
X87888100Y-129967620D01*
X87532772Y-129799562D01*
X87532770Y-129799561D01*
X87162684Y-129667143D01*
X86781406Y-129571637D01*
X86781401Y-129571636D01*
X86781400Y-129571636D01*
X86637256Y-129550254D01*
X86392599Y-129513963D01*
X86392597Y-129513962D01*
X86392591Y-129513962D01*
X86000000Y-129494675D01*
X85607409Y-129513962D01*
X85607403Y-129513962D01*
X85607400Y-129513963D01*
X85218593Y-129571637D01*
X84837315Y-129667143D01*
X84467229Y-129799561D01*
X84467227Y-129799562D01*
X84111899Y-129967620D01*
X83774763Y-130169692D01*
X83459043Y-130403846D01*
X83167807Y-130667807D01*
X82903846Y-130959043D01*
X82820098Y-131071965D01*
X82764351Y-131114085D01*
X82694683Y-131119381D01*
X82633211Y-131086169D01*
X82599453Y-131024996D01*
X82596500Y-130998098D01*
X82596500Y-126498395D01*
X91124500Y-126498395D01*
X91124500Y-127301604D01*
X91139699Y-127455932D01*
X91139700Y-127455934D01*
X91199768Y-127653954D01*
X91297315Y-127836450D01*
X91297317Y-127836452D01*
X91428590Y-127996410D01*
X91523312Y-128074147D01*
X91562646Y-128131893D01*
X91564517Y-128201737D01*
X91528329Y-128261505D01*
X91523312Y-128265853D01*
X91428590Y-128343589D01*
X91297317Y-128503547D01*
X91199769Y-128686043D01*
X91139699Y-128884067D01*
X91124500Y-129038395D01*
X91124500Y-129841604D01*
X91139699Y-129995932D01*
X91139700Y-129995934D01*
X91199768Y-130193954D01*
X91297315Y-130376450D01*
X91297317Y-130376452D01*
X91428590Y-130536410D01*
X91523312Y-130614147D01*
X91562646Y-130671893D01*
X91564517Y-130741737D01*
X91528329Y-130801505D01*
X91523312Y-130805853D01*
X91428590Y-130883589D01*
X91297544Y-131043271D01*
X91297315Y-131043550D01*
X91259613Y-131114085D01*
X91199769Y-131226043D01*
X91139699Y-131424067D01*
X91124500Y-131578395D01*
X91124500Y-132381604D01*
X91139699Y-132535932D01*
X91139700Y-132535934D01*
X91199768Y-132733954D01*
X91297315Y-132916450D01*
X91297317Y-132916452D01*
X91428589Y-133076410D01*
X91525209Y-133155702D01*
X91588550Y-133207685D01*
X91771046Y-133305232D01*
X91969066Y-133365300D01*
X91969065Y-133365300D01*
X92007647Y-133369100D01*
X92123392Y-133380500D01*
X92123395Y-133380500D01*
X93326605Y-133380500D01*
X93326608Y-133380500D01*
X93480934Y-133365300D01*
X93678954Y-133305232D01*
X93861450Y-133207685D01*
X94021410Y-133076410D01*
X94152685Y-132916450D01*
X94250232Y-132733954D01*
X94310300Y-132535934D01*
X94325500Y-132381608D01*
X94325500Y-131578392D01*
X94310300Y-131424066D01*
X94250232Y-131226046D01*
X94152685Y-131043550D01*
X94075548Y-130949558D01*
X94021410Y-130883589D01*
X93926688Y-130805854D01*
X93887353Y-130748108D01*
X93885482Y-130678263D01*
X93921669Y-130618495D01*
X93926688Y-130614146D01*
X94021410Y-130536410D01*
X94152685Y-130376450D01*
X94250232Y-130193954D01*
X94310300Y-129995934D01*
X94325500Y-129841608D01*
X94325500Y-129038392D01*
X94310300Y-128884066D01*
X94250232Y-128686046D01*
X94152685Y-128503550D01*
X94100702Y-128440209D01*
X94021410Y-128343589D01*
X93926688Y-128265854D01*
X93887353Y-128208108D01*
X93885482Y-128138263D01*
X93921669Y-128078495D01*
X93926688Y-128074146D01*
X94021410Y-127996410D01*
X94152685Y-127836450D01*
X94250232Y-127653954D01*
X94310300Y-127455934D01*
X94325500Y-127301608D01*
X94325500Y-126498392D01*
X94310300Y-126344066D01*
X94250232Y-126146046D01*
X94152685Y-125963550D01*
X94085715Y-125881946D01*
X94021410Y-125803589D01*
X93861452Y-125672317D01*
X93861453Y-125672317D01*
X93861450Y-125672315D01*
X93678954Y-125574768D01*
X93480934Y-125514700D01*
X93480932Y-125514699D01*
X93480934Y-125514699D01*
X93361805Y-125502966D01*
X93326608Y-125499500D01*
X92123392Y-125499500D01*
X92085298Y-125503251D01*
X91969067Y-125514699D01*
X91771043Y-125574769D01*
X91727090Y-125598263D01*
X91588550Y-125672315D01*
X91588548Y-125672316D01*
X91588547Y-125672317D01*
X91428589Y-125803589D01*
X91297317Y-125963547D01*
X91199769Y-126146043D01*
X91139699Y-126344067D01*
X91124500Y-126498395D01*
X82596500Y-126498395D01*
X82596500Y-120650000D01*
X105468259Y-120650000D01*
X105378589Y-120723589D01*
G37*
%TD.AperFunction*%
%TD*%
%TA.AperFunction,Conductor*%
%TO.N,VDC*%
G36*
X137310539Y-65551685D02*
G01*
X137356294Y-65604489D01*
X137367500Y-65656000D01*
X137367500Y-125087063D01*
X137347815Y-125154102D01*
X137295011Y-125199857D01*
X137243000Y-125211062D01*
X134623500Y-125200498D01*
X134556540Y-125180543D01*
X134510999Y-125127555D01*
X134500000Y-125076499D01*
X134500000Y-111565021D01*
X134519685Y-111497982D01*
X134564572Y-111456190D01*
X134588315Y-111443226D01*
X134817395Y-111271739D01*
X135019739Y-111069395D01*
X135191226Y-110840315D01*
X135328367Y-110589161D01*
X135428369Y-110321046D01*
X135489196Y-110041428D01*
X135509610Y-109756000D01*
X135489196Y-109470572D01*
X135428369Y-109190954D01*
X135328367Y-108922839D01*
X135191226Y-108671685D01*
X135112337Y-108566301D01*
X135019745Y-108442612D01*
X135019729Y-108442594D01*
X134940819Y-108363684D01*
X134907334Y-108302361D01*
X134904500Y-108276003D01*
X134904500Y-104509504D01*
X134906027Y-104490106D01*
X134914500Y-104436610D01*
X134914500Y-104263384D01*
X134906027Y-104209892D01*
X134904500Y-104190493D01*
X134904500Y-65868047D01*
X134924185Y-65801008D01*
X134940819Y-65780366D01*
X135152866Y-65568319D01*
X135214189Y-65534834D01*
X135240547Y-65532000D01*
X137243500Y-65532000D01*
X137310539Y-65551685D01*
G37*
%TD.AperFunction*%
%TD*%
M02*
