%TF.GenerationSoftware,KiCad,Pcbnew,8.0.6-8.0.6-0~ubuntu22.04.1*%
%TF.CreationDate,2024-11-21T09:47:25+02:00*%
%TF.ProjectId,SAMD21_Dev_Board,53414d44-3231-45f4-9465-765f426f6172,rev?*%
%TF.SameCoordinates,Original*%
%TF.FileFunction,Profile,NP*%
%FSLAX46Y46*%
G04 Gerber Fmt 4.6, Leading zero omitted, Abs format (unit mm)*
G04 Created by KiCad (PCBNEW 8.0.6-8.0.6-0~ubuntu22.04.1) date 2024-11-21 09:47:25*
%MOMM*%
%LPD*%
G01*
G04 APERTURE LIST*
%TA.AperFunction,Profile*%
%ADD10C,0.050000*%
%TD*%
G04 APERTURE END LIST*
D10*
X112776000Y-105664000D02*
G75*
G02*
X112776000Y-108712000I0J-1524000D01*
G01*
X82296000Y-137160000D02*
X82296000Y-49784000D01*
X82296000Y-49784000D02*
X137668000Y-49784000D01*
X98224000Y-105664000D02*
X112776000Y-105664000D01*
X82296000Y-137160000D02*
X137668000Y-137160000D01*
X137668000Y-137160000D02*
X137668000Y-49784000D01*
X112776000Y-108712000D02*
X98224000Y-108712000D01*
X98224000Y-108712000D02*
G75*
G02*
X98224000Y-105664000I0J1524000D01*
G01*
%TO.C,REF\u002A\u002A*%
X98612000Y-54389001D02*
X98612000Y-53189001D01*
X99812000Y-53189001D02*
X99812000Y-54389001D01*
X104912000Y-54389001D02*
X104912000Y-53189001D01*
X106112000Y-53189001D02*
X106112000Y-54389001D01*
X98612000Y-53189001D02*
G75*
G02*
X99812000Y-53189001I600000J0D01*
G01*
X99812000Y-54389001D02*
G75*
G02*
X98612000Y-54389001I-600000J0D01*
G01*
X104912000Y-53189001D02*
G75*
G02*
X106112000Y-53189001I600000J0D01*
G01*
X106112000Y-54389001D02*
G75*
G02*
X104912000Y-54389001I-600000J0D01*
G01*
X103112000Y-56939001D02*
G75*
G02*
X101612000Y-56939001I-750000J0D01*
G01*
X101612000Y-56939001D02*
G75*
G02*
X103112000Y-56939001I750000J0D01*
G01*
X106740000Y-54389001D02*
X106740000Y-53189001D01*
X107940000Y-53189001D02*
X107940000Y-54389001D01*
X113040000Y-54389001D02*
X113040000Y-53189001D01*
X114240000Y-53189001D02*
X114240000Y-54389001D01*
X106740000Y-53189001D02*
G75*
G02*
X107940000Y-53189001I600000J0D01*
G01*
X107940000Y-54389001D02*
G75*
G02*
X106740000Y-54389001I-600000J0D01*
G01*
X113040000Y-53189001D02*
G75*
G02*
X114240000Y-53189001I600000J0D01*
G01*
X114240000Y-54389001D02*
G75*
G02*
X113040000Y-54389001I-600000J0D01*
G01*
X111240000Y-56939001D02*
G75*
G02*
X109740000Y-56939001I-750000J0D01*
G01*
X109740000Y-56939001D02*
G75*
G02*
X111240000Y-56939001I750000J0D01*
G01*
X90484000Y-54389001D02*
X90484000Y-53189001D01*
X91684000Y-53189001D02*
X91684000Y-54389001D01*
X96784000Y-54389001D02*
X96784000Y-53189001D01*
X97984000Y-53189001D02*
X97984000Y-54389001D01*
X90484000Y-53189001D02*
G75*
G02*
X91684000Y-53189001I600000J0D01*
G01*
X91684000Y-54389001D02*
G75*
G02*
X90484000Y-54389001I-600000J0D01*
G01*
X96784000Y-53189001D02*
G75*
G02*
X97984000Y-53189001I600000J0D01*
G01*
X97984000Y-54389001D02*
G75*
G02*
X96784000Y-54389001I-600000J0D01*
G01*
X94984000Y-56939001D02*
G75*
G02*
X93484000Y-56939001I-750000J0D01*
G01*
X93484000Y-56939001D02*
G75*
G02*
X94984000Y-56939001I750000J0D01*
G01*
%TD*%
M02*
