%TF.GenerationSoftware,KiCad,Pcbnew,8.0.6-8.0.6-0~ubuntu22.04.1*%
%TF.CreationDate,2024-11-21T09:47:25+02:00*%
%TF.ProjectId,SAMD21_Dev_Board,53414d44-3231-45f4-9465-765f426f6172,rev?*%
%TF.SameCoordinates,Original*%
%TF.FileFunction,Legend,Top*%
%TF.FilePolarity,Positive*%
%FSLAX46Y46*%
G04 Gerber Fmt 4.6, Leading zero omitted, Abs format (unit mm)*
G04 Created by KiCad (PCBNEW 8.0.6-8.0.6-0~ubuntu22.04.1) date 2024-11-21 09:47:25*
%MOMM*%
%LPD*%
G01*
G04 APERTURE LIST*
%ADD10C,0.200000*%
%ADD11C,0.100000*%
%ADD12C,0.300000*%
%ADD13C,0.150000*%
%ADD14C,0.120000*%
%ADD15C,0.177800*%
G04 APERTURE END LIST*
D10*
X89700000Y-116900000D02*
X109700000Y-116900000D01*
X109700000Y-136900000D01*
X89700000Y-136900000D01*
X89700000Y-116900000D01*
D11*
X95150000Y-101682000D02*
X124614000Y-101682000D01*
X124614000Y-116922000D01*
X95150000Y-116922000D01*
X95150000Y-101682000D01*
D10*
X110200000Y-116900000D02*
X130200000Y-116900000D01*
X130200000Y-136900000D01*
X110200000Y-136900000D01*
X110200000Y-116900000D01*
X114272816Y-102753219D02*
X114606149Y-103753219D01*
X114606149Y-103753219D02*
X114939482Y-102753219D01*
X115463292Y-102753219D02*
X115653768Y-102753219D01*
X115653768Y-102753219D02*
X115749006Y-102800838D01*
X115749006Y-102800838D02*
X115844244Y-102896076D01*
X115844244Y-102896076D02*
X115891863Y-103086552D01*
X115891863Y-103086552D02*
X115891863Y-103419885D01*
X115891863Y-103419885D02*
X115844244Y-103610361D01*
X115844244Y-103610361D02*
X115749006Y-103705600D01*
X115749006Y-103705600D02*
X115653768Y-103753219D01*
X115653768Y-103753219D02*
X115463292Y-103753219D01*
X115463292Y-103753219D02*
X115368054Y-103705600D01*
X115368054Y-103705600D02*
X115272816Y-103610361D01*
X115272816Y-103610361D02*
X115225197Y-103419885D01*
X115225197Y-103419885D02*
X115225197Y-103086552D01*
X115225197Y-103086552D02*
X115272816Y-102896076D01*
X115272816Y-102896076D02*
X115368054Y-102800838D01*
X115368054Y-102800838D02*
X115463292Y-102753219D01*
X116320435Y-102753219D02*
X116320435Y-103562742D01*
X116320435Y-103562742D02*
X116368054Y-103657980D01*
X116368054Y-103657980D02*
X116415673Y-103705600D01*
X116415673Y-103705600D02*
X116510911Y-103753219D01*
X116510911Y-103753219D02*
X116701387Y-103753219D01*
X116701387Y-103753219D02*
X116796625Y-103705600D01*
X116796625Y-103705600D02*
X116844244Y-103657980D01*
X116844244Y-103657980D02*
X116891863Y-103562742D01*
X116891863Y-103562742D02*
X116891863Y-102753219D01*
X117225197Y-102753219D02*
X117796625Y-102753219D01*
X117510911Y-103753219D02*
X117510911Y-102753219D01*
X115542816Y-107833219D02*
X115876149Y-108833219D01*
X115876149Y-108833219D02*
X116209482Y-107833219D01*
X116542816Y-108833219D02*
X116542816Y-107833219D01*
X117019006Y-108833219D02*
X117019006Y-107833219D01*
X117019006Y-107833219D02*
X117590434Y-108833219D01*
X117590434Y-108833219D02*
X117590434Y-107833219D01*
X89732780Y-61669673D02*
X90732780Y-61669673D01*
X90732780Y-61669673D02*
X90732780Y-62050625D01*
X90732780Y-62050625D02*
X90685161Y-62145863D01*
X90685161Y-62145863D02*
X90637542Y-62193482D01*
X90637542Y-62193482D02*
X90542304Y-62241101D01*
X90542304Y-62241101D02*
X90399447Y-62241101D01*
X90399447Y-62241101D02*
X90304209Y-62193482D01*
X90304209Y-62193482D02*
X90256590Y-62145863D01*
X90256590Y-62145863D02*
X90208971Y-62050625D01*
X90208971Y-62050625D02*
X90208971Y-61669673D01*
X90399447Y-62669673D02*
X89732780Y-62669673D01*
X90304209Y-62669673D02*
X90351828Y-62717292D01*
X90351828Y-62717292D02*
X90399447Y-62812530D01*
X90399447Y-62812530D02*
X90399447Y-62955387D01*
X90399447Y-62955387D02*
X90351828Y-63050625D01*
X90351828Y-63050625D02*
X90256590Y-63098244D01*
X90256590Y-63098244D02*
X89732780Y-63098244D01*
X89732780Y-63574435D02*
X90732780Y-63574435D01*
X90732780Y-63574435D02*
X90732780Y-63955387D01*
X90732780Y-63955387D02*
X90685161Y-64050625D01*
X90685161Y-64050625D02*
X90637542Y-64098244D01*
X90637542Y-64098244D02*
X90542304Y-64145863D01*
X90542304Y-64145863D02*
X90399447Y-64145863D01*
X90399447Y-64145863D02*
X90304209Y-64098244D01*
X90304209Y-64098244D02*
X90256590Y-64050625D01*
X90256590Y-64050625D02*
X90208971Y-63955387D01*
X90208971Y-63955387D02*
X90208971Y-63574435D01*
X89732780Y-113269673D02*
X90732780Y-113269673D01*
X90732780Y-113269673D02*
X90732780Y-113650625D01*
X90732780Y-113650625D02*
X90685161Y-113745863D01*
X90685161Y-113745863D02*
X90637542Y-113793482D01*
X90637542Y-113793482D02*
X90542304Y-113841101D01*
X90542304Y-113841101D02*
X90399447Y-113841101D01*
X90399447Y-113841101D02*
X90304209Y-113793482D01*
X90304209Y-113793482D02*
X90256590Y-113745863D01*
X90256590Y-113745863D02*
X90208971Y-113650625D01*
X90208971Y-113650625D02*
X90208971Y-113269673D01*
X90399447Y-114269673D02*
X89732780Y-114269673D01*
X90304209Y-114269673D02*
X90351828Y-114317292D01*
X90351828Y-114317292D02*
X90399447Y-114412530D01*
X90399447Y-114412530D02*
X90399447Y-114555387D01*
X90399447Y-114555387D02*
X90351828Y-114650625D01*
X90351828Y-114650625D02*
X90256590Y-114698244D01*
X90256590Y-114698244D02*
X89732780Y-114698244D01*
X89732780Y-115174435D02*
X90732780Y-115174435D01*
X90732780Y-115174435D02*
X90732780Y-115555387D01*
X90732780Y-115555387D02*
X90685161Y-115650625D01*
X90685161Y-115650625D02*
X90637542Y-115698244D01*
X90637542Y-115698244D02*
X90542304Y-115745863D01*
X90542304Y-115745863D02*
X90399447Y-115745863D01*
X90399447Y-115745863D02*
X90304209Y-115698244D01*
X90304209Y-115698244D02*
X90256590Y-115650625D01*
X90256590Y-115650625D02*
X90208971Y-115555387D01*
X90208971Y-115555387D02*
X90208971Y-115174435D01*
X115701482Y-105340838D02*
X115606244Y-105293219D01*
X115606244Y-105293219D02*
X115463387Y-105293219D01*
X115463387Y-105293219D02*
X115320530Y-105340838D01*
X115320530Y-105340838D02*
X115225292Y-105436076D01*
X115225292Y-105436076D02*
X115177673Y-105531314D01*
X115177673Y-105531314D02*
X115130054Y-105721790D01*
X115130054Y-105721790D02*
X115130054Y-105864647D01*
X115130054Y-105864647D02*
X115177673Y-106055123D01*
X115177673Y-106055123D02*
X115225292Y-106150361D01*
X115225292Y-106150361D02*
X115320530Y-106245600D01*
X115320530Y-106245600D02*
X115463387Y-106293219D01*
X115463387Y-106293219D02*
X115558625Y-106293219D01*
X115558625Y-106293219D02*
X115701482Y-106245600D01*
X115701482Y-106245600D02*
X115749101Y-106197980D01*
X115749101Y-106197980D02*
X115749101Y-105864647D01*
X115749101Y-105864647D02*
X115558625Y-105864647D01*
X116177673Y-106293219D02*
X116177673Y-105293219D01*
X116177673Y-105293219D02*
X116749101Y-106293219D01*
X116749101Y-106293219D02*
X116749101Y-105293219D01*
X117225292Y-106293219D02*
X117225292Y-105293219D01*
X117225292Y-105293219D02*
X117463387Y-105293219D01*
X117463387Y-105293219D02*
X117606244Y-105340838D01*
X117606244Y-105340838D02*
X117701482Y-105436076D01*
X117701482Y-105436076D02*
X117749101Y-105531314D01*
X117749101Y-105531314D02*
X117796720Y-105721790D01*
X117796720Y-105721790D02*
X117796720Y-105864647D01*
X117796720Y-105864647D02*
X117749101Y-106055123D01*
X117749101Y-106055123D02*
X117701482Y-106150361D01*
X117701482Y-106150361D02*
X117606244Y-106245600D01*
X117606244Y-106245600D02*
X117463387Y-106293219D01*
X117463387Y-106293219D02*
X117225292Y-106293219D01*
X89732174Y-72069673D02*
X90732174Y-72069673D01*
X90732174Y-72069673D02*
X90732174Y-72450625D01*
X90732174Y-72450625D02*
X90684555Y-72545863D01*
X90684555Y-72545863D02*
X90636936Y-72593482D01*
X90636936Y-72593482D02*
X90541698Y-72641101D01*
X90541698Y-72641101D02*
X90398841Y-72641101D01*
X90398841Y-72641101D02*
X90303603Y-72593482D01*
X90303603Y-72593482D02*
X90255984Y-72545863D01*
X90255984Y-72545863D02*
X90208365Y-72450625D01*
X90208365Y-72450625D02*
X90208365Y-72069673D01*
X90398841Y-73069673D02*
X89732174Y-73069673D01*
X90303603Y-73069673D02*
X90351222Y-73117292D01*
X90351222Y-73117292D02*
X90398841Y-73212530D01*
X90398841Y-73212530D02*
X90398841Y-73355387D01*
X90398841Y-73355387D02*
X90351222Y-73450625D01*
X90351222Y-73450625D02*
X90255984Y-73498244D01*
X90255984Y-73498244D02*
X89732174Y-73498244D01*
X89732174Y-73974435D02*
X90732174Y-73974435D01*
X90732174Y-73974435D02*
X90732174Y-74355387D01*
X90732174Y-74355387D02*
X90684555Y-74450625D01*
X90684555Y-74450625D02*
X90636936Y-74498244D01*
X90636936Y-74498244D02*
X90541698Y-74545863D01*
X90541698Y-74545863D02*
X90398841Y-74545863D01*
X90398841Y-74545863D02*
X90303603Y-74498244D01*
X90303603Y-74498244D02*
X90255984Y-74450625D01*
X90255984Y-74450625D02*
X90208365Y-74355387D01*
X90208365Y-74355387D02*
X90208365Y-73974435D01*
D11*
X95525313Y-117472419D02*
X95858646Y-118472419D01*
X95858646Y-118472419D02*
X96191979Y-117472419D01*
X96525313Y-118472419D02*
X96525313Y-117472419D01*
X97001503Y-118472419D02*
X97001503Y-117472419D01*
X97001503Y-117472419D02*
X97572931Y-118472419D01*
X97572931Y-118472419D02*
X97572931Y-117472419D01*
X98811027Y-118472419D02*
X98811027Y-117805752D01*
X98811027Y-117900990D02*
X98858646Y-117853371D01*
X98858646Y-117853371D02*
X98953884Y-117805752D01*
X98953884Y-117805752D02*
X99096741Y-117805752D01*
X99096741Y-117805752D02*
X99191979Y-117853371D01*
X99191979Y-117853371D02*
X99239598Y-117948609D01*
X99239598Y-117948609D02*
X99239598Y-118472419D01*
X99239598Y-117948609D02*
X99287217Y-117853371D01*
X99287217Y-117853371D02*
X99382455Y-117805752D01*
X99382455Y-117805752D02*
X99525312Y-117805752D01*
X99525312Y-117805752D02*
X99620551Y-117853371D01*
X99620551Y-117853371D02*
X99668170Y-117948609D01*
X99668170Y-117948609D02*
X99668170Y-118472419D01*
X100287217Y-118472419D02*
X100191979Y-118424800D01*
X100191979Y-118424800D02*
X100144360Y-118377180D01*
X100144360Y-118377180D02*
X100096741Y-118281942D01*
X100096741Y-118281942D02*
X100096741Y-117996228D01*
X100096741Y-117996228D02*
X100144360Y-117900990D01*
X100144360Y-117900990D02*
X100191979Y-117853371D01*
X100191979Y-117853371D02*
X100287217Y-117805752D01*
X100287217Y-117805752D02*
X100430074Y-117805752D01*
X100430074Y-117805752D02*
X100525312Y-117853371D01*
X100525312Y-117853371D02*
X100572931Y-117900990D01*
X100572931Y-117900990D02*
X100620550Y-117996228D01*
X100620550Y-117996228D02*
X100620550Y-118281942D01*
X100620550Y-118281942D02*
X100572931Y-118377180D01*
X100572931Y-118377180D02*
X100525312Y-118424800D01*
X100525312Y-118424800D02*
X100430074Y-118472419D01*
X100430074Y-118472419D02*
X100287217Y-118472419D01*
X101477693Y-118472419D02*
X101477693Y-117472419D01*
X101477693Y-118424800D02*
X101382455Y-118472419D01*
X101382455Y-118472419D02*
X101191979Y-118472419D01*
X101191979Y-118472419D02*
X101096741Y-118424800D01*
X101096741Y-118424800D02*
X101049122Y-118377180D01*
X101049122Y-118377180D02*
X101001503Y-118281942D01*
X101001503Y-118281942D02*
X101001503Y-117996228D01*
X101001503Y-117996228D02*
X101049122Y-117900990D01*
X101049122Y-117900990D02*
X101096741Y-117853371D01*
X101096741Y-117853371D02*
X101191979Y-117805752D01*
X101191979Y-117805752D02*
X101382455Y-117805752D01*
X101382455Y-117805752D02*
X101477693Y-117853371D01*
X102382455Y-117805752D02*
X102382455Y-118472419D01*
X101953884Y-117805752D02*
X101953884Y-118329561D01*
X101953884Y-118329561D02*
X102001503Y-118424800D01*
X102001503Y-118424800D02*
X102096741Y-118472419D01*
X102096741Y-118472419D02*
X102239598Y-118472419D01*
X102239598Y-118472419D02*
X102334836Y-118424800D01*
X102334836Y-118424800D02*
X102382455Y-118377180D01*
X103001503Y-118472419D02*
X102906265Y-118424800D01*
X102906265Y-118424800D02*
X102858646Y-118329561D01*
X102858646Y-118329561D02*
X102858646Y-117472419D01*
X103763408Y-118424800D02*
X103668170Y-118472419D01*
X103668170Y-118472419D02*
X103477694Y-118472419D01*
X103477694Y-118472419D02*
X103382456Y-118424800D01*
X103382456Y-118424800D02*
X103334837Y-118329561D01*
X103334837Y-118329561D02*
X103334837Y-117948609D01*
X103334837Y-117948609D02*
X103382456Y-117853371D01*
X103382456Y-117853371D02*
X103477694Y-117805752D01*
X103477694Y-117805752D02*
X103668170Y-117805752D01*
X103668170Y-117805752D02*
X103763408Y-117853371D01*
X103763408Y-117853371D02*
X103811027Y-117948609D01*
X103811027Y-117948609D02*
X103811027Y-118043847D01*
X103811027Y-118043847D02*
X103334837Y-118139085D01*
D10*
X129919600Y-73677945D02*
X129967219Y-73535088D01*
X129967219Y-73535088D02*
X129967219Y-73296993D01*
X129967219Y-73296993D02*
X129919600Y-73201755D01*
X129919600Y-73201755D02*
X129871980Y-73154136D01*
X129871980Y-73154136D02*
X129776742Y-73106517D01*
X129776742Y-73106517D02*
X129681504Y-73106517D01*
X129681504Y-73106517D02*
X129586266Y-73154136D01*
X129586266Y-73154136D02*
X129538647Y-73201755D01*
X129538647Y-73201755D02*
X129491028Y-73296993D01*
X129491028Y-73296993D02*
X129443409Y-73487469D01*
X129443409Y-73487469D02*
X129395790Y-73582707D01*
X129395790Y-73582707D02*
X129348171Y-73630326D01*
X129348171Y-73630326D02*
X129252933Y-73677945D01*
X129252933Y-73677945D02*
X129157695Y-73677945D01*
X129157695Y-73677945D02*
X129062457Y-73630326D01*
X129062457Y-73630326D02*
X129014838Y-73582707D01*
X129014838Y-73582707D02*
X128967219Y-73487469D01*
X128967219Y-73487469D02*
X128967219Y-73249374D01*
X128967219Y-73249374D02*
X129014838Y-73106517D01*
X129967219Y-72677945D02*
X128967219Y-72677945D01*
X128967219Y-72677945D02*
X128967219Y-72296993D01*
X128967219Y-72296993D02*
X129014838Y-72201755D01*
X129014838Y-72201755D02*
X129062457Y-72154136D01*
X129062457Y-72154136D02*
X129157695Y-72106517D01*
X129157695Y-72106517D02*
X129300552Y-72106517D01*
X129300552Y-72106517D02*
X129395790Y-72154136D01*
X129395790Y-72154136D02*
X129443409Y-72201755D01*
X129443409Y-72201755D02*
X129491028Y-72296993D01*
X129491028Y-72296993D02*
X129491028Y-72677945D01*
X129967219Y-71677945D02*
X128967219Y-71677945D01*
D12*
X125425912Y-113148856D02*
X126925912Y-112648856D01*
X126925912Y-112648856D02*
X125425912Y-112148856D01*
X126925912Y-111648857D02*
X125425912Y-111648857D01*
X126925912Y-110934571D02*
X125425912Y-110934571D01*
X125425912Y-110934571D02*
X126925912Y-110077428D01*
X126925912Y-110077428D02*
X125425912Y-110077428D01*
X128769400Y-114148857D02*
X128769400Y-113006000D01*
X129340828Y-113577428D02*
X128197971Y-113577428D01*
X128769400Y-110006000D02*
X128769400Y-108863143D01*
D10*
X126393712Y-63177945D02*
X126441331Y-63035088D01*
X126441331Y-63035088D02*
X126441331Y-62796993D01*
X126441331Y-62796993D02*
X126393712Y-62701755D01*
X126393712Y-62701755D02*
X126346092Y-62654136D01*
X126346092Y-62654136D02*
X126250854Y-62606517D01*
X126250854Y-62606517D02*
X126155616Y-62606517D01*
X126155616Y-62606517D02*
X126060378Y-62654136D01*
X126060378Y-62654136D02*
X126012759Y-62701755D01*
X126012759Y-62701755D02*
X125965140Y-62796993D01*
X125965140Y-62796993D02*
X125917521Y-62987469D01*
X125917521Y-62987469D02*
X125869902Y-63082707D01*
X125869902Y-63082707D02*
X125822283Y-63130326D01*
X125822283Y-63130326D02*
X125727045Y-63177945D01*
X125727045Y-63177945D02*
X125631807Y-63177945D01*
X125631807Y-63177945D02*
X125536569Y-63130326D01*
X125536569Y-63130326D02*
X125488950Y-63082707D01*
X125488950Y-63082707D02*
X125441331Y-62987469D01*
X125441331Y-62987469D02*
X125441331Y-62749374D01*
X125441331Y-62749374D02*
X125488950Y-62606517D01*
X125774664Y-62320802D02*
X125774664Y-61939850D01*
X125441331Y-62177945D02*
X126298473Y-62177945D01*
X126298473Y-62177945D02*
X126393712Y-62130326D01*
X126393712Y-62130326D02*
X126441331Y-62035088D01*
X126441331Y-62035088D02*
X126441331Y-61939850D01*
X126441331Y-61177945D02*
X125917521Y-61177945D01*
X125917521Y-61177945D02*
X125822283Y-61225564D01*
X125822283Y-61225564D02*
X125774664Y-61320802D01*
X125774664Y-61320802D02*
X125774664Y-61511278D01*
X125774664Y-61511278D02*
X125822283Y-61606516D01*
X126393712Y-61177945D02*
X126441331Y-61273183D01*
X126441331Y-61273183D02*
X126441331Y-61511278D01*
X126441331Y-61511278D02*
X126393712Y-61606516D01*
X126393712Y-61606516D02*
X126298473Y-61654135D01*
X126298473Y-61654135D02*
X126203235Y-61654135D01*
X126203235Y-61654135D02*
X126107997Y-61606516D01*
X126107997Y-61606516D02*
X126060378Y-61511278D01*
X126060378Y-61511278D02*
X126060378Y-61273183D01*
X126060378Y-61273183D02*
X126012759Y-61177945D01*
X125774664Y-60844611D02*
X125774664Y-60463659D01*
X125441331Y-60701754D02*
X126298473Y-60701754D01*
X126298473Y-60701754D02*
X126393712Y-60654135D01*
X126393712Y-60654135D02*
X126441331Y-60558897D01*
X126441331Y-60558897D02*
X126441331Y-60463659D01*
X125774664Y-59701754D02*
X126441331Y-59701754D01*
X125774664Y-60130325D02*
X126298473Y-60130325D01*
X126298473Y-60130325D02*
X126393712Y-60082706D01*
X126393712Y-60082706D02*
X126441331Y-59987468D01*
X126441331Y-59987468D02*
X126441331Y-59844611D01*
X126441331Y-59844611D02*
X126393712Y-59749373D01*
X126393712Y-59749373D02*
X126346092Y-59701754D01*
X126393712Y-59273182D02*
X126441331Y-59177944D01*
X126441331Y-59177944D02*
X126441331Y-58987468D01*
X126441331Y-58987468D02*
X126393712Y-58892230D01*
X126393712Y-58892230D02*
X126298473Y-58844611D01*
X126298473Y-58844611D02*
X126250854Y-58844611D01*
X126250854Y-58844611D02*
X126155616Y-58892230D01*
X126155616Y-58892230D02*
X126107997Y-58987468D01*
X126107997Y-58987468D02*
X126107997Y-59130325D01*
X126107997Y-59130325D02*
X126060378Y-59225563D01*
X126060378Y-59225563D02*
X125965140Y-59273182D01*
X125965140Y-59273182D02*
X125917521Y-59273182D01*
X125917521Y-59273182D02*
X125822283Y-59225563D01*
X125822283Y-59225563D02*
X125774664Y-59130325D01*
X125774664Y-59130325D02*
X125774664Y-58987468D01*
X125774664Y-58987468D02*
X125822283Y-58892230D01*
X128051275Y-61892231D02*
X128051275Y-62368421D01*
X128051275Y-62368421D02*
X127051275Y-62368421D01*
X127527465Y-61558897D02*
X127527465Y-61225564D01*
X128051275Y-61082707D02*
X128051275Y-61558897D01*
X128051275Y-61558897D02*
X127051275Y-61558897D01*
X127051275Y-61558897D02*
X127051275Y-61082707D01*
X128051275Y-60654135D02*
X127051275Y-60654135D01*
X127051275Y-60654135D02*
X127051275Y-60416040D01*
X127051275Y-60416040D02*
X127098894Y-60273183D01*
X127098894Y-60273183D02*
X127194132Y-60177945D01*
X127194132Y-60177945D02*
X127289370Y-60130326D01*
X127289370Y-60130326D02*
X127479846Y-60082707D01*
X127479846Y-60082707D02*
X127622703Y-60082707D01*
X127622703Y-60082707D02*
X127813179Y-60130326D01*
X127813179Y-60130326D02*
X127908417Y-60177945D01*
X127908417Y-60177945D02*
X128003656Y-60273183D01*
X128003656Y-60273183D02*
X128051275Y-60416040D01*
X128051275Y-60416040D02*
X128051275Y-60654135D01*
X129280266Y-63130326D02*
X129280266Y-62368422D01*
X129661219Y-62749374D02*
X128899314Y-62749374D01*
X129280266Y-60368421D02*
X129280266Y-59606517D01*
X112598089Y-58219400D02*
X112455232Y-58171780D01*
X112455232Y-58171780D02*
X112217137Y-58171780D01*
X112217137Y-58171780D02*
X112121899Y-58219400D01*
X112121899Y-58219400D02*
X112074280Y-58267019D01*
X112074280Y-58267019D02*
X112026661Y-58362257D01*
X112026661Y-58362257D02*
X112026661Y-58457495D01*
X112026661Y-58457495D02*
X112074280Y-58552733D01*
X112074280Y-58552733D02*
X112121899Y-58600352D01*
X112121899Y-58600352D02*
X112217137Y-58647971D01*
X112217137Y-58647971D02*
X112407613Y-58695590D01*
X112407613Y-58695590D02*
X112502851Y-58743209D01*
X112502851Y-58743209D02*
X112550470Y-58790828D01*
X112550470Y-58790828D02*
X112598089Y-58886066D01*
X112598089Y-58886066D02*
X112598089Y-58981304D01*
X112598089Y-58981304D02*
X112550470Y-59076542D01*
X112550470Y-59076542D02*
X112502851Y-59124161D01*
X112502851Y-59124161D02*
X112407613Y-59171780D01*
X112407613Y-59171780D02*
X112169518Y-59171780D01*
X112169518Y-59171780D02*
X112026661Y-59124161D01*
X111740946Y-58838447D02*
X111359994Y-58838447D01*
X111598089Y-59171780D02*
X111598089Y-58314638D01*
X111598089Y-58314638D02*
X111550470Y-58219400D01*
X111550470Y-58219400D02*
X111455232Y-58171780D01*
X111455232Y-58171780D02*
X111359994Y-58171780D01*
X110598089Y-58171780D02*
X110598089Y-58695590D01*
X110598089Y-58695590D02*
X110645708Y-58790828D01*
X110645708Y-58790828D02*
X110740946Y-58838447D01*
X110740946Y-58838447D02*
X110931422Y-58838447D01*
X110931422Y-58838447D02*
X111026660Y-58790828D01*
X110598089Y-58219400D02*
X110693327Y-58171780D01*
X110693327Y-58171780D02*
X110931422Y-58171780D01*
X110931422Y-58171780D02*
X111026660Y-58219400D01*
X111026660Y-58219400D02*
X111074279Y-58314638D01*
X111074279Y-58314638D02*
X111074279Y-58409876D01*
X111074279Y-58409876D02*
X111026660Y-58505114D01*
X111026660Y-58505114D02*
X110931422Y-58552733D01*
X110931422Y-58552733D02*
X110693327Y-58552733D01*
X110693327Y-58552733D02*
X110598089Y-58600352D01*
X110264755Y-58838447D02*
X109883803Y-58838447D01*
X110121898Y-59171780D02*
X110121898Y-58314638D01*
X110121898Y-58314638D02*
X110074279Y-58219400D01*
X110074279Y-58219400D02*
X109979041Y-58171780D01*
X109979041Y-58171780D02*
X109883803Y-58171780D01*
X109121898Y-58838447D02*
X109121898Y-58171780D01*
X109550469Y-58838447D02*
X109550469Y-58314638D01*
X109550469Y-58314638D02*
X109502850Y-58219400D01*
X109502850Y-58219400D02*
X109407612Y-58171780D01*
X109407612Y-58171780D02*
X109264755Y-58171780D01*
X109264755Y-58171780D02*
X109169517Y-58219400D01*
X109169517Y-58219400D02*
X109121898Y-58267019D01*
X108693326Y-58219400D02*
X108598088Y-58171780D01*
X108598088Y-58171780D02*
X108407612Y-58171780D01*
X108407612Y-58171780D02*
X108312374Y-58219400D01*
X108312374Y-58219400D02*
X108264755Y-58314638D01*
X108264755Y-58314638D02*
X108264755Y-58362257D01*
X108264755Y-58362257D02*
X108312374Y-58457495D01*
X108312374Y-58457495D02*
X108407612Y-58505114D01*
X108407612Y-58505114D02*
X108550469Y-58505114D01*
X108550469Y-58505114D02*
X108645707Y-58552733D01*
X108645707Y-58552733D02*
X108693326Y-58647971D01*
X108693326Y-58647971D02*
X108693326Y-58695590D01*
X108693326Y-58695590D02*
X108645707Y-58790828D01*
X108645707Y-58790828D02*
X108550469Y-58838447D01*
X108550469Y-58838447D02*
X108407612Y-58838447D01*
X108407612Y-58838447D02*
X108312374Y-58790828D01*
X130067219Y-92530326D02*
X129067219Y-92530326D01*
X129067219Y-92530326D02*
X129067219Y-92149374D01*
X129067219Y-92149374D02*
X129114838Y-92054136D01*
X129114838Y-92054136D02*
X129162457Y-92006517D01*
X129162457Y-92006517D02*
X129257695Y-91958898D01*
X129257695Y-91958898D02*
X129400552Y-91958898D01*
X129400552Y-91958898D02*
X129495790Y-92006517D01*
X129495790Y-92006517D02*
X129543409Y-92054136D01*
X129543409Y-92054136D02*
X129591028Y-92149374D01*
X129591028Y-92149374D02*
X129591028Y-92530326D01*
X129400552Y-91530326D02*
X130067219Y-91530326D01*
X129495790Y-91530326D02*
X129448171Y-91482707D01*
X129448171Y-91482707D02*
X129400552Y-91387469D01*
X129400552Y-91387469D02*
X129400552Y-91244612D01*
X129400552Y-91244612D02*
X129448171Y-91149374D01*
X129448171Y-91149374D02*
X129543409Y-91101755D01*
X129543409Y-91101755D02*
X130067219Y-91101755D01*
X130067219Y-90625564D02*
X129067219Y-90625564D01*
X129067219Y-90625564D02*
X129067219Y-90244612D01*
X129067219Y-90244612D02*
X129114838Y-90149374D01*
X129114838Y-90149374D02*
X129162457Y-90101755D01*
X129162457Y-90101755D02*
X129257695Y-90054136D01*
X129257695Y-90054136D02*
X129400552Y-90054136D01*
X129400552Y-90054136D02*
X129495790Y-90101755D01*
X129495790Y-90101755D02*
X129543409Y-90149374D01*
X129543409Y-90149374D02*
X129591028Y-90244612D01*
X129591028Y-90244612D02*
X129591028Y-90625564D01*
X89795280Y-102997673D02*
X90795280Y-102997673D01*
X90795280Y-102997673D02*
X90795280Y-103378625D01*
X90795280Y-103378625D02*
X90747661Y-103473863D01*
X90747661Y-103473863D02*
X90700042Y-103521482D01*
X90700042Y-103521482D02*
X90604804Y-103569101D01*
X90604804Y-103569101D02*
X90461947Y-103569101D01*
X90461947Y-103569101D02*
X90366709Y-103521482D01*
X90366709Y-103521482D02*
X90319090Y-103473863D01*
X90319090Y-103473863D02*
X90271471Y-103378625D01*
X90271471Y-103378625D02*
X90271471Y-102997673D01*
X90461947Y-103997673D02*
X89795280Y-103997673D01*
X90366709Y-103997673D02*
X90414328Y-104045292D01*
X90414328Y-104045292D02*
X90461947Y-104140530D01*
X90461947Y-104140530D02*
X90461947Y-104283387D01*
X90461947Y-104283387D02*
X90414328Y-104378625D01*
X90414328Y-104378625D02*
X90319090Y-104426244D01*
X90319090Y-104426244D02*
X89795280Y-104426244D01*
X89795280Y-104902435D02*
X90795280Y-104902435D01*
X90795280Y-104902435D02*
X90795280Y-105283387D01*
X90795280Y-105283387D02*
X90747661Y-105378625D01*
X90747661Y-105378625D02*
X90700042Y-105426244D01*
X90700042Y-105426244D02*
X90604804Y-105473863D01*
X90604804Y-105473863D02*
X90461947Y-105473863D01*
X90461947Y-105473863D02*
X90366709Y-105426244D01*
X90366709Y-105426244D02*
X90319090Y-105378625D01*
X90319090Y-105378625D02*
X90271471Y-105283387D01*
X90271471Y-105283387D02*
X90271471Y-104902435D01*
X128967219Y-83630326D02*
X129776742Y-83630326D01*
X129776742Y-83630326D02*
X129871980Y-83582707D01*
X129871980Y-83582707D02*
X129919600Y-83535088D01*
X129919600Y-83535088D02*
X129967219Y-83439850D01*
X129967219Y-83439850D02*
X129967219Y-83249374D01*
X129967219Y-83249374D02*
X129919600Y-83154136D01*
X129919600Y-83154136D02*
X129871980Y-83106517D01*
X129871980Y-83106517D02*
X129776742Y-83058898D01*
X129776742Y-83058898D02*
X128967219Y-83058898D01*
X129681504Y-82630326D02*
X129681504Y-82154136D01*
X129967219Y-82725564D02*
X128967219Y-82392231D01*
X128967219Y-82392231D02*
X129967219Y-82058898D01*
X129967219Y-81154136D02*
X129491028Y-81487469D01*
X129967219Y-81725564D02*
X128967219Y-81725564D01*
X128967219Y-81725564D02*
X128967219Y-81344612D01*
X128967219Y-81344612D02*
X129014838Y-81249374D01*
X129014838Y-81249374D02*
X129062457Y-81201755D01*
X129062457Y-81201755D02*
X129157695Y-81154136D01*
X129157695Y-81154136D02*
X129300552Y-81154136D01*
X129300552Y-81154136D02*
X129395790Y-81201755D01*
X129395790Y-81201755D02*
X129443409Y-81249374D01*
X129443409Y-81249374D02*
X129491028Y-81344612D01*
X129491028Y-81344612D02*
X129491028Y-81725564D01*
X128967219Y-80868421D02*
X128967219Y-80296993D01*
X129967219Y-80582707D02*
X128967219Y-80582707D01*
D11*
X112317884Y-115442419D02*
X112317884Y-114442419D01*
X112317884Y-114442419D02*
X112698836Y-114442419D01*
X112698836Y-114442419D02*
X112794074Y-114490038D01*
X112794074Y-114490038D02*
X112841693Y-114537657D01*
X112841693Y-114537657D02*
X112889312Y-114632895D01*
X112889312Y-114632895D02*
X112889312Y-114775752D01*
X112889312Y-114775752D02*
X112841693Y-114870990D01*
X112841693Y-114870990D02*
X112794074Y-114918609D01*
X112794074Y-114918609D02*
X112698836Y-114966228D01*
X112698836Y-114966228D02*
X112317884Y-114966228D01*
X113460741Y-115442419D02*
X113365503Y-115394800D01*
X113365503Y-115394800D02*
X113317884Y-115347180D01*
X113317884Y-115347180D02*
X113270265Y-115251942D01*
X113270265Y-115251942D02*
X113270265Y-114966228D01*
X113270265Y-114966228D02*
X113317884Y-114870990D01*
X113317884Y-114870990D02*
X113365503Y-114823371D01*
X113365503Y-114823371D02*
X113460741Y-114775752D01*
X113460741Y-114775752D02*
X113603598Y-114775752D01*
X113603598Y-114775752D02*
X113698836Y-114823371D01*
X113698836Y-114823371D02*
X113746455Y-114870990D01*
X113746455Y-114870990D02*
X113794074Y-114966228D01*
X113794074Y-114966228D02*
X113794074Y-115251942D01*
X113794074Y-115251942D02*
X113746455Y-115347180D01*
X113746455Y-115347180D02*
X113698836Y-115394800D01*
X113698836Y-115394800D02*
X113603598Y-115442419D01*
X113603598Y-115442419D02*
X113460741Y-115442419D01*
X114127408Y-114775752D02*
X114317884Y-115442419D01*
X114317884Y-115442419D02*
X114508360Y-114966228D01*
X114508360Y-114966228D02*
X114698836Y-115442419D01*
X114698836Y-115442419D02*
X114889312Y-114775752D01*
X115651217Y-115394800D02*
X115555979Y-115442419D01*
X115555979Y-115442419D02*
X115365503Y-115442419D01*
X115365503Y-115442419D02*
X115270265Y-115394800D01*
X115270265Y-115394800D02*
X115222646Y-115299561D01*
X115222646Y-115299561D02*
X115222646Y-114918609D01*
X115222646Y-114918609D02*
X115270265Y-114823371D01*
X115270265Y-114823371D02*
X115365503Y-114775752D01*
X115365503Y-114775752D02*
X115555979Y-114775752D01*
X115555979Y-114775752D02*
X115651217Y-114823371D01*
X115651217Y-114823371D02*
X115698836Y-114918609D01*
X115698836Y-114918609D02*
X115698836Y-115013847D01*
X115698836Y-115013847D02*
X115222646Y-115109085D01*
X116127408Y-115442419D02*
X116127408Y-114775752D01*
X116127408Y-114966228D02*
X116175027Y-114870990D01*
X116175027Y-114870990D02*
X116222646Y-114823371D01*
X116222646Y-114823371D02*
X116317884Y-114775752D01*
X116317884Y-114775752D02*
X116413122Y-114775752D01*
X117936932Y-115394800D02*
X117841694Y-115442419D01*
X117841694Y-115442419D02*
X117651218Y-115442419D01*
X117651218Y-115442419D02*
X117555980Y-115394800D01*
X117555980Y-115394800D02*
X117508361Y-115347180D01*
X117508361Y-115347180D02*
X117460742Y-115251942D01*
X117460742Y-115251942D02*
X117460742Y-114966228D01*
X117460742Y-114966228D02*
X117508361Y-114870990D01*
X117508361Y-114870990D02*
X117555980Y-114823371D01*
X117555980Y-114823371D02*
X117651218Y-114775752D01*
X117651218Y-114775752D02*
X117841694Y-114775752D01*
X117841694Y-114775752D02*
X117936932Y-114823371D01*
X118508361Y-115442419D02*
X118413123Y-115394800D01*
X118413123Y-115394800D02*
X118365504Y-115347180D01*
X118365504Y-115347180D02*
X118317885Y-115251942D01*
X118317885Y-115251942D02*
X118317885Y-114966228D01*
X118317885Y-114966228D02*
X118365504Y-114870990D01*
X118365504Y-114870990D02*
X118413123Y-114823371D01*
X118413123Y-114823371D02*
X118508361Y-114775752D01*
X118508361Y-114775752D02*
X118651218Y-114775752D01*
X118651218Y-114775752D02*
X118746456Y-114823371D01*
X118746456Y-114823371D02*
X118794075Y-114870990D01*
X118794075Y-114870990D02*
X118841694Y-114966228D01*
X118841694Y-114966228D02*
X118841694Y-115251942D01*
X118841694Y-115251942D02*
X118794075Y-115347180D01*
X118794075Y-115347180D02*
X118746456Y-115394800D01*
X118746456Y-115394800D02*
X118651218Y-115442419D01*
X118651218Y-115442419D02*
X118508361Y-115442419D01*
X119270266Y-114775752D02*
X119270266Y-115442419D01*
X119270266Y-114870990D02*
X119317885Y-114823371D01*
X119317885Y-114823371D02*
X119413123Y-114775752D01*
X119413123Y-114775752D02*
X119555980Y-114775752D01*
X119555980Y-114775752D02*
X119651218Y-114823371D01*
X119651218Y-114823371D02*
X119698837Y-114918609D01*
X119698837Y-114918609D02*
X119698837Y-115442419D01*
X120079790Y-114775752D02*
X120317885Y-115442419D01*
X120317885Y-115442419D02*
X120555980Y-114775752D01*
X121317885Y-115394800D02*
X121222647Y-115442419D01*
X121222647Y-115442419D02*
X121032171Y-115442419D01*
X121032171Y-115442419D02*
X120936933Y-115394800D01*
X120936933Y-115394800D02*
X120889314Y-115299561D01*
X120889314Y-115299561D02*
X120889314Y-114918609D01*
X120889314Y-114918609D02*
X120936933Y-114823371D01*
X120936933Y-114823371D02*
X121032171Y-114775752D01*
X121032171Y-114775752D02*
X121222647Y-114775752D01*
X121222647Y-114775752D02*
X121317885Y-114823371D01*
X121317885Y-114823371D02*
X121365504Y-114918609D01*
X121365504Y-114918609D02*
X121365504Y-115013847D01*
X121365504Y-115013847D02*
X120889314Y-115109085D01*
X121794076Y-115442419D02*
X121794076Y-114775752D01*
X121794076Y-114966228D02*
X121841695Y-114870990D01*
X121841695Y-114870990D02*
X121889314Y-114823371D01*
X121889314Y-114823371D02*
X121984552Y-114775752D01*
X121984552Y-114775752D02*
X122079790Y-114775752D01*
X122270267Y-114775752D02*
X122651219Y-114775752D01*
X122413124Y-114442419D02*
X122413124Y-115299561D01*
X122413124Y-115299561D02*
X122460743Y-115394800D01*
X122460743Y-115394800D02*
X122555981Y-115442419D01*
X122555981Y-115442419D02*
X122651219Y-115442419D01*
X123365505Y-115394800D02*
X123270267Y-115442419D01*
X123270267Y-115442419D02*
X123079791Y-115442419D01*
X123079791Y-115442419D02*
X122984553Y-115394800D01*
X122984553Y-115394800D02*
X122936934Y-115299561D01*
X122936934Y-115299561D02*
X122936934Y-114918609D01*
X122936934Y-114918609D02*
X122984553Y-114823371D01*
X122984553Y-114823371D02*
X123079791Y-114775752D01*
X123079791Y-114775752D02*
X123270267Y-114775752D01*
X123270267Y-114775752D02*
X123365505Y-114823371D01*
X123365505Y-114823371D02*
X123413124Y-114918609D01*
X123413124Y-114918609D02*
X123413124Y-115013847D01*
X123413124Y-115013847D02*
X122936934Y-115109085D01*
X123841696Y-115442419D02*
X123841696Y-114775752D01*
X123841696Y-114966228D02*
X123889315Y-114870990D01*
X123889315Y-114870990D02*
X123936934Y-114823371D01*
X123936934Y-114823371D02*
X124032172Y-114775752D01*
X124032172Y-114775752D02*
X124127410Y-114775752D01*
D10*
X94850089Y-58171780D02*
X95183422Y-58647971D01*
X95421517Y-58171780D02*
X95421517Y-59171780D01*
X95421517Y-59171780D02*
X95040565Y-59171780D01*
X95040565Y-59171780D02*
X94945327Y-59124161D01*
X94945327Y-59124161D02*
X94897708Y-59076542D01*
X94897708Y-59076542D02*
X94850089Y-58981304D01*
X94850089Y-58981304D02*
X94850089Y-58838447D01*
X94850089Y-58838447D02*
X94897708Y-58743209D01*
X94897708Y-58743209D02*
X94945327Y-58695590D01*
X94945327Y-58695590D02*
X95040565Y-58647971D01*
X95040565Y-58647971D02*
X95421517Y-58647971D01*
X94516755Y-59171780D02*
X93850089Y-58171780D01*
X93850089Y-59171780D02*
X94516755Y-58171780D01*
X89732780Y-92653673D02*
X90732780Y-92653673D01*
X90732780Y-92653673D02*
X90732780Y-93034625D01*
X90732780Y-93034625D02*
X90685161Y-93129863D01*
X90685161Y-93129863D02*
X90637542Y-93177482D01*
X90637542Y-93177482D02*
X90542304Y-93225101D01*
X90542304Y-93225101D02*
X90399447Y-93225101D01*
X90399447Y-93225101D02*
X90304209Y-93177482D01*
X90304209Y-93177482D02*
X90256590Y-93129863D01*
X90256590Y-93129863D02*
X90208971Y-93034625D01*
X90208971Y-93034625D02*
X90208971Y-92653673D01*
X90399447Y-93653673D02*
X89732780Y-93653673D01*
X90304209Y-93653673D02*
X90351828Y-93701292D01*
X90351828Y-93701292D02*
X90399447Y-93796530D01*
X90399447Y-93796530D02*
X90399447Y-93939387D01*
X90399447Y-93939387D02*
X90351828Y-94034625D01*
X90351828Y-94034625D02*
X90256590Y-94082244D01*
X90256590Y-94082244D02*
X89732780Y-94082244D01*
X89732780Y-94558435D02*
X90732780Y-94558435D01*
X90732780Y-94558435D02*
X90732780Y-94939387D01*
X90732780Y-94939387D02*
X90685161Y-95034625D01*
X90685161Y-95034625D02*
X90637542Y-95082244D01*
X90637542Y-95082244D02*
X90542304Y-95129863D01*
X90542304Y-95129863D02*
X90399447Y-95129863D01*
X90399447Y-95129863D02*
X90304209Y-95082244D01*
X90304209Y-95082244D02*
X90256590Y-95034625D01*
X90256590Y-95034625D02*
X90208971Y-94939387D01*
X90208971Y-94939387D02*
X90208971Y-94558435D01*
X89583780Y-82453673D02*
X90583780Y-82453673D01*
X90583780Y-82453673D02*
X90583780Y-82834625D01*
X90583780Y-82834625D02*
X90536161Y-82929863D01*
X90536161Y-82929863D02*
X90488542Y-82977482D01*
X90488542Y-82977482D02*
X90393304Y-83025101D01*
X90393304Y-83025101D02*
X90250447Y-83025101D01*
X90250447Y-83025101D02*
X90155209Y-82977482D01*
X90155209Y-82977482D02*
X90107590Y-82929863D01*
X90107590Y-82929863D02*
X90059971Y-82834625D01*
X90059971Y-82834625D02*
X90059971Y-82453673D01*
X90250447Y-83453673D02*
X89583780Y-83453673D01*
X90155209Y-83453673D02*
X90202828Y-83501292D01*
X90202828Y-83501292D02*
X90250447Y-83596530D01*
X90250447Y-83596530D02*
X90250447Y-83739387D01*
X90250447Y-83739387D02*
X90202828Y-83834625D01*
X90202828Y-83834625D02*
X90107590Y-83882244D01*
X90107590Y-83882244D02*
X89583780Y-83882244D01*
X89583780Y-84358435D02*
X90583780Y-84358435D01*
X90583780Y-84358435D02*
X90583780Y-84739387D01*
X90583780Y-84739387D02*
X90536161Y-84834625D01*
X90536161Y-84834625D02*
X90488542Y-84882244D01*
X90488542Y-84882244D02*
X90393304Y-84929863D01*
X90393304Y-84929863D02*
X90250447Y-84929863D01*
X90250447Y-84929863D02*
X90155209Y-84882244D01*
X90155209Y-84882244D02*
X90107590Y-84834625D01*
X90107590Y-84834625D02*
X90059971Y-84739387D01*
X90059971Y-84739387D02*
X90059971Y-84358435D01*
D11*
X116025313Y-117472419D02*
X116358646Y-118472419D01*
X116358646Y-118472419D02*
X116691979Y-117472419D01*
X117025313Y-118472419D02*
X117025313Y-117472419D01*
X117501503Y-118472419D02*
X117501503Y-117472419D01*
X117501503Y-117472419D02*
X118072931Y-118472419D01*
X118072931Y-118472419D02*
X118072931Y-117472419D01*
X119311027Y-118472419D02*
X119311027Y-117805752D01*
X119311027Y-117900990D02*
X119358646Y-117853371D01*
X119358646Y-117853371D02*
X119453884Y-117805752D01*
X119453884Y-117805752D02*
X119596741Y-117805752D01*
X119596741Y-117805752D02*
X119691979Y-117853371D01*
X119691979Y-117853371D02*
X119739598Y-117948609D01*
X119739598Y-117948609D02*
X119739598Y-118472419D01*
X119739598Y-117948609D02*
X119787217Y-117853371D01*
X119787217Y-117853371D02*
X119882455Y-117805752D01*
X119882455Y-117805752D02*
X120025312Y-117805752D01*
X120025312Y-117805752D02*
X120120551Y-117853371D01*
X120120551Y-117853371D02*
X120168170Y-117948609D01*
X120168170Y-117948609D02*
X120168170Y-118472419D01*
X120787217Y-118472419D02*
X120691979Y-118424800D01*
X120691979Y-118424800D02*
X120644360Y-118377180D01*
X120644360Y-118377180D02*
X120596741Y-118281942D01*
X120596741Y-118281942D02*
X120596741Y-117996228D01*
X120596741Y-117996228D02*
X120644360Y-117900990D01*
X120644360Y-117900990D02*
X120691979Y-117853371D01*
X120691979Y-117853371D02*
X120787217Y-117805752D01*
X120787217Y-117805752D02*
X120930074Y-117805752D01*
X120930074Y-117805752D02*
X121025312Y-117853371D01*
X121025312Y-117853371D02*
X121072931Y-117900990D01*
X121072931Y-117900990D02*
X121120550Y-117996228D01*
X121120550Y-117996228D02*
X121120550Y-118281942D01*
X121120550Y-118281942D02*
X121072931Y-118377180D01*
X121072931Y-118377180D02*
X121025312Y-118424800D01*
X121025312Y-118424800D02*
X120930074Y-118472419D01*
X120930074Y-118472419D02*
X120787217Y-118472419D01*
X121977693Y-118472419D02*
X121977693Y-117472419D01*
X121977693Y-118424800D02*
X121882455Y-118472419D01*
X121882455Y-118472419D02*
X121691979Y-118472419D01*
X121691979Y-118472419D02*
X121596741Y-118424800D01*
X121596741Y-118424800D02*
X121549122Y-118377180D01*
X121549122Y-118377180D02*
X121501503Y-118281942D01*
X121501503Y-118281942D02*
X121501503Y-117996228D01*
X121501503Y-117996228D02*
X121549122Y-117900990D01*
X121549122Y-117900990D02*
X121596741Y-117853371D01*
X121596741Y-117853371D02*
X121691979Y-117805752D01*
X121691979Y-117805752D02*
X121882455Y-117805752D01*
X121882455Y-117805752D02*
X121977693Y-117853371D01*
X122882455Y-117805752D02*
X122882455Y-118472419D01*
X122453884Y-117805752D02*
X122453884Y-118329561D01*
X122453884Y-118329561D02*
X122501503Y-118424800D01*
X122501503Y-118424800D02*
X122596741Y-118472419D01*
X122596741Y-118472419D02*
X122739598Y-118472419D01*
X122739598Y-118472419D02*
X122834836Y-118424800D01*
X122834836Y-118424800D02*
X122882455Y-118377180D01*
X123501503Y-118472419D02*
X123406265Y-118424800D01*
X123406265Y-118424800D02*
X123358646Y-118329561D01*
X123358646Y-118329561D02*
X123358646Y-117472419D01*
X124263408Y-118424800D02*
X124168170Y-118472419D01*
X124168170Y-118472419D02*
X123977694Y-118472419D01*
X123977694Y-118472419D02*
X123882456Y-118424800D01*
X123882456Y-118424800D02*
X123834837Y-118329561D01*
X123834837Y-118329561D02*
X123834837Y-117948609D01*
X123834837Y-117948609D02*
X123882456Y-117853371D01*
X123882456Y-117853371D02*
X123977694Y-117805752D01*
X123977694Y-117805752D02*
X124168170Y-117805752D01*
X124168170Y-117805752D02*
X124263408Y-117853371D01*
X124263408Y-117853371D02*
X124311027Y-117948609D01*
X124311027Y-117948609D02*
X124311027Y-118043847D01*
X124311027Y-118043847D02*
X123834837Y-118139085D01*
D10*
X130067219Y-102830326D02*
X129067219Y-102830326D01*
X129067219Y-102830326D02*
X129067219Y-102449374D01*
X129067219Y-102449374D02*
X129114838Y-102354136D01*
X129114838Y-102354136D02*
X129162457Y-102306517D01*
X129162457Y-102306517D02*
X129257695Y-102258898D01*
X129257695Y-102258898D02*
X129400552Y-102258898D01*
X129400552Y-102258898D02*
X129495790Y-102306517D01*
X129495790Y-102306517D02*
X129543409Y-102354136D01*
X129543409Y-102354136D02*
X129591028Y-102449374D01*
X129591028Y-102449374D02*
X129591028Y-102830326D01*
X129400552Y-101830326D02*
X130067219Y-101830326D01*
X129495790Y-101830326D02*
X129448171Y-101782707D01*
X129448171Y-101782707D02*
X129400552Y-101687469D01*
X129400552Y-101687469D02*
X129400552Y-101544612D01*
X129400552Y-101544612D02*
X129448171Y-101449374D01*
X129448171Y-101449374D02*
X129543409Y-101401755D01*
X129543409Y-101401755D02*
X130067219Y-101401755D01*
X130067219Y-100925564D02*
X129067219Y-100925564D01*
X129067219Y-100925564D02*
X129067219Y-100544612D01*
X129067219Y-100544612D02*
X129114838Y-100449374D01*
X129114838Y-100449374D02*
X129162457Y-100401755D01*
X129162457Y-100401755D02*
X129257695Y-100354136D01*
X129257695Y-100354136D02*
X129400552Y-100354136D01*
X129400552Y-100354136D02*
X129495790Y-100401755D01*
X129495790Y-100401755D02*
X129543409Y-100449374D01*
X129543409Y-100449374D02*
X129591028Y-100544612D01*
X129591028Y-100544612D02*
X129591028Y-100925564D01*
X103319326Y-59171780D02*
X102747898Y-59171780D01*
X103033612Y-58171780D02*
X103033612Y-59171780D01*
X102509802Y-59171780D02*
X101843136Y-58171780D01*
X101843136Y-59171780D02*
X102509802Y-58171780D01*
D13*
X98200857Y-69588200D02*
X98343714Y-69635819D01*
X98343714Y-69635819D02*
X98581809Y-69635819D01*
X98581809Y-69635819D02*
X98677047Y-69588200D01*
X98677047Y-69588200D02*
X98724666Y-69540580D01*
X98724666Y-69540580D02*
X98772285Y-69445342D01*
X98772285Y-69445342D02*
X98772285Y-69350104D01*
X98772285Y-69350104D02*
X98724666Y-69254866D01*
X98724666Y-69254866D02*
X98677047Y-69207247D01*
X98677047Y-69207247D02*
X98581809Y-69159628D01*
X98581809Y-69159628D02*
X98391333Y-69112009D01*
X98391333Y-69112009D02*
X98296095Y-69064390D01*
X98296095Y-69064390D02*
X98248476Y-69016771D01*
X98248476Y-69016771D02*
X98200857Y-68921533D01*
X98200857Y-68921533D02*
X98200857Y-68826295D01*
X98200857Y-68826295D02*
X98248476Y-68731057D01*
X98248476Y-68731057D02*
X98296095Y-68683438D01*
X98296095Y-68683438D02*
X98391333Y-68635819D01*
X98391333Y-68635819D02*
X98629428Y-68635819D01*
X98629428Y-68635819D02*
X98772285Y-68683438D01*
X99105619Y-68635819D02*
X99343714Y-69635819D01*
X99343714Y-69635819D02*
X99534190Y-68921533D01*
X99534190Y-68921533D02*
X99724666Y-69635819D01*
X99724666Y-69635819D02*
X99962762Y-68635819D01*
X100343714Y-69635819D02*
X100343714Y-68635819D01*
X100343714Y-68635819D02*
X100581809Y-68635819D01*
X100581809Y-68635819D02*
X100724666Y-68683438D01*
X100724666Y-68683438D02*
X100819904Y-68778676D01*
X100819904Y-68778676D02*
X100867523Y-68873914D01*
X100867523Y-68873914D02*
X100915142Y-69064390D01*
X100915142Y-69064390D02*
X100915142Y-69207247D01*
X100915142Y-69207247D02*
X100867523Y-69397723D01*
X100867523Y-69397723D02*
X100819904Y-69492961D01*
X100819904Y-69492961D02*
X100724666Y-69588200D01*
X100724666Y-69588200D02*
X100581809Y-69635819D01*
X100581809Y-69635819D02*
X100343714Y-69635819D01*
X119197618Y-62928819D02*
X118864285Y-62452628D01*
X118626190Y-62928819D02*
X118626190Y-61928819D01*
X118626190Y-61928819D02*
X119007142Y-61928819D01*
X119007142Y-61928819D02*
X119102380Y-61976438D01*
X119102380Y-61976438D02*
X119149999Y-62024057D01*
X119149999Y-62024057D02*
X119197618Y-62119295D01*
X119197618Y-62119295D02*
X119197618Y-62262152D01*
X119197618Y-62262152D02*
X119149999Y-62357390D01*
X119149999Y-62357390D02*
X119102380Y-62405009D01*
X119102380Y-62405009D02*
X119007142Y-62452628D01*
X119007142Y-62452628D02*
X118626190Y-62452628D01*
X119626190Y-62405009D02*
X119959523Y-62405009D01*
X120102380Y-62928819D02*
X119626190Y-62928819D01*
X119626190Y-62928819D02*
X119626190Y-61928819D01*
X119626190Y-61928819D02*
X120102380Y-61928819D01*
X120483333Y-62881200D02*
X120626190Y-62928819D01*
X120626190Y-62928819D02*
X120864285Y-62928819D01*
X120864285Y-62928819D02*
X120959523Y-62881200D01*
X120959523Y-62881200D02*
X121007142Y-62833580D01*
X121007142Y-62833580D02*
X121054761Y-62738342D01*
X121054761Y-62738342D02*
X121054761Y-62643104D01*
X121054761Y-62643104D02*
X121007142Y-62547866D01*
X121007142Y-62547866D02*
X120959523Y-62500247D01*
X120959523Y-62500247D02*
X120864285Y-62452628D01*
X120864285Y-62452628D02*
X120673809Y-62405009D01*
X120673809Y-62405009D02*
X120578571Y-62357390D01*
X120578571Y-62357390D02*
X120530952Y-62309771D01*
X120530952Y-62309771D02*
X120483333Y-62214533D01*
X120483333Y-62214533D02*
X120483333Y-62119295D01*
X120483333Y-62119295D02*
X120530952Y-62024057D01*
X120530952Y-62024057D02*
X120578571Y-61976438D01*
X120578571Y-61976438D02*
X120673809Y-61928819D01*
X120673809Y-61928819D02*
X120911904Y-61928819D01*
X120911904Y-61928819D02*
X121054761Y-61976438D01*
X121483333Y-62405009D02*
X121816666Y-62405009D01*
X121959523Y-62928819D02*
X121483333Y-62928819D01*
X121483333Y-62928819D02*
X121483333Y-61928819D01*
X121483333Y-61928819D02*
X121959523Y-61928819D01*
X122245238Y-61928819D02*
X122816666Y-61928819D01*
X122530952Y-62928819D02*
X122530952Y-61928819D01*
D14*
%TO.C,C14*%
X104761420Y-72896000D02*
X105042580Y-72896000D01*
X104761420Y-73916000D02*
X105042580Y-73916000D01*
%TO.C,U2*%
X114808000Y-92182000D02*
X112858000Y-92182000D01*
X114808000Y-92182000D02*
X116758000Y-92182000D01*
X114808000Y-97302000D02*
X112858000Y-97302000D01*
X114808000Y-97302000D02*
X116758000Y-97302000D01*
X117748000Y-97537000D02*
X117268000Y-97537000D01*
X117508000Y-97207000D01*
X117748000Y-97537000D01*
G36*
X117748000Y-97537000D02*
G01*
X117268000Y-97537000D01*
X117508000Y-97207000D01*
X117748000Y-97537000D01*
G37*
%TO.C,R17*%
X93137258Y-92761500D02*
X92662742Y-92761500D01*
X93137258Y-93806500D02*
X92662742Y-93806500D01*
%TO.C,J12*%
X82966000Y-101060000D02*
X82966000Y-106940000D01*
X84936000Y-99890000D02*
X87436000Y-99890000D01*
X84936000Y-108110000D02*
X87436000Y-108110000D01*
X87436000Y-99890000D02*
X87436000Y-100940000D01*
X87436000Y-100940000D02*
X88426000Y-100940000D01*
X87436000Y-108110000D02*
X87436000Y-107060000D01*
%TO.C,C1*%
X106479420Y-90422000D02*
X106760580Y-90422000D01*
X106479420Y-91442000D02*
X106760580Y-91442000D01*
%TO.C,R11*%
X126587742Y-101727500D02*
X127062258Y-101727500D01*
X126587742Y-102772500D02*
X127062258Y-102772500D01*
%TO.C,J10*%
X132465000Y-97690000D02*
X132465000Y-98740000D01*
X132465000Y-104860000D02*
X131475000Y-104860000D01*
X132465000Y-105910000D02*
X132465000Y-104860000D01*
X134965000Y-97690000D02*
X132465000Y-97690000D01*
X134965000Y-105910000D02*
X132465000Y-105910000D01*
X136935000Y-104740000D02*
X136935000Y-98860000D01*
%TO.C,R7*%
X93137258Y-61777500D02*
X92662742Y-61777500D01*
X93137258Y-62822500D02*
X92662742Y-62822500D01*
%TO.C,R5*%
X126587742Y-91377500D02*
X127062258Y-91377500D01*
X126587742Y-92422500D02*
X127062258Y-92422500D01*
%TO.C,D5*%
X137110000Y-64450000D02*
X131600000Y-64450000D01*
X137110000Y-67750000D02*
X131600000Y-67750000D01*
X137110000Y-67750000D02*
X137110000Y-64450000D01*
%TO.C,JP1*%
X107058000Y-62784000D02*
X107058000Y-62184000D01*
X107758000Y-61484000D02*
X109158000Y-61484000D01*
X109158000Y-63484000D02*
X107758000Y-63484000D01*
X109858000Y-62184000D02*
X109858000Y-62784000D01*
X107058000Y-62184000D02*
G75*
G02*
X107758000Y-61484000I700000J0D01*
G01*
X107758000Y-63484000D02*
G75*
G02*
X107058000Y-62784000I0J700000D01*
G01*
X109158000Y-61484000D02*
G75*
G02*
X109858000Y-62184000I1J-699999D01*
G01*
X109858000Y-62784000D02*
G75*
G02*
X109158000Y-63484000I-699999J-1D01*
G01*
%TO.C,C12*%
X107520000Y-83146580D02*
X107520000Y-82865420D01*
X108540000Y-83146580D02*
X108540000Y-82865420D01*
%TO.C,J8*%
X132465000Y-68790000D02*
X132465000Y-69840000D01*
X132465000Y-75960000D02*
X131475000Y-75960000D01*
X132465000Y-77010000D02*
X132465000Y-75960000D01*
X134965000Y-68790000D02*
X132465000Y-68790000D01*
X134965000Y-77010000D02*
X132465000Y-77010000D01*
X136935000Y-75840000D02*
X136935000Y-69960000D01*
%TO.C,R6*%
X93137258Y-63277500D02*
X92662742Y-63277500D01*
X93137258Y-64322500D02*
X92662742Y-64322500D01*
%TO.C,R14*%
X93137258Y-114877500D02*
X92662742Y-114877500D01*
X93137258Y-115922500D02*
X92662742Y-115922500D01*
D15*
%TO.C,REF\u002A\u002A*%
X98511999Y-49939001D02*
X98512000Y-57589000D01*
X98512000Y-57589000D02*
X101762000Y-57589000D01*
X106212000Y-57589000D02*
X102962000Y-57589000D01*
X106212001Y-49939001D02*
X106212000Y-57589000D01*
D14*
%TO.C,J17*%
X130140000Y-57940000D02*
X130140000Y-58340000D01*
X130380000Y-58180000D02*
X130380000Y-63960000D01*
X130780000Y-57940000D02*
X130140000Y-57940000D01*
X130900000Y-58180000D02*
X130900000Y-63960000D01*
X136000000Y-58180000D02*
X136000000Y-63960000D01*
X137120000Y-58180000D02*
X130380000Y-58180000D01*
X137120000Y-58180000D02*
X137120000Y-63960000D01*
X137120000Y-63960000D02*
X130380000Y-63960000D01*
%TO.C,J9*%
X132465000Y-87390000D02*
X132465000Y-88440000D01*
X132465000Y-94560000D02*
X131475000Y-94560000D01*
X132465000Y-95610000D02*
X132465000Y-94560000D01*
X134965000Y-87390000D02*
X132465000Y-87390000D01*
X134965000Y-95610000D02*
X132465000Y-95610000D01*
X136935000Y-94440000D02*
X136935000Y-88560000D01*
%TO.C,U3*%
X109420000Y-69796000D02*
X109870000Y-69796000D01*
X109420000Y-70246000D02*
X109420000Y-69796000D01*
X109420000Y-76566000D02*
X109420000Y-77016000D01*
X109420000Y-77016000D02*
X109870000Y-77016000D01*
X116640000Y-69796000D02*
X116190000Y-69796000D01*
X116640000Y-70246000D02*
X116640000Y-69796000D01*
X116640000Y-76566000D02*
X116640000Y-77016000D01*
X116640000Y-77016000D02*
X116190000Y-77016000D01*
X109870000Y-77606000D02*
X109400000Y-77946000D01*
X109400000Y-77266000D01*
X109870000Y-77606000D01*
G36*
X109870000Y-77606000D02*
G01*
X109400000Y-77946000D01*
X109400000Y-77266000D01*
X109870000Y-77606000D01*
G37*
D15*
%TO.C,REF\u002A\u002A*%
X106639999Y-49939001D02*
X106640000Y-57589000D01*
X106640000Y-57589000D02*
X109890000Y-57589000D01*
X114340000Y-57589000D02*
X111090000Y-57589000D01*
X114340001Y-49939001D02*
X114340000Y-57589000D01*
D14*
%TO.C,R24*%
X100313258Y-59675500D02*
X99838742Y-59675500D01*
X100313258Y-60720500D02*
X99838742Y-60720500D01*
%TO.C,J3*%
X119828000Y-102618000D02*
X119828000Y-101948000D01*
X119828000Y-107698000D02*
X119828000Y-104138000D01*
X119828000Y-112428000D02*
X119828000Y-109218000D01*
X122488000Y-101948000D02*
X119828000Y-101948000D01*
X122488000Y-105158000D02*
X122488000Y-101948000D01*
X122488000Y-110238000D02*
X122488000Y-106678000D01*
X122488000Y-112428000D02*
X119828000Y-112428000D01*
X122488000Y-112428000D02*
X122488000Y-111758000D01*
X123698000Y-111758000D02*
X122488000Y-111758000D01*
%TO.C,C9*%
X92759420Y-90574000D02*
X93040580Y-90574000D01*
X92759420Y-91594000D02*
X93040580Y-91594000D01*
%TO.C,R19*%
X93137258Y-103005500D02*
X92662742Y-103005500D01*
X93137258Y-104050500D02*
X92662742Y-104050500D01*
%TO.C,R13*%
X93088258Y-82461500D02*
X92613742Y-82461500D01*
X93088258Y-83506500D02*
X92613742Y-83506500D01*
%TO.C,J5*%
X111885000Y-121060000D02*
X111885000Y-120390000D01*
X111885000Y-126140000D02*
X111885000Y-122580000D01*
X111885000Y-131220000D02*
X111885000Y-127660000D01*
X111885000Y-132740000D02*
X110675000Y-132740000D01*
X111885000Y-133410000D02*
X111885000Y-132740000D01*
X114545000Y-120390000D02*
X111885000Y-120390000D01*
X114545000Y-123600000D02*
X114545000Y-120390000D01*
X114545000Y-128680000D02*
X114545000Y-125120000D01*
X114545000Y-133410000D02*
X111885000Y-133410000D01*
X114545000Y-133410000D02*
X114545000Y-130200000D01*
D15*
%TO.C,REF\u002A\u002A*%
X90383999Y-49939001D02*
X90384000Y-57589000D01*
X90384000Y-57589000D02*
X93634000Y-57589000D01*
X98084000Y-57589000D02*
X94834000Y-57589000D01*
X98084001Y-49939001D02*
X98084000Y-57589000D01*
D14*
%TO.C,J16*%
X82966000Y-90760000D02*
X82966000Y-96640000D01*
X84936000Y-89590000D02*
X87436000Y-89590000D01*
X84936000Y-97810000D02*
X87436000Y-97810000D01*
X87436000Y-89590000D02*
X87436000Y-90640000D01*
X87436000Y-90640000D02*
X88426000Y-90640000D01*
X87436000Y-97810000D02*
X87436000Y-96760000D01*
%TO.C,C2*%
X114694580Y-98042000D02*
X114413420Y-98042000D01*
X114694580Y-99062000D02*
X114413420Y-99062000D01*
%TO.C,C10*%
X92759420Y-100918000D02*
X93040580Y-100918000D01*
X92759420Y-101938000D02*
X93040580Y-101938000D01*
%TO.C,R12*%
X93088258Y-83961500D02*
X92613742Y-83961500D01*
X93088258Y-85006500D02*
X92613742Y-85006500D01*
%TO.C,C13*%
X109920000Y-83171580D02*
X109920000Y-82890420D01*
X110940000Y-83171580D02*
X110940000Y-82890420D01*
%TO.C,D4*%
X93499000Y-53489001D02*
X93499000Y-55774001D01*
X93499000Y-55774001D02*
X94969000Y-55774001D01*
X94969000Y-55774001D02*
X94969000Y-53489001D01*
%TO.C,C16*%
X108082920Y-68303000D02*
X108364080Y-68303000D01*
X108082920Y-69323000D02*
X108364080Y-69323000D01*
%TO.C,R25*%
X97265258Y-59675500D02*
X96790742Y-59675500D01*
X97265258Y-60720500D02*
X96790742Y-60720500D01*
%TO.C,J2*%
X118820000Y-49880000D02*
X127980000Y-49880000D01*
X118820000Y-51585000D02*
X118820000Y-49880000D01*
X118820000Y-53595000D02*
X118820000Y-55515000D01*
X127980000Y-49880000D02*
X127980000Y-51585000D01*
X127980000Y-55515000D02*
X127980000Y-53595000D01*
%TO.C,R8*%
X93136652Y-73677500D02*
X92662136Y-73677500D01*
X93136652Y-74722500D02*
X92662136Y-74722500D01*
%TO.C,R9*%
X93136652Y-72177500D02*
X92662136Y-72177500D01*
X93136652Y-73222500D02*
X92662136Y-73222500D01*
%TO.C,R20*%
X104664742Y-71359500D02*
X105139258Y-71359500D01*
X104664742Y-72404500D02*
X105139258Y-72404500D01*
%TO.C,J18*%
X130044000Y-107596000D02*
X137164000Y-107596000D01*
X130044000Y-115416000D02*
X130044000Y-107596000D01*
X130044000Y-115416000D02*
X137164000Y-115416000D01*
X135604000Y-115416000D02*
X135604000Y-107596000D01*
X135664000Y-115656000D02*
X137404000Y-115656000D01*
X137164000Y-115416000D02*
X137164000Y-107596000D01*
X137404000Y-115656000D02*
X137404000Y-114156000D01*
X132071891Y-113863742D02*
G75*
G02*
X132072000Y-112648000I1432109J607742D01*
G01*
X132896258Y-111823891D02*
G75*
G02*
X134112000Y-111824000I607743J-1432112D01*
G01*
X134111742Y-114688109D02*
G75*
G02*
X132896000Y-114688000I-607742J1432109D01*
G01*
X134935385Y-112648413D02*
G75*
G02*
X135059000Y-113256000I-1431385J-607587D01*
G01*
X135059493Y-113228989D02*
G75*
G02*
X134936000Y-113864000I-1555481J-27013D01*
G01*
X135059000Y-109756000D02*
G75*
G02*
X131949000Y-109756000I-1555000J0D01*
G01*
X131949000Y-109756000D02*
G75*
G02*
X135059000Y-109756000I1555000J0D01*
G01*
%TO.C,C8*%
X92734420Y-111190000D02*
X93015580Y-111190000D01*
X92734420Y-112210000D02*
X93015580Y-112210000D01*
%TO.C,R15*%
X93137258Y-113377500D02*
X92662742Y-113377500D01*
X93137258Y-114422500D02*
X92662742Y-114422500D01*
%TO.C,R23*%
X108220742Y-59675500D02*
X108695258Y-59675500D01*
X108220742Y-60720500D02*
X108695258Y-60720500D01*
%TO.C,D3*%
X101627000Y-53489001D02*
X101627000Y-55774001D01*
X101627000Y-55774001D02*
X103097000Y-55774001D01*
X103097000Y-55774001D02*
X103097000Y-53489001D01*
%TO.C,C4*%
X92759420Y-59690000D02*
X93040580Y-59690000D01*
X92759420Y-60710000D02*
X93040580Y-60710000D01*
%TO.C,J1*%
X97793000Y-76651000D02*
X97793000Y-70181000D01*
X98615470Y-70181000D02*
X97793000Y-70181000D01*
X98615470Y-76651000D02*
X97793000Y-76651000D01*
X99433000Y-75249471D02*
X99433000Y-75392529D01*
X99433000Y-76519471D02*
X99433000Y-76651000D01*
X99433000Y-76651000D02*
X99230530Y-76651000D01*
X99629529Y-75196000D02*
X99486471Y-75196000D01*
X99885470Y-70181000D02*
X99230530Y-70181000D01*
X101323000Y-70181000D02*
X100500530Y-70181000D01*
X101323000Y-75196000D02*
X100756471Y-75196000D01*
X101323000Y-75196000D02*
X101323000Y-70181000D01*
X101323000Y-75956000D02*
X101323000Y-76716000D01*
X101323000Y-76716000D02*
X100193000Y-76716000D01*
%TO.C,R2*%
X113204258Y-90409500D02*
X112729742Y-90409500D01*
X113204258Y-91454500D02*
X112729742Y-91454500D01*
%TO.C,J7*%
X132465000Y-79090000D02*
X132465000Y-80140000D01*
X132465000Y-84260000D02*
X131475000Y-84260000D01*
X132465000Y-85310000D02*
X132465000Y-84260000D01*
X134965000Y-79090000D02*
X132465000Y-79090000D01*
X134965000Y-85310000D02*
X132465000Y-85310000D01*
X136935000Y-84140000D02*
X136935000Y-80260000D01*
%TO.C,C7*%
X92710420Y-80374000D02*
X92991580Y-80374000D01*
X92710420Y-81394000D02*
X92991580Y-81394000D01*
%TO.C,U1*%
X104902500Y-92200000D02*
X102702500Y-92200000D01*
X104902500Y-92200000D02*
X107102500Y-92200000D01*
X104902500Y-100270000D02*
X102702500Y-100270000D01*
X104902500Y-100270000D02*
X107102500Y-100270000D01*
X101042500Y-92660000D02*
X100712500Y-92900000D01*
X100712500Y-92420000D01*
X101042500Y-92660000D01*
G36*
X101042500Y-92660000D02*
G01*
X100712500Y-92900000D01*
X100712500Y-92420000D01*
X101042500Y-92660000D01*
G37*
%TO.C,C5*%
X92758814Y-69990000D02*
X93039974Y-69990000D01*
X92758814Y-71010000D02*
X93039974Y-71010000D01*
%TO.C,C17*%
X111620000Y-80721580D02*
X111620000Y-80440420D01*
X112640000Y-80721580D02*
X112640000Y-80440420D01*
%TO.C,C11*%
X130702000Y-117240000D02*
X133052000Y-117240000D01*
X130702000Y-122995563D02*
X130702000Y-117240000D01*
X131766437Y-124060000D02*
X130702000Y-122995563D01*
X131766437Y-124060000D02*
X133052000Y-124060000D01*
X136457563Y-124060000D02*
X135172000Y-124060000D01*
X136457563Y-124060000D02*
X137522000Y-122995563D01*
X137522000Y-117240000D02*
X135172000Y-117240000D01*
X137522000Y-122995563D02*
X137522000Y-117240000D01*
%TO.C,J20*%
X91395000Y-121060000D02*
X91395000Y-120390000D01*
X91395000Y-126140000D02*
X91395000Y-122580000D01*
X91395000Y-131220000D02*
X91395000Y-127660000D01*
X91395000Y-132740000D02*
X90185000Y-132740000D01*
X91395000Y-133410000D02*
X91395000Y-132740000D01*
X94055000Y-120390000D02*
X91395000Y-120390000D01*
X94055000Y-123600000D02*
X94055000Y-120390000D01*
X94055000Y-128680000D02*
X94055000Y-125120000D01*
X94055000Y-133410000D02*
X91395000Y-133410000D01*
X94055000Y-133410000D02*
X94055000Y-130200000D01*
%TO.C,D2*%
X109755000Y-53489001D02*
X109755000Y-55774001D01*
X109755000Y-55774001D02*
X111225000Y-55774001D01*
X111225000Y-55774001D02*
X111225000Y-53489001D01*
%TO.C,R4*%
X126587742Y-89877500D02*
X127062258Y-89877500D01*
X126587742Y-90922500D02*
X127062258Y-90922500D01*
%TO.C,C18*%
X121345580Y-73404000D02*
X121064420Y-73404000D01*
X121345580Y-74424000D02*
X121064420Y-74424000D01*
%TO.C,J14*%
X82966000Y-70160000D02*
X82966000Y-76040000D01*
X84936000Y-68990000D02*
X87436000Y-68990000D01*
X84936000Y-77210000D02*
X87436000Y-77210000D01*
X87436000Y-68990000D02*
X87436000Y-70040000D01*
X87436000Y-70040000D02*
X88426000Y-70040000D01*
X87436000Y-77210000D02*
X87436000Y-76160000D01*
%TO.C,Q1*%
X115237500Y-59146000D02*
X114587500Y-59146000D01*
X115237500Y-59146000D02*
X115887500Y-59146000D01*
X115237500Y-62266000D02*
X114587500Y-62266000D01*
X115237500Y-62266000D02*
X115887500Y-62266000D01*
X116640000Y-62546000D02*
X116160000Y-62546000D01*
X116400000Y-62216000D01*
X116640000Y-62546000D01*
G36*
X116640000Y-62546000D02*
G01*
X116160000Y-62546000D01*
X116400000Y-62216000D01*
X116640000Y-62546000D01*
G37*
%TO.C,C15*%
X104761420Y-74396000D02*
X105042580Y-74396000D01*
X104761420Y-75416000D02*
X105042580Y-75416000D01*
%TO.C,C19*%
X128440580Y-67590000D02*
X128159420Y-67590000D01*
X128440580Y-68610000D02*
X128159420Y-68610000D01*
%TO.C,R27*%
X115047500Y-53958258D02*
X115047500Y-53483742D01*
X116092500Y-53958258D02*
X116092500Y-53483742D01*
%TO.C,R26*%
X116547500Y-53958258D02*
X116547500Y-53483742D01*
X117592500Y-53958258D02*
X117592500Y-53483742D01*
%TO.C,R22*%
X118951742Y-60183500D02*
X119426258Y-60183500D01*
X118951742Y-61228500D02*
X119426258Y-61228500D01*
%TO.C,R16*%
X93137258Y-94261500D02*
X92662742Y-94261500D01*
X93137258Y-95306500D02*
X92662742Y-95306500D01*
%TO.C,R1*%
X116411742Y-90409500D02*
X116886258Y-90409500D01*
X116411742Y-91454500D02*
X116886258Y-91454500D01*
%TO.C,R10*%
X126587742Y-100227500D02*
X127062258Y-100227500D01*
X126587742Y-101272500D02*
X127062258Y-101272500D01*
%TO.C,J11*%
X82966000Y-111360000D02*
X82966000Y-117240000D01*
X84936000Y-110190000D02*
X87436000Y-110190000D01*
X84936000Y-118410000D02*
X87436000Y-118410000D01*
X87436000Y-110190000D02*
X87436000Y-111240000D01*
X87436000Y-111240000D02*
X88426000Y-111240000D01*
X87436000Y-118410000D02*
X87436000Y-117360000D01*
%TO.C,Y1*%
X109905000Y-79324000D02*
X108555000Y-79324000D01*
X109905000Y-81074000D02*
X108555000Y-81074000D01*
%TO.C,R21*%
X115034758Y-62723500D02*
X114560242Y-62723500D01*
X115034758Y-63768500D02*
X114560242Y-63768500D01*
%TO.C,J6*%
X125835000Y-123600000D02*
X125835000Y-120390000D01*
X125835000Y-128680000D02*
X125835000Y-125120000D01*
X125835000Y-133410000D02*
X125835000Y-130200000D01*
X128495000Y-120390000D02*
X125835000Y-120390000D01*
X128495000Y-121060000D02*
X128495000Y-120390000D01*
X128495000Y-126140000D02*
X128495000Y-122580000D01*
X128495000Y-131220000D02*
X128495000Y-127660000D01*
X128495000Y-133410000D02*
X125835000Y-133410000D01*
X128495000Y-133410000D02*
X128495000Y-132740000D01*
X129705000Y-132740000D02*
X128495000Y-132740000D01*
%TO.C,R18*%
X93137258Y-104505500D02*
X92662742Y-104505500D01*
X93137258Y-105550500D02*
X92662742Y-105550500D01*
%TO.C,C3*%
X126965580Y-93490000D02*
X126684420Y-93490000D01*
X126965580Y-94510000D02*
X126684420Y-94510000D01*
%TO.C,J13*%
X82966000Y-59838000D02*
X82966000Y-65718000D01*
X84936000Y-58668000D02*
X87436000Y-58668000D01*
X84936000Y-66888000D02*
X87436000Y-66888000D01*
X87436000Y-58668000D02*
X87436000Y-59718000D01*
X87436000Y-59718000D02*
X88426000Y-59718000D01*
X87436000Y-66888000D02*
X87436000Y-65838000D01*
%TO.C,R3*%
X102826742Y-90409500D02*
X103301258Y-90409500D01*
X102826742Y-91454500D02*
X103301258Y-91454500D01*
%TO.C,F1*%
X126897936Y-65190000D02*
X128102064Y-65190000D01*
X126897936Y-67010000D02*
X128102064Y-67010000D01*
%TO.C,J15*%
X82966000Y-80460000D02*
X82966000Y-86340000D01*
X84936000Y-79290000D02*
X87436000Y-79290000D01*
X84936000Y-87510000D02*
X87436000Y-87510000D01*
X87436000Y-79290000D02*
X87436000Y-80340000D01*
X87436000Y-80340000D02*
X88426000Y-80340000D01*
X87436000Y-87510000D02*
X87436000Y-86460000D01*
%TO.C,C6*%
X126965580Y-103840000D02*
X126684420Y-103840000D01*
X126965580Y-104860000D02*
X126684420Y-104860000D01*
%TO.C,SW1*%
X117900000Y-67030000D02*
X117900000Y-65030000D01*
X118900000Y-63730000D02*
X119350000Y-63280000D01*
X118900000Y-68330000D02*
X119350000Y-68780000D01*
X121950000Y-63280000D02*
X119350000Y-63280000D01*
X121950000Y-68780000D02*
X119350000Y-68780000D01*
X122400000Y-63730000D02*
X121950000Y-63280000D01*
X122400000Y-68330000D02*
X121950000Y-68780000D01*
X123400000Y-67030000D02*
X123400000Y-65030000D01*
%TO.C,J4*%
X105345000Y-123600000D02*
X105345000Y-120390000D01*
X105345000Y-128680000D02*
X105345000Y-125120000D01*
X105345000Y-133410000D02*
X105345000Y-130200000D01*
X108005000Y-120390000D02*
X105345000Y-120390000D01*
X108005000Y-121060000D02*
X108005000Y-120390000D01*
X108005000Y-126140000D02*
X108005000Y-122580000D01*
X108005000Y-131220000D02*
X108005000Y-127660000D01*
X108005000Y-133410000D02*
X105345000Y-133410000D01*
X108005000Y-133410000D02*
X108005000Y-132740000D01*
X109215000Y-132740000D02*
X108005000Y-132740000D01*
%TD*%
M02*
