%TF.GenerationSoftware,KiCad,Pcbnew,8.0.6-8.0.6-0~ubuntu22.04.1*%
%TF.CreationDate,2024-11-21T09:47:25+02:00*%
%TF.ProjectId,SAMD21_Dev_Board,53414d44-3231-45f4-9465-765f426f6172,rev?*%
%TF.SameCoordinates,Original*%
%TF.FileFunction,Soldermask,Bot*%
%TF.FilePolarity,Negative*%
%FSLAX46Y46*%
G04 Gerber Fmt 4.6, Leading zero omitted, Abs format (unit mm)*
G04 Created by KiCad (PCBNEW 8.0.6-8.0.6-0~ubuntu22.04.1) date 2024-11-21 09:47:25*
%MOMM*%
%LPD*%
G01*
G04 APERTURE LIST*
G04 Aperture macros list*
%AMRoundRect*
0 Rectangle with rounded corners*
0 $1 Rounding radius*
0 $2 $3 $4 $5 $6 $7 $8 $9 X,Y pos of 4 corners*
0 Add a 4 corners polygon primitive as box body*
4,1,4,$2,$3,$4,$5,$6,$7,$8,$9,$2,$3,0*
0 Add four circle primitives for the rounded corners*
1,1,$1+$1,$2,$3*
1,1,$1+$1,$4,$5*
1,1,$1+$1,$6,$7*
1,1,$1+$1,$8,$9*
0 Add four rect primitives between the rounded corners*
20,1,$1+$1,$2,$3,$4,$5,0*
20,1,$1+$1,$4,$5,$6,$7,0*
20,1,$1+$1,$6,$7,$8,$9,0*
20,1,$1+$1,$8,$9,$2,$3,0*%
G04 Aperture macros list end*
%ADD10C,6.400000*%
%ADD11R,2.100000X2.100000*%
%ADD12C,2.100000*%
%ADD13RoundRect,0.250000X0.550000X0.350000X-0.550000X0.350000X-0.550000X-0.350000X0.550000X-0.350000X0*%
%ADD14C,0.650000*%
%ADD15O,1.000000X2.100000*%
%ADD16O,1.000000X1.800000*%
%ADD17R,2.400000X2.400000*%
%ADD18C,2.400000*%
%ADD19R,1.000000X1.000000*%
%ADD20O,1.000000X1.000000*%
G04 APERTURE END LIST*
D10*
%TO.C,REF\u002A\u002A*%
X86000000Y-53500000D03*
%TD*%
%TO.C,REF\u002A\u002A*%
X134000000Y-53500000D03*
%TD*%
D11*
%TO.C,J17*%
X133750000Y-59800000D03*
D12*
X133750000Y-62340000D03*
%TD*%
D13*
%TO.C,J3*%
X121158000Y-110998000D03*
X121158000Y-108458000D03*
X121158000Y-105918000D03*
X121158000Y-103378000D03*
%TD*%
%TO.C,J5*%
X113215000Y-131980000D03*
X113215000Y-129440000D03*
X113215000Y-126900000D03*
X113215000Y-124360000D03*
X113215000Y-121820000D03*
%TD*%
D14*
%TO.C,J2*%
X126290000Y-56270000D03*
X120510000Y-56270000D03*
D15*
X127720000Y-56790000D03*
D16*
X127720000Y-52590000D03*
D15*
X119080000Y-56790000D03*
D16*
X119080000Y-52590000D03*
%TD*%
D17*
%TO.C,J18*%
X133504000Y-113256000D03*
D18*
X133504000Y-109756000D03*
%TD*%
D10*
%TO.C,REF\u002A\u002A*%
X134000000Y-133500000D03*
%TD*%
D19*
%TO.C,J1*%
X100193000Y-75956000D03*
D20*
X98923000Y-75956000D03*
X100193000Y-74686000D03*
X98923000Y-74686000D03*
X100193000Y-73416000D03*
X98923000Y-73416000D03*
X100193000Y-72146000D03*
X98923000Y-72146000D03*
X100193000Y-70876000D03*
X98923000Y-70876000D03*
%TD*%
D13*
%TO.C,J20*%
X92725000Y-131980000D03*
X92725000Y-129440000D03*
X92725000Y-126900000D03*
X92725000Y-124360000D03*
X92725000Y-121820000D03*
%TD*%
D10*
%TO.C,REF\u002A\u002A*%
X86000000Y-133500000D03*
%TD*%
D13*
%TO.C,J6*%
X127165000Y-131980000D03*
X127165000Y-129440000D03*
X127165000Y-126900000D03*
X127165000Y-124360000D03*
X127165000Y-121820000D03*
%TD*%
%TO.C,J4*%
X106675000Y-131980000D03*
X106675000Y-129440000D03*
X106675000Y-126900000D03*
X106675000Y-124360000D03*
X106675000Y-121820000D03*
%TD*%
M02*
