M48
; DRILL file {KiCad 8.0.6-8.0.6-0~ubuntu22.04.1} date 2024-11-19T10:31:16+0200
; FORMAT={-:-/ absolute / metric / decimal}
; #@! TF.CreationDate,2024-11-19T10:31:16+02:00
; #@! TF.GenerationSoftware,Kicad,Pcbnew,8.0.6-8.0.6-0~ubuntu22.04.1
; #@! TF.FileFunction,MixedPlating,1,2
FMAT,2
METRIC
; #@! TA.AperFunction,Plated,PTH,ViaDrill
T1C0.300
; #@! TA.AperFunction,Plated,PTH,ComponentDrill
T2C0.600
; #@! TA.AperFunction,Plated,PTH,ComponentDrill
T3C0.650
; #@! TA.AperFunction,Plated,PTH,ComponentDrill
T4C0.900
; #@! TA.AperFunction,Plated,PTH,ComponentDrill
T5C1.100
; #@! TA.AperFunction,Plated,PTH,ComponentDrill
T6C1.200
; #@! TA.AperFunction,Plated,PTH,ComponentDrill
T7C3.200
; #@! TA.AperFunction,NonPlated,NPTH,ComponentDrill
T8C0.650
%
G90
G05
T1
X88.851Y-80.934
X88.899Y-70.6
X88.9Y-91.184
X88.9Y-101.478
X88.9Y-111.8
X89.154Y-60.278
X89.154Y-62.278
X89.154Y-63.25
X89.154Y-72.6
X89.154Y-73.6
X89.154Y-82.934
X89.154Y-83.934
X89.154Y-93.184
X89.154Y-94.184
X89.154Y-104.478
X89.154Y-114.8
X89.754Y-103.478
X89.754Y-113.8
X90.07Y-118.872
X90.485Y-120.468
X90.485Y-123.008
X90.485Y-124.024
X90.485Y-125.04
X91.086Y-118.872
X92.102Y-118.872
X93.372Y-118.872
X94.388Y-118.872
X94.685Y-120.468
X94.685Y-121.23
X94.685Y-122.246
X94.685Y-123.262
X95.404Y-118.872
X98.044Y-61.214
X98.044Y-77.47
X99.06Y-78.232
X100.264Y-95.9
X100.27Y-94.548
X100.27Y-97.2
X100.27Y-98.597
X100.778Y-95.231
X100.778Y-96.55
X100.778Y-97.85
X100.778Y-99.247
X101.286Y-90.932
X101.6Y-74.676
X101.854Y-60.198
X103.114Y-93.845
X103.124Y-99.822
X103.378Y-74.168
X104.6Y-130.578
X104.6Y-131.594
X104.6Y-132.61
X104.6Y-133.372
X105.744Y-93.836
X106.421Y-93.41
X106.426Y-99.06
X106.519Y-99.953
X106.68Y-94.742
X106.934Y-74.756
X106.993Y-75.465
X107.442Y-67.818
X107.442Y-71.486
X108.458Y-90.932
X108.712Y-76.708
X108.8Y-128.8
X108.8Y-129.816
X108.8Y-130.832
X108.8Y-133.372
X108.966Y-77.47
X109.033Y-95.91
X109.22Y-97.91
X109.224Y-95.237
X109.23Y-83.106
X109.668Y-96.56
X109.668Y-97.282
X109.728Y-98.552
X109.926Y-71.235
X109.982Y-67.818
X109.982Y-72.136
X110.49Y-73.406
X110.584Y-118.9
X111.016Y-120.408
X111.016Y-122.948
X111.016Y-123.964
X111.016Y-124.98
X111.179Y-67.402
X111.252Y-90.932
X111.6Y-118.9
X112.014Y-67.564
X112.014Y-76.2
X112.105Y-70.957
X112.522Y-98.552
X112.616Y-118.9
X112.705Y-71.452
X113.03Y-63.246
X113.792Y-92.71
X113.792Y-93.98
X113.886Y-118.9
X114.666Y-65.786
X114.808Y-70.358
X114.902Y-118.9
X115.178Y-67.79
X115.216Y-120.408
X115.216Y-121.17
X115.216Y-122.186
X115.216Y-123.202
X115.316Y-73.406
X115.57Y-52.07
X115.57Y-70.612
X115.918Y-118.9
X116.008Y-71.337
X116.586Y-62.992
X116.586Y-67.818
X117.094Y-52.07
X117.283Y-93.472
X117.348Y-60.106
X118.364Y-76.708
X118.364Y-90.932
X118.618Y-72.506
X118.618Y-75.806
X119.126Y-70.612
X120.904Y-60.706
X121.666Y-73.0
X122.579Y-58.611
X123.19Y-73.406
X123.4Y-58.6
X124.714Y-105.918
X125.0Y-130.506
X125.0Y-131.522
X125.0Y-132.538
X125.0Y-133.3
X125.73Y-105.918
X126.238Y-68.1
X126.746Y-105.918
X128.7Y-91.0
X128.7Y-91.9
X128.7Y-101.3
X128.7Y-102.2
X129.2Y-128.728
X129.2Y-129.744
X129.2Y-130.76
X129.2Y-133.3
X130.0Y-99.076
X130.302Y-100.33
X130.81Y-89.916
X130.834Y-86.846
X131.064Y-75.438
X131.064Y-83.82
X131.064Y-94.0
X131.064Y-104.35
X132.588Y-116.84
X132.588Y-118.11
X132.588Y-119.38
X135.2Y-67.156
X135.2Y-67.8
X135.89Y-123.19
X135.89Y-124.46
X135.9Y-67.156
X135.9Y-67.8
X135.9Y-121.666
X136.6Y-67.156
X136.6Y-67.8
T3
X98.923Y-70.876
X98.923Y-72.146
X98.923Y-73.416
X98.923Y-74.686
X98.923Y-75.956
X100.193Y-70.876
X100.193Y-72.146
X100.193Y-73.416
X100.193Y-74.686
X100.193Y-75.956
T4
X92.725Y-121.82
X92.725Y-124.36
X92.725Y-126.9
X92.725Y-129.44
X92.725Y-131.98
X106.675Y-121.82
X106.675Y-124.36
X106.675Y-126.9
X106.675Y-129.44
X106.675Y-131.98
X113.215Y-121.82
X113.215Y-124.36
X113.215Y-126.9
X113.215Y-129.44
X113.215Y-131.98
X121.158Y-103.378
X121.158Y-105.918
X121.158Y-108.458
X121.158Y-110.998
X127.165Y-121.82
X127.165Y-124.36
X127.165Y-126.9
X127.165Y-129.44
X127.165Y-131.98
T5
X133.75Y-59.8
X133.75Y-62.34
T6
X133.504Y-109.756
X133.504Y-113.256
T7
X86.0Y-53.5
X86.0Y-133.5
X134.0Y-53.5
X134.0Y-133.5
T8
X120.51Y-56.27
X126.29Y-56.27
T2
X119.08Y-52.99G85X119.08Y-52.19
G05
X119.08Y-57.34G85X119.08Y-56.24
G05
X127.72Y-52.99G85X127.72Y-52.19
G05
X127.72Y-57.34G85X127.72Y-56.24
G05
M30
