%TF.GenerationSoftware,KiCad,Pcbnew,8.0.6-8.0.6-0~ubuntu22.04.1*%
%TF.CreationDate,2024-11-21T09:47:25+02:00*%
%TF.ProjectId,SAMD21_Dev_Board,53414d44-3231-45f4-9465-765f426f6172,rev?*%
%TF.SameCoordinates,Original*%
%TF.FileFunction,Legend,Bot*%
%TF.FilePolarity,Positive*%
%FSLAX46Y46*%
G04 Gerber Fmt 4.6, Leading zero omitted, Abs format (unit mm)*
G04 Created by KiCad (PCBNEW 8.0.6-8.0.6-0~ubuntu22.04.1) date 2024-11-21 09:47:25*
%MOMM*%
%LPD*%
G01*
G04 APERTURE LIST*
%ADD10C,0.300000*%
%ADD11C,0.200000*%
%ADD12C,0.000000*%
G04 APERTURE END LIST*
D10*
X86353638Y-62585939D02*
X84353638Y-62585939D01*
X84353638Y-62585939D02*
X84353638Y-63271653D01*
X84353638Y-63271653D02*
X84448876Y-63443082D01*
X84448876Y-63443082D02*
X84544114Y-63528796D01*
X84544114Y-63528796D02*
X84734590Y-63614510D01*
X84734590Y-63614510D02*
X85020304Y-63614510D01*
X85020304Y-63614510D02*
X85210780Y-63528796D01*
X85210780Y-63528796D02*
X85306019Y-63443082D01*
X85306019Y-63443082D02*
X85401257Y-63271653D01*
X85401257Y-63271653D02*
X85401257Y-62585939D01*
X86353638Y-64643082D02*
X86258400Y-64471653D01*
X86258400Y-64471653D02*
X86067923Y-64385939D01*
X86067923Y-64385939D02*
X84353638Y-64385939D01*
X85020304Y-66100225D02*
X86353638Y-66100225D01*
X85020304Y-65328796D02*
X86067923Y-65328796D01*
X86067923Y-65328796D02*
X86258400Y-65414510D01*
X86258400Y-65414510D02*
X86353638Y-65585939D01*
X86353638Y-65585939D02*
X86353638Y-65843082D01*
X86353638Y-65843082D02*
X86258400Y-66014510D01*
X86258400Y-66014510D02*
X86163161Y-66100225D01*
X85020304Y-67728796D02*
X86639352Y-67728796D01*
X86639352Y-67728796D02*
X86829828Y-67643081D01*
X86829828Y-67643081D02*
X86925066Y-67557367D01*
X86925066Y-67557367D02*
X87020304Y-67385938D01*
X87020304Y-67385938D02*
X87020304Y-67128796D01*
X87020304Y-67128796D02*
X86925066Y-66957367D01*
X86258400Y-67728796D02*
X86353638Y-67557367D01*
X86353638Y-67557367D02*
X86353638Y-67214510D01*
X86353638Y-67214510D02*
X86258400Y-67043081D01*
X86258400Y-67043081D02*
X86163161Y-66957367D01*
X86163161Y-66957367D02*
X85972685Y-66871653D01*
X85972685Y-66871653D02*
X85401257Y-66871653D01*
X85401257Y-66871653D02*
X85210780Y-66957367D01*
X85210780Y-66957367D02*
X85115542Y-67043081D01*
X85115542Y-67043081D02*
X85020304Y-67214510D01*
X85020304Y-67214510D02*
X85020304Y-67557367D01*
X85020304Y-67557367D02*
X85115542Y-67728796D01*
X85591733Y-68585938D02*
X85591733Y-69957367D01*
X85020304Y-70814509D02*
X86353638Y-70814509D01*
X85210780Y-70814509D02*
X85115542Y-70900223D01*
X85115542Y-70900223D02*
X85020304Y-71071652D01*
X85020304Y-71071652D02*
X85020304Y-71328795D01*
X85020304Y-71328795D02*
X85115542Y-71500223D01*
X85115542Y-71500223D02*
X85306019Y-71585938D01*
X85306019Y-71585938D02*
X86353638Y-71585938D01*
X85591733Y-72443080D02*
X85591733Y-73814509D01*
X86353638Y-74671651D02*
X84353638Y-74671651D01*
X84353638Y-74671651D02*
X84353638Y-75357365D01*
X84353638Y-75357365D02*
X84448876Y-75528794D01*
X84448876Y-75528794D02*
X84544114Y-75614508D01*
X84544114Y-75614508D02*
X84734590Y-75700222D01*
X84734590Y-75700222D02*
X85020304Y-75700222D01*
X85020304Y-75700222D02*
X85210780Y-75614508D01*
X85210780Y-75614508D02*
X85306019Y-75528794D01*
X85306019Y-75528794D02*
X85401257Y-75357365D01*
X85401257Y-75357365D02*
X85401257Y-74671651D01*
X86353638Y-76728794D02*
X86258400Y-76557365D01*
X86258400Y-76557365D02*
X86067923Y-76471651D01*
X86067923Y-76471651D02*
X84353638Y-76471651D01*
X86353638Y-78185937D02*
X85306019Y-78185937D01*
X85306019Y-78185937D02*
X85115542Y-78100222D01*
X85115542Y-78100222D02*
X85020304Y-77928794D01*
X85020304Y-77928794D02*
X85020304Y-77585937D01*
X85020304Y-77585937D02*
X85115542Y-77414508D01*
X86258400Y-78185937D02*
X86353638Y-78014508D01*
X86353638Y-78014508D02*
X86353638Y-77585937D01*
X86353638Y-77585937D02*
X86258400Y-77414508D01*
X86258400Y-77414508D02*
X86067923Y-77328794D01*
X86067923Y-77328794D02*
X85877447Y-77328794D01*
X85877447Y-77328794D02*
X85686971Y-77414508D01*
X85686971Y-77414508D02*
X85591733Y-77585937D01*
X85591733Y-77585937D02*
X85591733Y-78014508D01*
X85591733Y-78014508D02*
X85496495Y-78185937D01*
X85020304Y-78871650D02*
X86353638Y-79300222D01*
X85020304Y-79728793D02*
X86353638Y-79300222D01*
X86353638Y-79300222D02*
X86829828Y-79128793D01*
X86829828Y-79128793D02*
X86925066Y-79043079D01*
X86925066Y-79043079D02*
X87020304Y-78871650D01*
X86258400Y-81700223D02*
X86353638Y-81957366D01*
X86353638Y-81957366D02*
X86353638Y-82385937D01*
X86353638Y-82385937D02*
X86258400Y-82557366D01*
X86258400Y-82557366D02*
X86163161Y-82643080D01*
X86163161Y-82643080D02*
X85972685Y-82728794D01*
X85972685Y-82728794D02*
X85782209Y-82728794D01*
X85782209Y-82728794D02*
X85591733Y-82643080D01*
X85591733Y-82643080D02*
X85496495Y-82557366D01*
X85496495Y-82557366D02*
X85401257Y-82385937D01*
X85401257Y-82385937D02*
X85306019Y-82043080D01*
X85306019Y-82043080D02*
X85210780Y-81871651D01*
X85210780Y-81871651D02*
X85115542Y-81785937D01*
X85115542Y-81785937D02*
X84925066Y-81700223D01*
X84925066Y-81700223D02*
X84734590Y-81700223D01*
X84734590Y-81700223D02*
X84544114Y-81785937D01*
X84544114Y-81785937D02*
X84448876Y-81871651D01*
X84448876Y-81871651D02*
X84353638Y-82043080D01*
X84353638Y-82043080D02*
X84353638Y-82471651D01*
X84353638Y-82471651D02*
X84448876Y-82728794D01*
X85782209Y-83414509D02*
X85782209Y-84271652D01*
X86353638Y-83243080D02*
X84353638Y-83843080D01*
X84353638Y-83843080D02*
X86353638Y-84443080D01*
X86353638Y-85043080D02*
X84353638Y-85043080D01*
X84353638Y-85043080D02*
X85782209Y-85643080D01*
X85782209Y-85643080D02*
X84353638Y-86243080D01*
X84353638Y-86243080D02*
X86353638Y-86243080D01*
X86353638Y-87100223D02*
X84353638Y-87100223D01*
X84353638Y-87100223D02*
X84353638Y-87528794D01*
X84353638Y-87528794D02*
X84448876Y-87785937D01*
X84448876Y-87785937D02*
X84639352Y-87957366D01*
X84639352Y-87957366D02*
X84829828Y-88043080D01*
X84829828Y-88043080D02*
X85210780Y-88128794D01*
X85210780Y-88128794D02*
X85496495Y-88128794D01*
X85496495Y-88128794D02*
X85877447Y-88043080D01*
X85877447Y-88043080D02*
X86067923Y-87957366D01*
X86067923Y-87957366D02*
X86258400Y-87785937D01*
X86258400Y-87785937D02*
X86353638Y-87528794D01*
X86353638Y-87528794D02*
X86353638Y-87100223D01*
X84544114Y-88814509D02*
X84448876Y-88900223D01*
X84448876Y-88900223D02*
X84353638Y-89071652D01*
X84353638Y-89071652D02*
X84353638Y-89500223D01*
X84353638Y-89500223D02*
X84448876Y-89671652D01*
X84448876Y-89671652D02*
X84544114Y-89757366D01*
X84544114Y-89757366D02*
X84734590Y-89843080D01*
X84734590Y-89843080D02*
X84925066Y-89843080D01*
X84925066Y-89843080D02*
X85210780Y-89757366D01*
X85210780Y-89757366D02*
X86353638Y-88728794D01*
X86353638Y-88728794D02*
X86353638Y-89843080D01*
X86353638Y-91557366D02*
X86353638Y-90528795D01*
X86353638Y-91043080D02*
X84353638Y-91043080D01*
X84353638Y-91043080D02*
X84639352Y-90871652D01*
X84639352Y-90871652D02*
X84829828Y-90700223D01*
X84829828Y-90700223D02*
X84925066Y-90528795D01*
X86353638Y-93700224D02*
X84353638Y-93700224D01*
X84353638Y-93700224D02*
X84353638Y-94128795D01*
X84353638Y-94128795D02*
X84448876Y-94385938D01*
X84448876Y-94385938D02*
X84639352Y-94557367D01*
X84639352Y-94557367D02*
X84829828Y-94643081D01*
X84829828Y-94643081D02*
X85210780Y-94728795D01*
X85210780Y-94728795D02*
X85496495Y-94728795D01*
X85496495Y-94728795D02*
X85877447Y-94643081D01*
X85877447Y-94643081D02*
X86067923Y-94557367D01*
X86067923Y-94557367D02*
X86258400Y-94385938D01*
X86258400Y-94385938D02*
X86353638Y-94128795D01*
X86353638Y-94128795D02*
X86353638Y-93700224D01*
X86258400Y-96185938D02*
X86353638Y-96014510D01*
X86353638Y-96014510D02*
X86353638Y-95671653D01*
X86353638Y-95671653D02*
X86258400Y-95500224D01*
X86258400Y-95500224D02*
X86067923Y-95414510D01*
X86067923Y-95414510D02*
X85306019Y-95414510D01*
X85306019Y-95414510D02*
X85115542Y-95500224D01*
X85115542Y-95500224D02*
X85020304Y-95671653D01*
X85020304Y-95671653D02*
X85020304Y-96014510D01*
X85020304Y-96014510D02*
X85115542Y-96185938D01*
X85115542Y-96185938D02*
X85306019Y-96271653D01*
X85306019Y-96271653D02*
X85496495Y-96271653D01*
X85496495Y-96271653D02*
X85686971Y-95414510D01*
X85020304Y-96871652D02*
X86353638Y-97300224D01*
X86353638Y-97300224D02*
X85020304Y-97728795D01*
X85306019Y-100385939D02*
X85401257Y-100643082D01*
X85401257Y-100643082D02*
X85496495Y-100728796D01*
X85496495Y-100728796D02*
X85686971Y-100814510D01*
X85686971Y-100814510D02*
X85972685Y-100814510D01*
X85972685Y-100814510D02*
X86163161Y-100728796D01*
X86163161Y-100728796D02*
X86258400Y-100643082D01*
X86258400Y-100643082D02*
X86353638Y-100471653D01*
X86353638Y-100471653D02*
X86353638Y-99785939D01*
X86353638Y-99785939D02*
X84353638Y-99785939D01*
X84353638Y-99785939D02*
X84353638Y-100385939D01*
X84353638Y-100385939D02*
X84448876Y-100557368D01*
X84448876Y-100557368D02*
X84544114Y-100643082D01*
X84544114Y-100643082D02*
X84734590Y-100728796D01*
X84734590Y-100728796D02*
X84925066Y-100728796D01*
X84925066Y-100728796D02*
X85115542Y-100643082D01*
X85115542Y-100643082D02*
X85210780Y-100557368D01*
X85210780Y-100557368D02*
X85306019Y-100385939D01*
X85306019Y-100385939D02*
X85306019Y-99785939D01*
X86353638Y-101843082D02*
X86258400Y-101671653D01*
X86258400Y-101671653D02*
X86163161Y-101585939D01*
X86163161Y-101585939D02*
X85972685Y-101500225D01*
X85972685Y-101500225D02*
X85401257Y-101500225D01*
X85401257Y-101500225D02*
X85210780Y-101585939D01*
X85210780Y-101585939D02*
X85115542Y-101671653D01*
X85115542Y-101671653D02*
X85020304Y-101843082D01*
X85020304Y-101843082D02*
X85020304Y-102100225D01*
X85020304Y-102100225D02*
X85115542Y-102271653D01*
X85115542Y-102271653D02*
X85210780Y-102357368D01*
X85210780Y-102357368D02*
X85401257Y-102443082D01*
X85401257Y-102443082D02*
X85972685Y-102443082D01*
X85972685Y-102443082D02*
X86163161Y-102357368D01*
X86163161Y-102357368D02*
X86258400Y-102271653D01*
X86258400Y-102271653D02*
X86353638Y-102100225D01*
X86353638Y-102100225D02*
X86353638Y-101843082D01*
X86353638Y-103985939D02*
X85306019Y-103985939D01*
X85306019Y-103985939D02*
X85115542Y-103900224D01*
X85115542Y-103900224D02*
X85020304Y-103728796D01*
X85020304Y-103728796D02*
X85020304Y-103385939D01*
X85020304Y-103385939D02*
X85115542Y-103214510D01*
X86258400Y-103985939D02*
X86353638Y-103814510D01*
X86353638Y-103814510D02*
X86353638Y-103385939D01*
X86353638Y-103385939D02*
X86258400Y-103214510D01*
X86258400Y-103214510D02*
X86067923Y-103128796D01*
X86067923Y-103128796D02*
X85877447Y-103128796D01*
X85877447Y-103128796D02*
X85686971Y-103214510D01*
X85686971Y-103214510D02*
X85591733Y-103385939D01*
X85591733Y-103385939D02*
X85591733Y-103814510D01*
X85591733Y-103814510D02*
X85496495Y-103985939D01*
X86353638Y-104843081D02*
X85020304Y-104843081D01*
X85401257Y-104843081D02*
X85210780Y-104928795D01*
X85210780Y-104928795D02*
X85115542Y-105014510D01*
X85115542Y-105014510D02*
X85020304Y-105185938D01*
X85020304Y-105185938D02*
X85020304Y-105357367D01*
X86353638Y-106728796D02*
X84353638Y-106728796D01*
X86258400Y-106728796D02*
X86353638Y-106557367D01*
X86353638Y-106557367D02*
X86353638Y-106214510D01*
X86353638Y-106214510D02*
X86258400Y-106043081D01*
X86258400Y-106043081D02*
X86163161Y-105957367D01*
X86163161Y-105957367D02*
X85972685Y-105871653D01*
X85972685Y-105871653D02*
X85401257Y-105871653D01*
X85401257Y-105871653D02*
X85210780Y-105957367D01*
X85210780Y-105957367D02*
X85115542Y-106043081D01*
X85115542Y-106043081D02*
X85020304Y-106214510D01*
X85020304Y-106214510D02*
X85020304Y-106557367D01*
X85020304Y-106557367D02*
X85115542Y-106728796D01*
D11*
X129800552Y-69674435D02*
X130467219Y-69864911D01*
X130467219Y-69864911D02*
X129991028Y-70055387D01*
X129991028Y-70055387D02*
X130467219Y-70245863D01*
X130467219Y-70245863D02*
X129800552Y-70436339D01*
X129800552Y-70722054D02*
X130467219Y-70912530D01*
X130467219Y-70912530D02*
X129991028Y-71103006D01*
X129991028Y-71103006D02*
X130467219Y-71293482D01*
X130467219Y-71293482D02*
X129800552Y-71483958D01*
X129800552Y-71769673D02*
X130467219Y-71960149D01*
X130467219Y-71960149D02*
X129991028Y-72150625D01*
X129991028Y-72150625D02*
X130467219Y-72341101D01*
X130467219Y-72341101D02*
X129800552Y-72531577D01*
X130371980Y-72912530D02*
X130419600Y-72960149D01*
X130419600Y-72960149D02*
X130467219Y-72912530D01*
X130467219Y-72912530D02*
X130419600Y-72864911D01*
X130419600Y-72864911D02*
X130371980Y-72912530D01*
X130371980Y-72912530D02*
X130467219Y-72912530D01*
X129800552Y-73817291D02*
X130467219Y-73817291D01*
X129419600Y-73579196D02*
X130133885Y-73341101D01*
X130133885Y-73341101D02*
X130133885Y-73960148D01*
X129800552Y-74341101D02*
X130800552Y-74341101D01*
X129848171Y-74341101D02*
X129800552Y-74436339D01*
X129800552Y-74436339D02*
X129800552Y-74626815D01*
X129800552Y-74626815D02*
X129848171Y-74722053D01*
X129848171Y-74722053D02*
X129895790Y-74769672D01*
X129895790Y-74769672D02*
X129991028Y-74817291D01*
X129991028Y-74817291D02*
X130276742Y-74817291D01*
X130276742Y-74817291D02*
X130371980Y-74769672D01*
X130371980Y-74769672D02*
X130419600Y-74722053D01*
X130419600Y-74722053D02*
X130467219Y-74626815D01*
X130467219Y-74626815D02*
X130467219Y-74436339D01*
X130467219Y-74436339D02*
X130419600Y-74341101D01*
X130467219Y-75245863D02*
X129800552Y-75245863D01*
X129991028Y-75245863D02*
X129895790Y-75293482D01*
X129895790Y-75293482D02*
X129848171Y-75341101D01*
X129848171Y-75341101D02*
X129800552Y-75436339D01*
X129800552Y-75436339D02*
X129800552Y-75531577D01*
X130467219Y-76007768D02*
X130419600Y-75912530D01*
X130419600Y-75912530D02*
X130371980Y-75864911D01*
X130371980Y-75864911D02*
X130276742Y-75817292D01*
X130276742Y-75817292D02*
X129991028Y-75817292D01*
X129991028Y-75817292D02*
X129895790Y-75864911D01*
X129895790Y-75864911D02*
X129848171Y-75912530D01*
X129848171Y-75912530D02*
X129800552Y-76007768D01*
X129800552Y-76007768D02*
X129800552Y-76150625D01*
X129800552Y-76150625D02*
X129848171Y-76245863D01*
X129848171Y-76245863D02*
X129895790Y-76293482D01*
X129895790Y-76293482D02*
X129991028Y-76341101D01*
X129991028Y-76341101D02*
X130276742Y-76341101D01*
X130276742Y-76341101D02*
X130371980Y-76293482D01*
X130371980Y-76293482D02*
X130419600Y-76245863D01*
X130419600Y-76245863D02*
X130467219Y-76150625D01*
X130467219Y-76150625D02*
X130467219Y-76007768D01*
X129800552Y-76769673D02*
X130657695Y-76769673D01*
X130657695Y-76769673D02*
X130752933Y-76722054D01*
X130752933Y-76722054D02*
X130800552Y-76626816D01*
X130800552Y-76626816D02*
X130800552Y-76579197D01*
X129467219Y-76769673D02*
X129514838Y-76722054D01*
X129514838Y-76722054D02*
X129562457Y-76769673D01*
X129562457Y-76769673D02*
X129514838Y-76817292D01*
X129514838Y-76817292D02*
X129467219Y-76769673D01*
X129467219Y-76769673D02*
X129562457Y-76769673D01*
X130419600Y-77626815D02*
X130467219Y-77531577D01*
X130467219Y-77531577D02*
X130467219Y-77341101D01*
X130467219Y-77341101D02*
X130419600Y-77245863D01*
X130419600Y-77245863D02*
X130324361Y-77198244D01*
X130324361Y-77198244D02*
X129943409Y-77198244D01*
X129943409Y-77198244D02*
X129848171Y-77245863D01*
X129848171Y-77245863D02*
X129800552Y-77341101D01*
X129800552Y-77341101D02*
X129800552Y-77531577D01*
X129800552Y-77531577D02*
X129848171Y-77626815D01*
X129848171Y-77626815D02*
X129943409Y-77674434D01*
X129943409Y-77674434D02*
X130038647Y-77674434D01*
X130038647Y-77674434D02*
X130133885Y-77198244D01*
X130419600Y-78531577D02*
X130467219Y-78436339D01*
X130467219Y-78436339D02*
X130467219Y-78245863D01*
X130467219Y-78245863D02*
X130419600Y-78150625D01*
X130419600Y-78150625D02*
X130371980Y-78103006D01*
X130371980Y-78103006D02*
X130276742Y-78055387D01*
X130276742Y-78055387D02*
X129991028Y-78055387D01*
X129991028Y-78055387D02*
X129895790Y-78103006D01*
X129895790Y-78103006D02*
X129848171Y-78150625D01*
X129848171Y-78150625D02*
X129800552Y-78245863D01*
X129800552Y-78245863D02*
X129800552Y-78436339D01*
X129800552Y-78436339D02*
X129848171Y-78531577D01*
X129800552Y-78817292D02*
X129800552Y-79198244D01*
X129467219Y-78960149D02*
X130324361Y-78960149D01*
X130324361Y-78960149D02*
X130419600Y-79007768D01*
X130419600Y-79007768D02*
X130467219Y-79103006D01*
X130467219Y-79103006D02*
X130467219Y-79198244D01*
X130371980Y-79531578D02*
X130419600Y-79579197D01*
X130419600Y-79579197D02*
X130467219Y-79531578D01*
X130467219Y-79531578D02*
X130419600Y-79483959D01*
X130419600Y-79483959D02*
X130371980Y-79531578D01*
X130371980Y-79531578D02*
X130467219Y-79531578D01*
X130419600Y-80436339D02*
X130467219Y-80341101D01*
X130467219Y-80341101D02*
X130467219Y-80150625D01*
X130467219Y-80150625D02*
X130419600Y-80055387D01*
X130419600Y-80055387D02*
X130371980Y-80007768D01*
X130371980Y-80007768D02*
X130276742Y-79960149D01*
X130276742Y-79960149D02*
X129991028Y-79960149D01*
X129991028Y-79960149D02*
X129895790Y-80007768D01*
X129895790Y-80007768D02*
X129848171Y-80055387D01*
X129848171Y-80055387D02*
X129800552Y-80150625D01*
X129800552Y-80150625D02*
X129800552Y-80341101D01*
X129800552Y-80341101D02*
X129848171Y-80436339D01*
X130467219Y-81007768D02*
X130419600Y-80912530D01*
X130419600Y-80912530D02*
X130371980Y-80864911D01*
X130371980Y-80864911D02*
X130276742Y-80817292D01*
X130276742Y-80817292D02*
X129991028Y-80817292D01*
X129991028Y-80817292D02*
X129895790Y-80864911D01*
X129895790Y-80864911D02*
X129848171Y-80912530D01*
X129848171Y-80912530D02*
X129800552Y-81007768D01*
X129800552Y-81007768D02*
X129800552Y-81150625D01*
X129800552Y-81150625D02*
X129848171Y-81245863D01*
X129848171Y-81245863D02*
X129895790Y-81293482D01*
X129895790Y-81293482D02*
X129991028Y-81341101D01*
X129991028Y-81341101D02*
X130276742Y-81341101D01*
X130276742Y-81341101D02*
X130371980Y-81293482D01*
X130371980Y-81293482D02*
X130419600Y-81245863D01*
X130419600Y-81245863D02*
X130467219Y-81150625D01*
X130467219Y-81150625D02*
X130467219Y-81007768D01*
X130371980Y-81769673D02*
X130419600Y-81817292D01*
X130419600Y-81817292D02*
X130467219Y-81769673D01*
X130467219Y-81769673D02*
X130419600Y-81722054D01*
X130419600Y-81722054D02*
X130371980Y-81769673D01*
X130371980Y-81769673D02*
X130467219Y-81769673D01*
X130467219Y-82245863D02*
X129800552Y-82245863D01*
X129467219Y-82245863D02*
X129514838Y-82198244D01*
X129514838Y-82198244D02*
X129562457Y-82245863D01*
X129562457Y-82245863D02*
X129514838Y-82293482D01*
X129514838Y-82293482D02*
X129467219Y-82245863D01*
X129467219Y-82245863D02*
X129562457Y-82245863D01*
X130467219Y-82864910D02*
X130419600Y-82769672D01*
X130419600Y-82769672D02*
X130324361Y-82722053D01*
X130324361Y-82722053D02*
X129467219Y-82722053D01*
D12*
%TO.C,G\u002A\u002A\u002A*%
G36*
X126259476Y-68091687D02*
G01*
X126253365Y-68136509D01*
X126203031Y-68148131D01*
X126192898Y-68135722D01*
X126203031Y-68035242D01*
X126228497Y-68021997D01*
X126259476Y-68091687D01*
G37*
G36*
X127529476Y-63982199D02*
G01*
X127529476Y-64366354D01*
X126965031Y-64366354D01*
X126958611Y-64366352D01*
X126682224Y-64362242D01*
X126494538Y-64351759D01*
X126435864Y-64337128D01*
X126440667Y-64333441D01*
X126542496Y-64262555D01*
X126674124Y-64173062D01*
X127028531Y-64173062D01*
X127046791Y-64187993D01*
X127176698Y-64197020D01*
X127289112Y-64173441D01*
X127360142Y-64059653D01*
X127359078Y-64022276D01*
X127325302Y-63967097D01*
X127211976Y-64035695D01*
X127116716Y-64108005D01*
X127028531Y-64173062D01*
X126674124Y-64173062D01*
X126741541Y-64127226D01*
X127000309Y-63952973D01*
X127325302Y-63734990D01*
X127529476Y-63598044D01*
X127529476Y-63982199D01*
G37*
G36*
X126217142Y-67583687D02*
G01*
X126789020Y-67583687D01*
X126746826Y-68022805D01*
X126729359Y-68148246D01*
X126620033Y-68473622D01*
X126442374Y-68690296D01*
X126217142Y-68769020D01*
X126139306Y-68760200D01*
X125927389Y-68633010D01*
X125769852Y-68377462D01*
X125687458Y-68022805D01*
X125685941Y-68007020D01*
X125836142Y-68007020D01*
X125871808Y-68214391D01*
X125991188Y-68418755D01*
X126158524Y-68533270D01*
X126336122Y-68519313D01*
X126430450Y-68451207D01*
X126545848Y-68298781D01*
X126576751Y-68178407D01*
X126598142Y-67957762D01*
X126596871Y-67907441D01*
X126564033Y-67805466D01*
X126452516Y-67762085D01*
X126217142Y-67753020D01*
X126073406Y-67754456D01*
X125910957Y-67776856D01*
X125847187Y-67850832D01*
X125836142Y-68007020D01*
X125685941Y-68007020D01*
X125645265Y-67583687D01*
X126217142Y-67583687D01*
G37*
G36*
X126217142Y-66737020D02*
G01*
X127106142Y-66737020D01*
X129307476Y-66737020D01*
X129307476Y-67033354D01*
X129307476Y-67329687D01*
X128418476Y-67329687D01*
X127529476Y-67329687D01*
X127529476Y-67946747D01*
X127474593Y-68530800D01*
X127311636Y-68997155D01*
X127044887Y-69337007D01*
X126678628Y-69544912D01*
X126217142Y-69615424D01*
X126183889Y-69615088D01*
X125730423Y-69531536D01*
X125364156Y-69304986D01*
X125095309Y-68941580D01*
X125040622Y-68825874D01*
X124971176Y-68627135D01*
X124929849Y-68395186D01*
X124909955Y-68084715D01*
X124904809Y-67650414D01*
X124904809Y-67329687D01*
X125394301Y-67329687D01*
X125426828Y-67973830D01*
X125430734Y-68048248D01*
X125455393Y-68360782D01*
X125497411Y-68561398D01*
X125572107Y-68698502D01*
X125694804Y-68820497D01*
X125755735Y-68868508D01*
X126081039Y-69008829D01*
X126422494Y-68992825D01*
X126739480Y-68820497D01*
X126766654Y-68796718D01*
X126879257Y-68675577D01*
X126946711Y-68530319D01*
X126984337Y-68312538D01*
X127007456Y-67973830D01*
X127039984Y-67329687D01*
X126217142Y-67329687D01*
X125394301Y-67329687D01*
X124904809Y-67329687D01*
X124904809Y-66737020D01*
X126217142Y-66737020D01*
G37*
G36*
X128291476Y-63604354D02*
G01*
X128291476Y-64620354D01*
X128799476Y-64620354D01*
X129307476Y-64620354D01*
X129307476Y-64916687D01*
X129307476Y-65213020D01*
X128799476Y-65213020D01*
X128291476Y-65213020D01*
X128291476Y-65509354D01*
X128278123Y-65705377D01*
X128208128Y-65789167D01*
X128037476Y-65805687D01*
X127869455Y-65790109D01*
X127797635Y-65708448D01*
X127783476Y-65509354D01*
X127783476Y-65213020D01*
X126344142Y-65213020D01*
X124904809Y-65213020D01*
X124904809Y-64833258D01*
X124904809Y-64586355D01*
X125504531Y-64586355D01*
X125508331Y-64590332D01*
X125621091Y-64602129D01*
X125864635Y-64611659D01*
X126209534Y-64618031D01*
X126626364Y-64620354D01*
X127783476Y-64620354D01*
X127783476Y-63853357D01*
X127779136Y-63508181D01*
X127762290Y-63269406D01*
X127729568Y-63157515D01*
X127677642Y-63150400D01*
X127555008Y-63228255D01*
X127331567Y-63373482D01*
X127038320Y-63565639D01*
X126705475Y-63784768D01*
X126363239Y-64010906D01*
X126041820Y-64224095D01*
X125771423Y-64404373D01*
X125582258Y-64531780D01*
X125504531Y-64586355D01*
X124904809Y-64586355D01*
X124904809Y-64453495D01*
X126299958Y-63520924D01*
X126731233Y-63235291D01*
X127142164Y-62972190D01*
X127453270Y-62787272D01*
X127677642Y-62673017D01*
X127685116Y-62669211D01*
X127858267Y-62606680D01*
X127993291Y-62588354D01*
X128291476Y-62588354D01*
X128291476Y-63604354D01*
G37*
G36*
X127895030Y-66311689D02*
G01*
X128197289Y-66317473D01*
X128421512Y-66321763D01*
X128884646Y-66337160D01*
X129257958Y-66357880D01*
X129514970Y-66383922D01*
X129629209Y-66415287D01*
X129661213Y-66468811D01*
X129707732Y-66673845D01*
X129727792Y-66955622D01*
X129721391Y-67253143D01*
X129688530Y-67505409D01*
X129629209Y-67651420D01*
X129626056Y-67654369D01*
X129473996Y-67707785D01*
X129172630Y-67741364D01*
X128740209Y-67753020D01*
X127952809Y-67753020D01*
X127952337Y-68197520D01*
X127952282Y-68213591D01*
X127889571Y-68807153D01*
X127713508Y-69298915D01*
X127431090Y-69675500D01*
X127049315Y-69923533D01*
X126863626Y-69978189D01*
X126493945Y-70025982D01*
X126077335Y-70032804D01*
X125684206Y-69998654D01*
X125384970Y-69923533D01*
X125355918Y-69910787D01*
X125024156Y-69680774D01*
X124746010Y-69343680D01*
X124569868Y-68956891D01*
X124566637Y-68944808D01*
X124527155Y-68705595D01*
X124499937Y-68367998D01*
X124484786Y-67970212D01*
X124481502Y-67550432D01*
X124489888Y-67146854D01*
X124509744Y-66797674D01*
X124540873Y-66541086D01*
X124546151Y-66525354D01*
X124693142Y-66525354D01*
X124693142Y-67768207D01*
X124694540Y-68123174D01*
X124706810Y-68567960D01*
X124739954Y-68894818D01*
X124803713Y-69135239D01*
X124907827Y-69320714D01*
X125062036Y-69482734D01*
X125276082Y-69652789D01*
X125422382Y-69729385D01*
X125748725Y-69810030D01*
X126143080Y-69842693D01*
X126547845Y-69827374D01*
X126905419Y-69764073D01*
X127158202Y-69652789D01*
X127274780Y-69561789D01*
X127501002Y-69337272D01*
X127644308Y-69084619D01*
X127725827Y-68757141D01*
X127766686Y-68308150D01*
X127804411Y-67589380D01*
X128661777Y-67565367D01*
X129519142Y-67541354D01*
X129544565Y-67053496D01*
X129549916Y-66842042D01*
X129526024Y-66616575D01*
X129458696Y-66522932D01*
X129456602Y-66522247D01*
X129336158Y-66511974D01*
X129070779Y-66504259D01*
X128683484Y-66499293D01*
X128197289Y-66497266D01*
X127635213Y-66498368D01*
X127020274Y-66502790D01*
X124693142Y-66525354D01*
X124546151Y-66525354D01*
X124583075Y-66415287D01*
X124659860Y-66390205D01*
X124888463Y-66363020D01*
X125239046Y-66341158D01*
X125685134Y-66324619D01*
X126200252Y-66313403D01*
X126757924Y-66307509D01*
X127331675Y-66306938D01*
X127895030Y-66311689D01*
G37*
G36*
X128227485Y-62174624D02*
G01*
X128476537Y-62211273D01*
X128613209Y-62266620D01*
X128624524Y-62281157D01*
X128674217Y-62457270D01*
X128704545Y-62793418D01*
X128714809Y-63282620D01*
X128714809Y-64197020D01*
X129121209Y-64197020D01*
X129249421Y-64201837D01*
X129488696Y-64238229D01*
X129629209Y-64298620D01*
X129672958Y-64391237D01*
X129714799Y-64619307D01*
X129730809Y-64916687D01*
X129721195Y-65148690D01*
X129684560Y-65398017D01*
X129629209Y-65534754D01*
X129579094Y-65565602D01*
X129382805Y-65616323D01*
X129121209Y-65636354D01*
X129000952Y-65637432D01*
X128812882Y-65655836D01*
X128732052Y-65713415D01*
X128714809Y-65831087D01*
X128700689Y-65964129D01*
X128602363Y-66120837D01*
X128389417Y-66204361D01*
X128037476Y-66229020D01*
X127811021Y-66220725D01*
X127544283Y-66162958D01*
X127402115Y-66037852D01*
X127360142Y-65831087D01*
X127360142Y-65636354D01*
X126022409Y-65636354D01*
X125920563Y-65636223D01*
X125359084Y-65628956D01*
X124955443Y-65610077D01*
X124699991Y-65578903D01*
X124583075Y-65534753D01*
X124534903Y-65424304D01*
X124495833Y-65172938D01*
X124481476Y-64829845D01*
X124481211Y-64642135D01*
X124489425Y-64458683D01*
X124522576Y-64305143D01*
X124557313Y-64239354D01*
X124693142Y-64239354D01*
X124693142Y-64832020D01*
X124693142Y-65424687D01*
X126106095Y-65447877D01*
X127519049Y-65471067D01*
X127545429Y-65744210D01*
X127546123Y-65751392D01*
X127569205Y-65904446D01*
X127629412Y-65983481D01*
X127770812Y-66012963D01*
X128037476Y-66017354D01*
X128047470Y-66017353D01*
X128309859Y-66012526D01*
X128448266Y-65981923D01*
X128506749Y-65901262D01*
X128529369Y-65746261D01*
X128530593Y-65733692D01*
X128554709Y-65585496D01*
X128618413Y-65505601D01*
X128764901Y-65468811D01*
X129037369Y-65449928D01*
X129519142Y-65424687D01*
X129544003Y-64955659D01*
X129548894Y-64762210D01*
X129537769Y-64538203D01*
X129508725Y-64426492D01*
X129453083Y-64403902D01*
X129263284Y-64376890D01*
X128999718Y-64366354D01*
X128550849Y-64366354D01*
X128526996Y-63371520D01*
X128503142Y-62376687D01*
X127995142Y-62358118D01*
X127487142Y-62339550D01*
X126090142Y-63289452D01*
X124693142Y-64239354D01*
X124557313Y-64239354D01*
X124597208Y-64163795D01*
X124729868Y-64016919D01*
X124937104Y-63846794D01*
X125235461Y-63635701D01*
X125641486Y-63365920D01*
X126171725Y-63019731D01*
X126351955Y-62902134D01*
X126769858Y-62631650D01*
X127082335Y-62437039D01*
X127316040Y-62305813D01*
X127487142Y-62230125D01*
X127497632Y-62225485D01*
X127653767Y-62183569D01*
X127811102Y-62167576D01*
X127996292Y-62165020D01*
X128227485Y-62174624D01*
G37*
G36*
X129282278Y-61588962D02*
G01*
X129287007Y-61593548D01*
X129419045Y-61729246D01*
X129500050Y-61852891D01*
X129542483Y-62009828D01*
X129558804Y-62245403D01*
X129561476Y-62604962D01*
X129561476Y-63350354D01*
X129790278Y-63350354D01*
X130032468Y-63422369D01*
X130298278Y-63620962D01*
X130577476Y-63891571D01*
X130577476Y-65966432D01*
X130577476Y-68041292D01*
X130306867Y-68320489D01*
X130250605Y-68377703D01*
X130108072Y-68500846D01*
X129959966Y-68567324D01*
X129751722Y-68594488D01*
X129428774Y-68599687D01*
X128821291Y-68599687D01*
X128763377Y-69036260D01*
X128757401Y-69079835D01*
X128685850Y-69429781D01*
X128564746Y-69717541D01*
X128364634Y-69996591D01*
X128056058Y-70320410D01*
X127952822Y-70418211D01*
X127703224Y-70617530D01*
X127444768Y-70751352D01*
X127137542Y-70831859D01*
X126741637Y-70871230D01*
X126217142Y-70881647D01*
X125995384Y-70880260D01*
X125525629Y-70860032D01*
X125168946Y-70806114D01*
X124885425Y-70706325D01*
X124635155Y-70548484D01*
X124378226Y-70320410D01*
X124213880Y-70160581D01*
X124062862Y-70006103D01*
X123943040Y-69858613D01*
X123850600Y-69698523D01*
X123781728Y-69506243D01*
X123732611Y-69262188D01*
X123699432Y-68946767D01*
X123678380Y-68540395D01*
X123665639Y-68023481D01*
X123657395Y-67376440D01*
X123650899Y-66691919D01*
X123807654Y-66691919D01*
X123807966Y-67437020D01*
X123810389Y-68034975D01*
X123815876Y-68504637D01*
X123825379Y-68864856D01*
X123839853Y-69134482D01*
X123860250Y-69332369D01*
X123887522Y-69477365D01*
X123922622Y-69588323D01*
X123966504Y-69684094D01*
X124025827Y-69789378D01*
X124358410Y-70202671D01*
X124817814Y-70576369D01*
X124841383Y-70589925D01*
X125057592Y-70652461D01*
X125393407Y-70696646D01*
X125807691Y-70722479D01*
X126259313Y-70729960D01*
X126707135Y-70719090D01*
X127110026Y-70689868D01*
X127426849Y-70642294D01*
X127616470Y-70576369D01*
X127987462Y-70291844D01*
X128350700Y-69878629D01*
X128561830Y-69419601D01*
X128630142Y-68899393D01*
X128630142Y-68430354D01*
X129291635Y-68430354D01*
X129446121Y-68429780D01*
X129732602Y-68419163D01*
X129917758Y-68385165D01*
X130050049Y-68314955D01*
X130177937Y-68195704D01*
X130402745Y-67961054D01*
X130403057Y-65965591D01*
X130403369Y-63970128D01*
X130168289Y-63744908D01*
X129976532Y-63602714D01*
X129662676Y-63519687D01*
X129392142Y-63519687D01*
X129392142Y-62731194D01*
X129392142Y-62726948D01*
X129389171Y-62354821D01*
X129373758Y-62109597D01*
X129336085Y-61949261D01*
X129266331Y-61831798D01*
X129154676Y-61715194D01*
X129082787Y-61648705D01*
X128976152Y-61572451D01*
X128845713Y-61525080D01*
X128655089Y-61499734D01*
X128367899Y-61489556D01*
X127947764Y-61487687D01*
X126978318Y-61487687D01*
X125624063Y-62387105D01*
X125191480Y-62677471D01*
X124785099Y-62956109D01*
X124439758Y-63198835D01*
X124182357Y-63386740D01*
X124039797Y-63500909D01*
X123809785Y-63715295D01*
X123807746Y-66543398D01*
X123807654Y-66691919D01*
X123650899Y-66691919D01*
X123649834Y-66579681D01*
X123622525Y-63755343D01*
X123819167Y-63542343D01*
X123841213Y-63520687D01*
X124003910Y-63388030D01*
X124277141Y-63184570D01*
X124636595Y-62927755D01*
X125057964Y-62635032D01*
X125516938Y-62323848D01*
X126978318Y-61344978D01*
X127018066Y-61318354D01*
X128010574Y-61318354D01*
X129003081Y-61318354D01*
X129282278Y-61588962D01*
G37*
G36*
X127946142Y-61741687D02*
G01*
X127989273Y-61741687D01*
X128147269Y-61742272D01*
X128470439Y-61752148D01*
X128682483Y-61780583D01*
X128825649Y-61835740D01*
X128942185Y-61925779D01*
X129024206Y-62013498D01*
X129085286Y-62127541D01*
X129119643Y-62294385D01*
X129134765Y-62552855D01*
X129138142Y-62941779D01*
X129138142Y-63773687D01*
X129450185Y-63773687D01*
X129671130Y-63801376D01*
X129958185Y-63957779D01*
X130018622Y-64019376D01*
X130090784Y-64131538D01*
X130131704Y-64288685D01*
X130149963Y-64532236D01*
X130154142Y-64903612D01*
X130150516Y-65196832D01*
X130129876Y-65501752D01*
X130086180Y-65697746D01*
X130014020Y-65820187D01*
X129950104Y-65895680D01*
X129920370Y-66000837D01*
X130014020Y-66129854D01*
X130064300Y-66202591D01*
X130117884Y-66370474D01*
X130145996Y-66635943D01*
X130154142Y-67034563D01*
X130153644Y-67179556D01*
X130144010Y-67505280D01*
X130115720Y-67718962D01*
X130060494Y-67863152D01*
X129970050Y-67980397D01*
X129933122Y-68018009D01*
X129820203Y-68101803D01*
X129669826Y-68149673D01*
X129438079Y-68171297D01*
X129081050Y-68176354D01*
X128376142Y-68176354D01*
X128375670Y-68536187D01*
X128373295Y-68661254D01*
X128301317Y-69159299D01*
X128113588Y-69575990D01*
X127789230Y-69962095D01*
X127710764Y-70036679D01*
X127482874Y-70224369D01*
X127254153Y-70347882D01*
X126982607Y-70419931D01*
X126626240Y-70453230D01*
X126143059Y-70460494D01*
X125650229Y-70433720D01*
X125196311Y-70331689D01*
X124827875Y-70139597D01*
X124506535Y-69842959D01*
X124441750Y-69766196D01*
X124301076Y-69562698D01*
X124198750Y-69333868D01*
X124129056Y-69050963D01*
X124086280Y-68685238D01*
X124064704Y-68207949D01*
X124059603Y-67690675D01*
X124227475Y-67690675D01*
X124228917Y-67930131D01*
X124239762Y-68388131D01*
X124259497Y-68784836D01*
X124286046Y-69084242D01*
X124317335Y-69250342D01*
X124403474Y-69418062D01*
X124623801Y-69707598D01*
X124899974Y-69979473D01*
X125175771Y-70173244D01*
X125248032Y-70202270D01*
X125522316Y-70257264D01*
X125890719Y-70288326D01*
X126300891Y-70295455D01*
X126700481Y-70278650D01*
X127037139Y-70237914D01*
X127258513Y-70173244D01*
X127433301Y-70060443D01*
X127715781Y-69809412D01*
X127962404Y-69519230D01*
X128116949Y-69250342D01*
X128152268Y-69115986D01*
X128191537Y-68829387D01*
X128206809Y-68509508D01*
X128206809Y-68007020D01*
X128955687Y-68007020D01*
X129272606Y-68003041D01*
X129603147Y-67970599D01*
X129811833Y-67882642D01*
X129926468Y-67712468D01*
X129974858Y-67433369D01*
X129984809Y-67018642D01*
X129973555Y-66658002D01*
X129920098Y-66356671D01*
X129805838Y-66174094D01*
X129612542Y-66083892D01*
X129321975Y-66059687D01*
X129233152Y-66056958D01*
X129044125Y-66027132D01*
X128968809Y-65975020D01*
X128983288Y-65951541D01*
X129114061Y-65907732D01*
X129336687Y-65890354D01*
X129630041Y-65857537D01*
X129844687Y-65735520D01*
X129873216Y-65699250D01*
X129939297Y-65541038D01*
X129974452Y-65287431D01*
X129984809Y-64901976D01*
X129973555Y-64541336D01*
X129920098Y-64240004D01*
X129805838Y-64057427D01*
X129612542Y-63967225D01*
X129321975Y-63943020D01*
X128968809Y-63943020D01*
X128968809Y-63067142D01*
X128968660Y-62954014D01*
X128958337Y-62524728D01*
X128914990Y-62232919D01*
X128815358Y-62052437D01*
X128636180Y-61957133D01*
X128354195Y-61920855D01*
X127946142Y-61917454D01*
X127233142Y-61923888D01*
X125751476Y-62912757D01*
X124269809Y-63901625D01*
X124245444Y-64737622D01*
X124236987Y-65036984D01*
X124239868Y-65361011D01*
X124279816Y-65590547D01*
X124378869Y-65741865D01*
X124559067Y-65831234D01*
X124842450Y-65874925D01*
X125251058Y-65889208D01*
X125806931Y-65890354D01*
X125902524Y-65890506D01*
X126408039Y-65897614D01*
X126786510Y-65914679D01*
X127023893Y-65940786D01*
X127106142Y-65975020D01*
X127103804Y-65981250D01*
X126994731Y-66014193D01*
X126732864Y-66038857D01*
X126332249Y-66054327D01*
X125806931Y-66059687D01*
X125340282Y-66061329D01*
X124967245Y-66068690D01*
X124710926Y-66084734D01*
X124543858Y-66112417D01*
X124438572Y-66154694D01*
X124367598Y-66214520D01*
X124334348Y-66258623D01*
X124289105Y-66366911D01*
X124258335Y-66537521D01*
X124239499Y-66797192D01*
X124230058Y-67172664D01*
X124227475Y-67690675D01*
X124059603Y-67690675D01*
X124058614Y-67590354D01*
X124059191Y-67298294D01*
X124065047Y-66862290D01*
X124079308Y-66554371D01*
X124104548Y-66347609D01*
X124143342Y-66215079D01*
X124198264Y-66129854D01*
X124262181Y-66054360D01*
X124291915Y-65949203D01*
X124198264Y-65820187D01*
X124195705Y-65817327D01*
X124128401Y-65702897D01*
X124086204Y-65521124D01*
X124064367Y-65238128D01*
X124058142Y-64820027D01*
X124057844Y-64713618D01*
X124058108Y-64443062D01*
X124072297Y-64226359D01*
X124116085Y-64044746D01*
X124205144Y-63879456D01*
X124355147Y-63711725D01*
X124581768Y-63522790D01*
X124900679Y-63293884D01*
X125327553Y-63006244D01*
X125878063Y-62641105D01*
X127232318Y-61741687D01*
X127946142Y-61741687D01*
G37*
%TD*%
M02*
